<svg width="50" height="50" viewBox="0 0 50 50" fill="none" xmlns="http://www.w3.org/2000/svg">
<path d="M14.1669 23.333H12.5002C12.2792 23.333 12.0672 23.4208 11.9109 23.5771C11.7547 23.7334 11.6669 23.9453 11.6669 24.1663C11.6669 24.3874 11.7547 24.5993 11.9109 24.7556C12.0672 24.9119 12.2792 24.9997 12.5002 24.9997H14.1669C14.3879 24.9997 14.5998 24.9119 14.7561 24.7556C14.9124 24.5993 15.0002 24.3874 15.0002 24.1663C15.0002 23.9453 14.9124 23.7334 14.7561 23.5771C14.5998 23.4208 14.3879 23.333 14.1669 23.333ZM20.8335 24.9997H22.5002C22.7212 24.9997 22.9332 24.9119 23.0895 24.7556C23.2457 24.5993 23.3335 24.3874 23.3335 24.1663C23.3335 23.9453 23.2457 23.7334 23.0895 23.5771C22.9332 23.4208 22.7212 23.333 22.5002 23.333H20.8335C20.6125 23.333 20.4006 23.4208 20.2443 23.5771C20.088 23.7334 20.0002 23.9453 20.0002 24.1663C20.0002 24.3874 20.088 24.5993 20.2443 24.7556C20.4006 24.9119 20.6125 24.9997 20.8335 24.9997ZM17.5429 27.7632C17.5775 27.867 17.6322 27.963 17.7039 28.0457C17.7757 28.1284 17.8629 28.1961 17.9608 28.2451C18.0587 28.294 18.1653 28.3232 18.2745 28.331C18.3836 28.3387 18.4933 28.3249 18.5971 28.2903C18.7009 28.2557 18.7969 28.201 18.8796 28.1293C18.9623 28.0576 19.03 27.9703 19.0789 27.8724C19.1279 27.7745 19.1571 27.6679 19.1648 27.5588C19.1726 27.4496 19.1588 27.34 19.1242 27.2361L18.2908 24.7361C18.2209 24.5264 18.0706 24.3531 17.8729 24.2543C17.6752 24.1554 17.4463 24.1392 17.2367 24.209C17.027 24.2789 16.8536 24.4293 16.7548 24.627C16.6559 24.8247 16.6397 25.0535 16.7096 25.2632L17.5429 27.7632Z" fill="#EB5C26"/>
<path d="M13.3333 26.6667C13.7936 26.6667 14.1667 26.2936 14.1667 25.8333C14.1667 25.3731 13.7936 25 13.3333 25C12.8731 25 12.5 25.3731 12.5 25.8333C12.5 26.2936 12.8731 26.6667 13.3333 26.6667Z" fill="#EB5C26"/>
<path d="M21.667 26.6667C22.1272 26.6667 22.5003 26.2936 22.5003 25.8333C22.5003 25.3731 22.1272 25 21.667 25C21.2067 25 20.8336 25.3731 20.8336 25.8333C20.8336 26.2936 21.2067 26.6667 21.667 26.6667Z" fill="#EB5C26"/>
<path d="M16.6666 31.6669H18.3333C18.5543 31.6669 18.7662 31.5791 18.9225 31.4228C19.0788 31.2666 19.1666 31.0546 19.1666 30.8336C19.1666 30.6126 19.0788 30.4006 18.9225 30.2443C18.7662 30.088 18.5543 30.0002 18.3333 30.0002H16.6666C16.4456 30.0002 16.2336 30.088 16.0773 30.2443C15.921 30.4006 15.8333 30.6126 15.8333 30.8336C15.8333 31.0546 15.921 31.2666 16.0773 31.4228C16.2336 31.5791 16.4456 31.6669 16.6666 31.6669Z" fill="#EB5C26"/>
<path d="M29.0444 37.6908C27.3141 36.6099 25.3407 35.9795 23.3043 35.8573C23.15 35.5318 22.9269 35.2437 22.6504 35.0128L21.4452 34.0084C22.5204 33.4283 23.4554 32.6195 24.1842 31.639C24.9131 30.6585 25.4182 29.5301 25.664 28.3333H25.8333C26.567 28.3336 27.2802 28.0917 27.8624 27.6451C28.4445 27.1986 28.863 26.5725 29.053 25.8638C29.2429 25.1552 29.1937 24.4036 28.9129 23.7258C28.6321 23.048 28.1354 22.4818 27.5 22.1151V19.5118C27.5 19.0287 27.4049 18.5504 27.22 18.1041C27.0351 17.6578 26.7642 17.2523 26.4226 16.9107C26.081 16.5691 25.6755 16.2982 25.2292 16.1133C24.783 15.9285 24.3046 15.8333 23.8216 15.8333H23.7343C23.7347 15.5871 23.6865 15.3432 23.5924 15.1157C23.4983 14.8881 23.3602 14.6814 23.1859 14.5074L22.6516 13.973C21.1747 12.4963 19.1718 11.6667 17.0833 11.6667C14.9949 11.6667 12.9919 12.4963 11.5151 13.973L9.30969 16.1784C9.27175 16.2164 9.22031 16.2377 9.16667 16.2377C9.11303 16.2377 9.06158 16.2164 9.02365 16.1784C8.76228 15.9171 8.42927 15.7391 8.06675 15.667C7.70422 15.5949 7.32845 15.6319 6.98697 15.7734C6.64548 15.9148 6.35361 16.1544 6.14826 16.4617C5.94292 16.769 5.83332 17.1304 5.83333 17.5V18.2323C5.83151 18.9024 5.96262 19.5663 6.21907 20.1854C6.47553 20.8046 6.85224 21.3667 7.3274 21.8393C7.40797 21.9192 7.49114 21.9965 7.57677 22.0709C6.92522 22.4245 6.41012 22.9851 6.11293 23.6642C5.81574 24.3433 5.75342 25.1021 5.93583 25.8206C6.11824 26.539 6.53496 27.1762 7.1201 27.6313C7.70524 28.0864 8.42539 28.3334 9.16667 28.3333H9.33604C9.57699 29.5059 10.067 30.6131 10.7729 31.5799C11.4787 32.5468 12.384 33.3507 13.4275 33.9374C13.1603 34.1716 12.9495 34.4631 12.8106 34.7902C12.6717 35.1172 12.6083 35.4713 12.6252 35.8262C12.5835 35.8293 12.5421 35.8333 12.4998 35.8333H12.4325C9.70716 35.8333 7.06002 36.7443 4.91188 38.4215C2.76374 40.0987 1.23788 42.4458 0.576875 45.0898C0.193904 46.6224 0.000168387 48.1963 0 49.776V50H1.66667V49.776C1.66681 48.3325 1.84382 46.8945 2.19375 45.4941C2.83513 42.9105 4.43393 40.6671 6.66667 39.2177V43.3333C6.66666 43.4695 6.70004 43.6036 6.76386 43.7239C6.82769 43.8442 6.92003 43.947 7.0328 44.0234C7.14556 44.0997 7.27533 44.1473 7.41072 44.1619C7.54612 44.1765 7.68304 44.1577 7.80948 44.1071L8.91833 43.6635L5.98396 47.8554L7.34937 48.8112L12.7467 41.1008L17.9025 44.0471C18.0034 44.1047 18.0911 44.1828 18.16 44.2763C18.229 44.3698 18.2776 44.4768 18.3027 44.5902C18.3279 44.7036 18.329 44.8211 18.3061 44.935C18.2832 45.0489 18.2367 45.1567 18.1696 45.2516L15.742 48.6856L17.1029 49.6477L19.5305 46.2136C19.8416 45.7743 20.0023 45.2461 19.9886 44.7079C19.9749 44.1697 19.7875 43.6504 19.4545 43.2274L23.05 38.4333C23.2499 38.1669 23.3943 37.8631 23.4748 37.5399C23.6276 37.5531 23.7799 37.5702 23.9317 37.59L22.2502 44.8766C21.8627 46.5568 21.667 48.2756 21.6667 50H23.3333C23.3336 48.4018 23.515 46.8087 23.8741 45.2514L24.3961 42.9893L27.1905 44.107C27.317 44.1576 27.4539 44.1764 27.5892 44.1618C27.7246 44.1472 27.8544 44.0997 27.9672 44.0233C28.0799 43.947 28.1723 43.8442 28.2361 43.7239C28.2999 43.6036 28.3333 43.4695 28.3333 43.3333V39.2177C30.5661 40.6671 32.1649 42.9105 32.8062 45.4941C33.1562 46.8945 33.3332 48.3325 33.3333 49.776V50H35V49.776C34.9998 48.1963 34.8061 46.6224 34.4231 45.0898C33.6614 42.0175 31.7318 39.3632 29.0444 37.6908ZM25.8333 26.6667V23.3333C26.2754 23.3333 26.6993 23.5089 27.0118 23.8215C27.3244 24.134 27.5 24.558 27.5 25C27.5 25.442 27.3244 25.866 27.0118 26.1785C26.6993 26.4911 26.2754 26.6667 25.8333 26.6667ZM7.5 17.5C7.5 17.46 7.51186 17.4209 7.53408 17.3877C7.55631 17.3544 7.58789 17.3285 7.62485 17.3132C7.6618 17.2979 7.70246 17.2939 7.74169 17.3017C7.78091 17.3095 7.81694 17.3288 7.84521 17.3571C8.19597 17.707 8.6712 17.9035 9.16667 17.9035C9.66213 17.9035 10.1374 17.707 10.4881 17.3571L12.6935 15.1517C13.27 14.5752 13.9544 14.1179 14.7076 13.8059C15.4608 13.4939 16.2681 13.3333 17.0833 13.3333C17.8986 13.3333 18.7059 13.4939 19.4591 13.8059C20.2123 14.1179 20.8967 14.5752 21.4731 15.1517L22.0075 15.686C22.0465 15.7251 22.0684 15.7781 22.0684 15.8333C22.0684 15.8886 22.0465 15.9415 22.0075 15.9806L21.0774 16.9107C20.9211 17.067 20.8333 17.279 20.8333 17.5C20.8333 17.721 20.9211 17.933 21.0774 18.0893C21.2337 18.2456 21.4456 18.3334 21.6667 18.3334C21.8877 18.3334 22.0997 18.2456 22.2559 18.0893L22.8452 17.5H23.8216C24.3551 17.5 24.8668 17.712 25.2441 18.0893C25.6213 18.4665 25.8333 18.9782 25.8333 19.5118V21.6667H24.7141C24.3856 21.6676 24.0603 21.6033 23.7568 21.4776C23.4534 21.3519 23.1779 21.1673 22.9464 20.9344L20.5893 18.5774C20.433 18.4212 20.221 18.3334 20 18.3334C19.779 18.3334 19.567 18.4212 19.4107 18.5774C18.4336 19.5599 17.2713 20.3388 15.9911 20.8691C14.7109 21.3994 13.3383 21.6705 11.9526 21.6667H10.9345C10.0236 21.6667 9.15006 21.3048 8.50597 20.6608C7.86189 20.0167 7.50003 19.1432 7.5 18.2323V17.5ZM7.5 25C7.5005 24.5581 7.67625 24.1345 7.9887 23.822C8.30116 23.5096 8.72479 23.3338 9.16667 23.3333V26.6667C8.72479 26.6662 8.30116 26.4904 7.9887 26.178C7.67625 25.8655 7.5005 25.4419 7.5 25ZM10.8333 26.6667V23.3308C10.8671 23.3316 10.9006 23.3333 10.9344 23.3333H11.9526C14.9055 23.3418 17.7601 22.2723 19.9804 20.3255L21.7677 22.1128C22.414 22.7625 23.2579 23.179 24.1667 23.2969V26.6667C24.1653 27.9928 23.7691 29.2885 23.0287 30.3887C22.2883 31.4889 21.2372 32.3438 20.0092 32.8445C19.458 32.5019 18.7952 32.3871 18.161 32.5246C17.5268 32.662 16.971 33.0409 16.6111 33.5809L16.4355 33.8445L16.2946 33.7504C16.1389 33.6466 15.9716 33.5614 15.796 33.4967C15.7581 33.3719 15.6914 33.2579 15.6014 33.1636C15.5113 33.0694 15.4004 32.9976 15.2775 32.9541C13.9784 32.4929 12.8538 31.641 12.0582 30.5153C11.2625 29.3896 10.8346 28.0452 10.8333 26.6667ZM12.4998 37.5C12.7345 37.4999 12.9685 37.475 13.1979 37.4258L13.2051 37.4401L11.8124 39.5292L11.5893 39.8479L11.0682 37.5896C11.5206 37.5303 11.9763 37.5004 12.4325 37.5H12.4998ZM8.33333 38.33C8.69372 38.1778 9.06232 38.0458 9.4374 37.9347L10.2246 41.346L8.33333 42.1025V38.33ZM21.7167 37.4333L18.1081 42.2448L13.6886 39.7194L14.86 37.9622C14.9415 37.84 14.9893 37.6984 14.9984 37.5518C15.0076 37.4051 14.9778 37.2587 14.9121 37.1273L14.362 36.0271C14.2934 35.8899 14.2721 35.7338 14.3014 35.5833C14.3306 35.4327 14.4089 35.296 14.5239 35.1945C14.6389 35.093 14.7842 35.0323 14.9372 35.0219C15.0903 35.0115 15.2425 35.052 15.3701 35.1371L16.2045 35.6933C16.3884 35.8159 16.6134 35.8604 16.8301 35.817C17.0468 35.7737 17.2374 35.6461 17.36 35.4622L17.9978 34.5055C18.0627 34.4082 18.1473 34.3257 18.2461 34.2632C18.345 34.2007 18.4559 34.1598 18.5716 34.143C18.6874 34.1262 18.8053 34.134 18.9179 34.1658C19.0304 34.1976 19.135 34.2527 19.2248 34.3276L21.5834 36.2932C21.7476 36.4299 21.853 36.6245 21.8778 36.8367C21.9026 37.0489 21.8449 37.2625 21.7167 37.4333ZM24.7754 41.3459L25.5627 37.9343C25.9377 38.0456 26.3063 38.1777 26.6667 38.33V42.1025L24.7754 41.3459ZM40.4167 0H37.9167C36.2354 0.000409285 34.5838 0.443003 33.1277 1.28337C31.6715 2.12373 30.462 3.33231 29.6204 4.78781C28.7789 6.24331 28.335 7.89455 28.3333 9.57581C28.3315 11.2571 28.772 12.9092 29.6105 14.3665L28.3761 18.0699C28.3344 18.1952 28.323 18.3285 28.3429 18.4591C28.3629 18.5896 28.4135 18.7135 28.4907 18.8206C28.5679 18.9277 28.6695 19.0149 28.787 19.0751C28.9045 19.1353 29.0346 19.1667 29.1667 19.1667C29.2126 19.1666 29.2584 19.1629 29.3036 19.1554L34.0662 18.3618C35.2796 18.8955 36.5911 19.1697 37.9167 19.1667H40.4167C42.9583 19.1667 45.3959 18.157 47.1931 16.3598C48.9903 14.5625 50 12.125 50 9.58333C50 7.04168 48.9903 4.60412 47.1931 2.80689C45.3959 1.00967 42.9583 0 40.4167 0ZM46.0149 15.1816C45.2814 15.919 44.4089 16.5036 43.448 16.9015C42.4871 17.2995 41.4567 17.5029 40.4167 17.5H37.9167C36.7476 17.5029 35.5927 17.2447 34.5361 16.7445C34.3826 16.672 34.2107 16.6481 34.0432 16.6759L30.3949 17.2839L31.3134 14.528C31.3526 14.4106 31.3651 14.2859 31.3501 14.163C31.335 14.0402 31.2927 13.9222 31.2264 13.8177C30.4685 12.6203 30.046 11.2414 30.0028 9.82501C29.9596 8.40859 30.2974 7.00654 30.9809 5.76519C31.6643 4.52383 32.6685 3.48868 33.8885 2.76776C35.1085 2.04684 36.4996 1.66658 37.9167 1.66667H40.4167C41.9824 1.66675 43.513 2.1311 44.8149 3.00102C46.1168 3.87094 47.1314 5.10736 47.7307 6.55393C48.3299 8.00051 48.4867 9.59227 48.1813 11.128C47.8759 12.6637 47.122 14.0743 46.0149 15.1816Z" fill="#EB5C26"/>
<path d="M39.1663 2.88698C38.6698 2.88562 38.1779 2.98276 37.7192 3.17277C37.2604 3.36279 36.8439 3.6419 36.4937 3.99396C36.4888 3.99894 36.4838 4.00398 36.4789 4.00906L36.0894 4.41896C35.8757 4.63368 35.7065 4.88838 35.5913 5.16851C35.4761 5.44865 35.4172 5.74873 35.418 6.05162C35.4188 6.35451 35.4792 6.65429 35.5958 6.93383C35.7124 7.21337 35.883 7.4672 36.0977 7.68083C36.5314 8.11228 37.1186 8.35378 37.7304 8.35222C38.0333 8.35145 38.333 8.29102 38.6126 8.1744C38.8921 8.05777 39.1459 7.88722 39.3596 7.6725L39.7556 7.27646C39.833 7.19907 39.8944 7.1072 39.9363 7.0061C39.9781 6.90499 39.9997 6.79662 39.9997 6.68719C39.9997 6.57775 39.9781 6.46938 39.9363 6.36827C39.8944 6.26717 39.833 6.1753 39.7556 6.09791C39.6782 6.02053 39.5864 5.95915 39.4853 5.91727C39.3842 5.87539 39.2758 5.85383 39.1663 5.85383C39.0569 5.85383 38.9485 5.87539 38.8474 5.91727C38.7463 5.95915 38.6545 6.02053 38.5771 6.09791L38.181 6.49396C38.1141 6.56088 38.0332 6.61212 37.944 6.64398C37.8549 6.67584 37.7598 6.68753 37.6656 6.67821C37.5714 6.66888 37.4805 6.63877 37.3993 6.59005C37.3182 6.54133 37.2489 6.47521 37.1963 6.39646C37.1146 6.27329 37.0779 6.12568 37.0925 5.97858C37.107 5.83148 37.1719 5.69392 37.2762 5.58916C37.2812 5.58418 37.2862 5.57915 37.291 5.57406L37.6792 5.16562C38.0763 4.77029 38.6143 4.54891 39.1746 4.5502C39.735 4.55149 40.2719 4.77534 40.6673 5.1725C41.0626 5.56966 41.284 6.1076 41.2827 6.66798C41.2814 7.22837 41.0576 7.76529 40.6604 8.16062L39.7555 9.06552C39.3031 9.51549 38.9444 10.0507 38.7003 10.6402C38.4561 11.2297 38.3313 11.8618 38.333 12.4999C38.333 12.7209 38.4208 12.9329 38.5771 13.0892C38.7334 13.2454 38.9453 13.3332 39.1663 13.3332C39.3874 13.3332 39.5993 13.2454 39.7556 13.0892C39.9119 12.9329 39.9997 12.7209 39.9997 12.4999C39.9985 12.0808 40.0805 11.6656 40.2409 11.2784C40.4013 10.8912 40.6369 10.5396 40.9341 10.2441L41.839 9.33916C42.3675 8.81058 42.7275 8.13712 42.8734 7.40394C43.0192 6.67076 42.9444 5.9108 42.6583 5.22017C42.3722 4.52953 41.8878 3.93923 41.2662 3.52393C40.6446 3.10862 39.9139 2.88696 39.1663 2.88698Z" fill="#EB5C26"/>
<path d="M39.1665 15.8337C39.6267 15.8337 39.9998 15.4606 39.9998 15.0003C39.9998 14.5401 39.6267 14.167 39.1665 14.167C38.7062 14.167 38.3331 14.5401 38.3331 15.0003C38.3331 15.4606 38.7062 15.8337 39.1665 15.8337Z" fill="#EB5C26"/>
</svg>
