<svg width="50" height="50" viewBox="0 0 50 50" fill="none" xmlns="http://www.w3.org/2000/svg">
<path d="M25.0834 17.4438C25.7716 17.4438 26.329 16.8862 26.329 16.1983C26.329 15.5105 25.7716 14.9528 25.0834 14.9528C19.5808 14.9528 15.1199 19.4137 15.1199 24.9167C15.1199 30.4195 19.5808 34.8804 25.0834 34.8804C30.5866 34.8804 35.0475 30.4195 35.0475 24.9167C35.0475 24.2286 34.4898 23.6713 33.802 23.6713C33.1142 23.6713 32.5565 24.2286 32.5565 24.9167C32.5565 29.0439 29.211 32.3898 25.0834 32.3898C20.9564 32.3898 17.6105 29.0439 17.6105 24.9167C17.6105 20.7893 20.9564 17.4438 25.0834 17.4438Z" fill="#EB5C26"/>
<path d="M48.8475 17.519C48.6311 16.8655 47.9263 16.5112 47.2724 16.7274C46.6338 16.9387 46.2782 17.6185 46.4686 18.2635C50.1932 30.1247 43.5977 42.7592 31.7366 46.4839C19.876 50.2085 7.24137 43.613 3.51677 31.752C-0.208319 19.891 6.38766 7.25634 18.2483 3.53164C22.6387 2.15301 27.3462 2.15301 31.7366 3.53164C32.3958 3.73037 33.0912 3.35732 33.2901 2.69815C33.4858 2.04883 33.1268 1.3626 32.4817 1.15284C19.3115 -2.97928 5.28483 4.34765 1.15281 17.5182C-2.97931 30.6884 4.34792 44.7151 17.5182 48.8471C30.6888 52.9792 44.715 45.6523 48.8471 32.4817C50.3751 27.6112 50.3753 22.3896 48.8474 17.519H48.8475Z" fill="#EB5C26"/>
<path d="M27.4556 8.89812C27.462 8.18894 26.9173 7.59617 26.2101 7.54314C25.8381 7.5115 25.4658 7.47986 25.0839 7.47986C15.4537 7.47986 7.64697 15.2866 7.64697 24.9168C7.64697 34.5467 15.4537 42.3534 25.0839 42.3534C34.7138 42.3534 42.5205 34.5467 42.5205 24.9169C42.5205 24.4663 42.4931 24.0162 42.4378 23.5691C42.3382 22.8855 41.7034 22.4121 41.0198 22.5117C40.3362 22.6108 39.8628 23.2461 39.962 23.9297C39.9658 23.9555 39.9704 23.981 39.9757 24.007C40.0028 24.3088 40.0295 24.6078 40.0295 24.9161C40.0299 33.1707 33.3386 39.862 25.0843 39.8628C16.8297 39.8632 10.1383 33.1714 10.138 24.9172C10.1376 16.663 16.8285 9.97117 25.0832 9.97087H25.0835C25.3926 9.97087 25.6919 9.99753 25.993 10.0242L26.2264 10.0437C26.8772 10.0716 27.4272 9.56648 27.4548 8.9157C27.4552 8.90955 27.4552 8.90388 27.4556 8.89812Z" fill="#EB5C26"/>
<path d="M32.5565 11.2164V15.6827L24.203 24.0361C23.7083 24.514 23.6946 25.3026 24.1725 25.7973C24.6505 26.292 25.4391 26.3058 25.9337 25.8279C25.9441 25.8179 25.9544 25.8077 25.9643 25.7973L34.3178 17.4439H38.7839C39.1143 17.4439 39.4309 17.3126 39.6648 17.0789L47.1375 9.60581C47.6238 9.11948 47.6238 8.33101 47.1375 7.84458C47.0218 7.72896 46.8846 7.63725 46.7335 7.57468C46.5824 7.51211 46.4205 7.47992 46.257 7.47993H42.5205V3.74341C42.5205 3.05562 41.9628 2.4979 41.2746 2.49829C40.9445 2.49837 40.628 2.62953 40.3946 2.86294L32.9215 10.336C32.8058 10.4515 32.714 10.5888 32.6513 10.7398C32.5887 10.8909 32.5565 11.0528 32.5565 11.2164ZM35.0475 11.7322L40.0294 6.75015V8.72544C40.0294 9.41323 40.5872 9.97095 41.275 9.97095H43.2502L38.2682 14.9529H35.0475V11.7322Z" fill="#EB5C26"/>
</svg>
