<svg width="50" height="50" viewBox="0 0 50 50" fill="none" xmlns="http://www.w3.org/2000/svg">
<path d="M49.6458 37.067C49.2959 36.3857 48.713 35.8527 48.0032 35.565C47.2934 35.2774 46.5039 35.2541 45.7784 35.4995L35.1845 39.0203C35.2317 38.7998 35.2554 38.5714 35.2554 38.3351C35.2554 36.8149 34.0187 35.5783 32.4986 35.5783H25.3152C24.5518 35.5796 23.8075 35.3398 23.1885 34.893L15.7531 29.537C14.9341 28.9473 13.9503 28.6304 12.9411 28.6312H10.2237V28.1822C10.2237 27.4218 9.92167 26.6926 9.384 26.1549C8.84632 25.6172 8.11707 25.3152 7.35668 25.3152H2.86706C2.10667 25.3152 1.37742 25.6172 0.839742 26.1549C0.302064 26.6926 0 27.4218 0 28.1822V41.084C0 41.4069 0.267802 41.6747 0.59074 41.6747C0.913678 41.6747 1.18148 41.4069 1.18148 41.084V28.1822C1.18148 27.2528 1.93763 26.4966 2.86706 26.4966H7.3488C8.27823 26.4966 9.03438 27.2528 9.03438 28.1822V44.8253C9.03438 45.7548 8.27823 46.5109 7.3488 46.5109H2.86706C1.93763 46.5109 1.18148 45.7548 1.18148 44.8253V43.6439C1.18148 43.3209 0.913678 43.0531 0.59074 43.0531C0.267802 43.0531 0 43.3209 0 43.6439V44.8253C0 45.2018 0.0741586 45.5747 0.218242 45.9225C0.362325 46.2704 0.573511 46.5864 0.839742 46.8526C1.10597 47.1189 1.42203 47.3301 1.76988 47.4742C2.11773 47.6182 2.49055 47.6924 2.86706 47.6924H7.3488C7.72531 47.6924 8.09813 47.6182 8.44598 47.4742C8.79383 47.3301 9.10989 47.1189 9.37612 46.8526C9.64235 46.5864 9.85353 46.2704 9.99762 45.9225C10.1417 45.5747 10.2159 45.2018 10.2159 44.8253V43.7463H11.736C12.2874 43.7463 12.8309 43.8959 13.3113 44.1716L22.1803 49.3228C22.8498 49.7088 23.5981 49.9057 24.3464 49.9057C24.8505 49.9057 25.3467 49.819 25.835 49.6379L44.274 42.8877C44.349 42.863 44.4183 42.8234 44.4777 42.7714C44.5372 42.7194 44.5856 42.656 44.6201 42.585C44.6547 42.514 44.6746 42.4367 44.6788 42.3579C44.6829 42.279 44.6712 42.2001 44.6444 42.1258C44.6175 42.0515 44.576 41.9834 44.5224 41.9254C44.4687 41.8675 44.404 41.8209 44.332 41.7883C44.26 41.7558 44.1822 41.7381 44.1033 41.7362C44.0243 41.7342 43.9458 41.7482 43.8723 41.7771L25.4333 48.5273C24.559 48.8502 23.5902 48.7636 22.7789 48.291L13.91 43.1476C13.2483 42.7617 12.5001 42.5648 11.7439 42.5648H10.2237V29.8048H12.9411C13.7052 29.8048 14.4456 30.0411 15.0678 30.49L22.5032 35.8461C23.3303 36.4368 24.2991 36.7519 25.3152 36.7519H32.4986C33.365 36.7519 34.0739 37.4608 34.0739 38.3272C34.0739 38.7525 33.9478 39.2094 33.6564 39.5244L32.5695 39.8867L23.1964 39.9025C23.0397 39.9025 22.8895 39.9647 22.7787 40.0755C22.6679 40.1863 22.6056 40.3366 22.6056 40.4932C22.6056 40.6499 22.6679 40.8002 22.7787 40.911C22.8895 41.0217 23.0397 41.084 23.1964 41.084L32.5852 41.0682H32.7664C33.3492 41.0682 33.8612 40.8871 34.2629 40.5641L46.1486 36.618C47.1017 36.3029 48.1335 36.7204 48.5903 37.6104C48.8581 38.1303 48.8896 38.7368 48.6848 39.2803C48.4722 39.8237 48.039 40.2491 47.4955 40.4539L46.0147 40.9973C45.8675 41.0507 45.7474 41.1603 45.681 41.302C45.6145 41.4438 45.607 41.6062 45.6602 41.7535C45.7469 41.9898 45.9753 42.1394 46.2116 42.1394C46.2825 42.1394 46.3455 42.1316 46.4164 42.1001L47.8972 41.5566C48.7636 41.2415 49.4489 40.5641 49.7797 39.7056C50.1105 38.847 50.0711 37.8861 49.6458 37.067ZM30.5137 2.75679C30.8366 2.75679 31.1044 2.48898 31.1044 2.16605V0.59074C31.1044 0.267802 30.8366 0 30.5137 0C30.1907 0 29.9229 0.267802 29.9229 0.59074V2.16605C29.9229 2.48898 30.1829 2.75679 30.5137 2.75679ZM25.9138 3.07972C26.0004 3.31602 26.2288 3.46567 26.473 3.46567C26.536 3.46567 26.6069 3.4578 26.6778 3.42629C26.825 3.37297 26.9451 3.26337 27.0115 3.12158C27.078 2.9798 27.0855 2.81742 27.0323 2.67014L26.4967 1.18936C26.4719 1.11435 26.4324 1.04507 26.3804 0.985617C26.3284 0.926161 26.265 0.877736 26.1939 0.843204C26.1229 0.808673 26.0457 0.788737 25.9668 0.784576C25.8879 0.780415 25.809 0.792112 25.7347 0.818977C25.6605 0.845843 25.5923 0.887329 25.5344 0.940984C25.4764 0.994639 25.4298 1.05937 25.3973 1.13136C25.3648 1.20334 25.347 1.28111 25.3451 1.36007C25.3432 1.43903 25.3571 1.51757 25.3861 1.59106L25.9138 3.07972ZM22.4639 5.30878C22.5129 5.36857 22.5735 5.41793 22.6419 5.45396C22.7104 5.48999 22.7854 5.51195 22.8624 5.51856C22.9395 5.52517 23.0171 5.51628 23.0907 5.49243C23.1643 5.46857 23.2324 5.43024 23.2909 5.37967C23.5429 5.167 23.5745 4.79681 23.3618 4.54476L22.3457 3.33965C22.133 3.0876 21.7629 3.05609 21.5108 3.26876C21.2588 3.48143 21.2272 3.85162 21.4399 4.10367L22.4639 5.30878ZM18.6201 7.79777L19.9828 8.58542C20.0773 8.64055 20.1797 8.66418 20.2742 8.66418C20.479 8.66418 20.6759 8.56179 20.7862 8.36487C20.9516 8.08132 20.8492 7.719 20.5735 7.56147L19.2109 6.77382C19.1441 6.73502 19.0704 6.70974 18.994 6.69943C18.9175 6.68912 18.8397 6.69398 18.7651 6.71373C18.6905 6.73348 18.6205 6.76773 18.5591 6.81453C18.4978 6.86133 18.4462 6.91976 18.4074 6.98648C18.242 7.27004 18.3366 7.63236 18.6201 7.79777ZM41.0367 19.3763C40.902 19.2979 40.7416 19.2763 40.591 19.3162C40.4403 19.3561 40.3117 19.4542 40.2333 19.5889C40.155 19.7237 40.1334 19.884 40.1733 20.0347C40.2131 20.1853 40.3112 20.314 40.446 20.3923L41.8086 21.18C41.9031 21.2351 42.0055 21.2588 42.1001 21.2588C42.3048 21.2588 42.5018 21.1564 42.612 20.9594C42.7774 20.6759 42.675 20.3136 42.3994 20.156L41.0367 19.3763ZM17.226 12.2401L18.7776 12.5158C18.8092 12.5237 18.8485 12.5237 18.88 12.5237C19.0289 12.5253 19.1729 12.4707 19.2833 12.3706C19.3936 12.2706 19.4621 12.1327 19.475 11.9843C19.488 11.836 19.4444 11.6882 19.3531 11.5706C19.2617 11.453 19.1294 11.3743 18.9824 11.3501L17.4308 11.0744C17.1078 11.0193 16.8006 11.2319 16.7455 11.5549C16.6904 11.8778 16.903 12.1771 17.226 12.2401ZM43.699 16.8952C43.8479 16.8968 43.9919 16.8421 44.1022 16.7421C44.2125 16.6421 44.281 16.5041 44.294 16.3558C44.3069 16.2075 44.2633 16.0597 44.172 15.9421C44.0807 15.8245 43.9483 15.7457 43.8014 15.7216L42.2497 15.4459C41.9268 15.3907 41.6196 15.6034 41.5644 15.9263C41.5093 16.2493 41.722 16.5565 42.0449 16.6116L43.5966 16.8873C43.6281 16.8952 43.6675 16.8952 43.699 16.8952ZM17.3284 16.8952C17.3599 16.8952 17.3993 16.8952 17.4308 16.8873L18.9824 16.6116C19.3054 16.5565 19.518 16.2493 19.4629 15.9263C19.4078 15.6034 19.1006 15.3907 18.7776 15.4459L17.226 15.7216C17.1494 15.7349 17.0761 15.7632 17.0105 15.8049C16.9449 15.8465 16.8881 15.9008 16.8435 15.9644C16.7988 16.0281 16.7672 16.0999 16.7504 16.1759C16.7336 16.2518 16.7319 16.3303 16.7455 16.4068C16.7928 16.6982 17.0448 16.8952 17.3284 16.8952ZM41.5644 12.0275C41.6117 12.311 41.8638 12.5158 42.1473 12.5158C42.1788 12.5158 42.2182 12.5158 42.2497 12.5079L43.8014 12.2323C44.1243 12.1771 44.337 11.8699 44.2819 11.547C44.2267 11.2241 43.9195 11.0114 43.5966 11.0665L42.0449 11.3422C41.8912 11.371 41.7548 11.4588 41.665 11.5869C41.5752 11.715 41.5391 11.8731 41.5644 12.0275ZM19.9828 19.3763L18.6201 20.1639C18.3366 20.3293 18.242 20.6916 18.4074 20.9673C18.5177 21.1564 18.7146 21.2666 18.9194 21.2666C19.0218 21.2666 19.1242 21.243 19.2109 21.1879L20.5735 20.4002C20.8571 20.2348 20.9516 19.8725 20.7862 19.5968C20.6208 19.3211 20.2663 19.2109 19.9828 19.3763ZM40.7453 8.66418C40.8477 8.66418 40.9501 8.64055 41.0367 8.58542L42.3994 7.79777C42.6829 7.63236 42.7774 7.27004 42.612 6.99436C42.5737 6.92717 42.5224 6.86828 42.4611 6.82112C42.3998 6.77396 42.3297 6.73948 42.2549 6.71969C42.1801 6.69989 42.1021 6.69518 42.0255 6.70583C41.9489 6.71647 41.8752 6.74226 41.8086 6.78169L40.446 7.56935C40.1624 7.73475 40.0679 8.09707 40.2333 8.37275C40.3436 8.55391 40.5405 8.66418 40.7453 8.66418ZM38.1067 5.52145C38.2721 5.52145 38.4453 5.45056 38.5556 5.30878L39.5717 4.10367C39.7844 3.85162 39.7528 3.48143 39.5008 3.26876C39.2488 3.05609 38.8786 3.0876 38.6659 3.33965L37.6498 4.55263C37.4371 4.80468 37.4687 5.17488 37.7207 5.38755C37.8389 5.47419 37.9728 5.52145 38.1067 5.52145ZM34.3495 3.43417C34.4126 3.4578 34.4835 3.47355 34.5543 3.47355C34.7985 3.47355 35.0191 3.3239 35.1136 3.0876L35.6492 1.60681C35.6781 1.53333 35.6921 1.45478 35.6901 1.37582C35.6882 1.29686 35.6705 1.21909 35.638 1.14711C35.6054 1.07513 35.5588 1.01039 35.5009 0.956737C35.4429 0.903082 35.3748 0.861596 35.3005 0.834731C35.2262 0.807865 35.1473 0.796168 35.0684 0.800329C34.9896 0.80449 34.9123 0.824426 34.8413 0.858957C34.7703 0.893489 34.7069 0.941914 34.6549 1.00137C34.6029 1.06083 34.5633 1.1301 34.5386 1.20511L34.003 2.6859C33.8848 2.9852 34.0424 3.3239 34.3495 3.43417Z" fill="#EB5C26"/>
<path d="M20.4711 13.7997C20.4238 16.6195 21.5108 19.2503 23.5429 21.2036C25.0867 22.6923 25.9768 24.7638 25.9847 26.8747C25.0789 27.1347 24.4093 27.9617 24.4093 28.9463C24.4093 30.1435 25.3782 31.1123 26.5754 31.1123H27.0165C26.8668 31.4116 26.7723 31.7424 26.7723 32.0969C26.7723 33.2941 27.7411 34.2629 28.9384 34.2629H32.089C33.2862 34.2629 34.255 33.2941 34.255 32.0969C34.255 31.7424 34.1605 31.4116 34.0108 31.1123H34.4519C35.6492 31.1123 36.618 30.1435 36.618 28.9463C36.618 27.9617 35.9485 27.1347 35.0427 26.8747C35.0505 24.9371 35.8303 23.0231 37.2402 21.4636C37.4608 21.2194 37.4371 20.8492 37.2008 20.6286C37.0845 20.5241 36.9316 20.4695 36.7753 20.4769C36.619 20.4843 36.4719 20.5529 36.3659 20.668C34.7827 22.4166 33.9006 24.5827 33.8691 26.7802H31.1044V19.2581C33.7509 19.0691 36.2084 17.6277 38.0751 15.1229C38.2327 14.9103 38.2327 14.6267 38.0751 14.4141C36.0666 11.7203 33.3807 10.2395 30.5137 10.2395C27.6466 10.2395 24.9607 11.7203 22.9522 14.4141C22.7947 14.6267 22.7947 14.9103 22.9522 15.1229C24.8189 17.6277 27.2764 19.0691 29.9229 19.2581V26.7802H27.1583C27.1268 24.3779 26.1186 22.0385 24.3621 20.353C22.5741 18.628 21.6053 16.3044 21.6526 13.8233C21.7313 9.21555 25.5436 5.31667 30.1435 5.13551C32.5852 5.03311 34.893 5.90741 36.6495 7.60086C38.4059 9.28644 39.3748 11.5549 39.3748 13.9887C39.3748 15.7373 38.8628 17.4308 37.9018 18.8801C37.7207 19.1479 37.7916 19.5181 38.0673 19.6992C38.3429 19.8804 38.7053 19.8095 38.8864 19.5338C39.9812 17.8876 40.5562 15.9736 40.5562 13.9887C40.5562 11.2319 39.4614 8.65632 37.4686 6.74232C35.4759 4.82832 32.8687 3.84376 30.0962 3.95403C24.8819 4.15882 20.5656 8.57755 20.4711 13.7997ZM24.1731 14.7685C25.9138 12.6025 28.1507 11.421 30.5137 11.421C32.8766 11.421 35.1136 12.6025 36.8543 14.7685C35.1136 16.9267 32.8766 18.116 30.5137 18.116C28.1507 18.116 25.9138 16.9267 24.1731 14.7685ZM33.0735 32.0969C33.0735 32.6404 32.6324 33.0814 32.089 33.0814H28.9384C28.6772 33.0814 28.4268 32.9777 28.2422 32.7931C28.0575 32.6084 27.9538 32.358 27.9538 32.0969C27.9538 31.8357 28.0575 31.5853 28.2422 31.4007C28.4268 31.216 28.6772 31.1123 28.9384 31.1123H32.089C32.6324 31.1123 33.0735 31.5534 33.0735 32.0969ZM35.4365 28.9463C35.4365 29.4897 34.9954 29.9308 34.4519 29.9308H26.5754C26.3143 29.9308 26.0638 29.8271 25.8792 29.6425C25.6946 29.4578 25.5908 29.2074 25.5908 28.9463C25.5908 28.6851 25.6946 28.4347 25.8792 28.2501C26.0638 28.0654 26.3143 27.9617 26.5754 27.9617H34.4519C34.9954 27.9617 35.4365 28.4028 35.4365 28.9463Z" fill="#EB5C26"/>
<path d="M32.8767 14.7685C32.8767 14.5479 32.8373 14.3431 32.7822 14.1462C32.6064 14.275 32.3983 14.3525 32.1811 14.3701C31.9639 14.3877 31.7461 14.3448 31.5519 14.246C31.3576 14.1473 31.1946 13.9966 31.0808 13.8107C30.9671 13.6248 30.9071 13.4111 30.9075 13.1932C30.9075 12.9332 30.9942 12.6969 31.136 12.5C30.9338 12.4406 30.7244 12.4088 30.5137 12.4055C29.2062 12.4055 28.1508 13.461 28.1508 14.7685C28.1508 16.076 29.2062 17.1314 30.5137 17.1314C31.8212 17.1314 32.8767 16.076 32.8767 14.7685Z" fill="#EB5C26"/>
</svg>
