<svg width="50" height="50" viewBox="0 0 50 50" fill="none" xmlns="http://www.w3.org/2000/svg">
<path d="M5.20831 24.9999C5.20831 15.67 5.20831 11.0051 8.10674 8.10667C11.0052 5.20825 15.6701 5.20825 25 5.20825C34.3299 5.20825 38.9948 5.20825 41.8932 8.10667C44.7916 11.0051 44.7916 15.67 44.7916 24.9999C44.7916 34.3298 44.7916 38.9947 41.8932 41.8932C38.9948 44.7916 34.3299 44.7916 25 44.7916C15.6701 44.7916 11.0052 44.7916 8.10674 41.8932C5.20831 38.9947 5.20831 34.3298 5.20831 24.9999Z" stroke="#141B34" stroke-width="3"/>
<path d="M12.5 28.125L15.625 18.75L19.5312 28.125M12.5 28.125L11.4583 31.25M12.5 28.125H19.5312M19.5312 28.125L20.8333 31.25" stroke="#141B34" stroke-width="3" stroke-linecap="round" stroke-linejoin="round"/>
<path d="M26.0417 25V20.2083C26.0417 19.8206 26.0417 19.6267 26.0927 19.4698C26.1957 19.1527 26.4443 18.904 26.7615 18.801C26.9184 18.75 27.1123 18.75 27.5 18.75H30.2084C31.9342 18.75 33.3334 20.1491 33.3334 21.875C33.3334 23.6009 31.9342 25 30.2084 25H26.0417ZM26.0417 25V31.25" stroke="#141B34" stroke-width="3" stroke-linecap="round" stroke-linejoin="round"/>
<path d="M38.5417 18.75V31.25" stroke="#141B34" stroke-width="3" stroke-linecap="round" stroke-linejoin="round"/>
</svg>
