<svg width="50" height="50" viewBox="0 0 50 50" fill="none" xmlns="http://www.w3.org/2000/svg">
<path d="M7.16529 17.8347C8.08058 18.75 9.55372 18.75 12.5 18.75C15.4463 18.75 16.9194 18.75 17.8347 17.8347C18.75 16.9194 18.75 15.4463 18.75 12.5C18.75 9.55372 18.75 8.08058 17.8347 7.16529C16.9194 6.25 15.4463 6.25 12.5 6.25C9.55372 6.25 8.08058 6.25 7.16529 7.16529C6.25 8.08058 6.25 9.55372 6.25 12.5C6.25 15.4463 6.25 16.9194 7.16529 17.8347Z" stroke="#141B34" stroke-width="3" stroke-linecap="round" stroke-linejoin="round"/>
<path d="M32.1653 17.8347C33.0806 18.75 34.5537 18.75 37.5 18.75C40.4463 18.75 41.9194 18.75 42.8347 17.8347C43.75 16.9194 43.75 15.4463 43.75 12.5C43.75 9.55372 43.75 8.08058 42.8347 7.16529C41.9194 6.25 40.4463 6.25 37.5 6.25C34.5537 6.25 33.0806 6.25 32.1653 7.16529C31.25 8.08058 31.25 9.55372 31.25 12.5C31.25 15.4463 31.25 16.9194 32.1653 17.8347Z" stroke="#141B34" stroke-width="3" stroke-linecap="round" stroke-linejoin="round"/>
<path d="M32.1653 42.8347C33.0806 43.75 34.5537 43.75 37.5 43.75C40.4463 43.75 41.9194 43.75 42.8347 42.8347C43.75 41.9194 43.75 40.4463 43.75 37.5C43.75 34.5537 43.75 33.0806 42.8347 32.1653C41.9194 31.25 40.4463 31.25 37.5 31.25C34.5537 31.25 33.0806 31.25 32.1653 32.1653C31.25 33.0806 31.25 34.5537 31.25 37.5C31.25 40.4463 31.25 41.9194 32.1653 42.8347Z" stroke="#141B34" stroke-width="3" stroke-linecap="round" stroke-linejoin="round"/>
<path d="M7.16529 42.8347C8.08058 43.75 9.55372 43.75 12.5 43.75C15.4463 43.75 16.9194 43.75 17.8347 42.8347C18.75 41.9194 18.75 40.4463 18.75 37.5C18.75 34.5537 18.75 33.0806 17.8347 32.1653C16.9194 31.25 15.4463 31.25 12.5 31.25C9.55372 31.25 8.08058 31.25 7.16529 32.1653C6.25 33.0806 6.25 34.5537 6.25 37.5C6.25 40.4463 6.25 41.9194 7.16529 42.8347Z" stroke="#141B34" stroke-width="3" stroke-linecap="round" stroke-linejoin="round"/>
<path d="M25 12.5H18.75" stroke="#141B34" stroke-width="3" stroke-linecap="round" stroke-linejoin="round"/>
<path d="M31.25 37.5H25" stroke="#141B34" stroke-width="3" stroke-linecap="round" stroke-linejoin="round"/>
<path d="M37.5 25L37.5 18.75" stroke="#141B34" stroke-width="3" stroke-linecap="round" stroke-linejoin="round"/>
<path d="M12.5 31.25L12.5 25" stroke="#141B34" stroke-width="3" stroke-linecap="round" stroke-linejoin="round"/>
</svg>
