<svg width="50" height="50" viewBox="0 0 50 50" fill="none" xmlns="http://www.w3.org/2000/svg">
<path d="M47.0006 16.5295C46.9829 16.4283 46.9454 16.3317 46.8903 16.2451C46.8352 16.1584 46.7635 16.0835 46.6794 16.0246C46.5953 15.9657 46.5004 15.9239 46.4002 15.9017C46.3 15.8795 46.1963 15.8773 46.0952 15.8951L42.2501 16.5724C42.1489 16.5902 42.0522 16.6277 41.9655 16.6829C41.8788 16.738 41.8039 16.8098 41.745 16.8939C41.686 16.9781 41.6443 17.0731 41.6221 17.1734C41.6 17.2737 41.5978 17.3775 41.6158 17.4786L41.783 18.4247L39.5956 18.8067L38.2793 18.6051V7.03083C38.2793 6.20207 37.9501 5.40727 37.364 4.82125C36.778 4.23523 35.9832 3.90601 35.1545 3.90601H29.686V2.34361C29.686 1.72204 29.4391 1.12594 28.9996 0.686427C28.5601 0.246915 27.964 0 27.3424 0L22.6552 0C22.0337 0 21.4375 0.246915 20.998 0.686427C20.5585 1.12594 20.3116 1.72204 20.3116 2.34361V3.90601H14.8432C14.0144 3.90601 13.2196 4.23523 12.6336 4.82125C12.0476 5.40727 11.7184 6.20207 11.7184 7.03083V18.6075L10.3966 18.8098L8.21547 18.4255L8.38186 17.4786C8.39985 17.3775 8.39769 17.2737 8.37553 17.1734C8.35336 17.0731 8.31163 16.9781 8.2527 16.8939C8.19378 16.8098 8.11883 16.738 8.03214 16.6829C7.94545 16.6277 7.84874 16.5902 7.74753 16.5724L3.90635 15.8951C3.80519 15.8772 3.70147 15.8793 3.60113 15.9015C3.5008 15.9236 3.40583 15.9654 3.32165 16.0243C3.23747 16.0832 3.16575 16.1582 3.11058 16.2449C3.05541 16.3315 3.01789 16.4283 3.00016 16.5295L0.0120555 33.4527C-0.00592624 33.5538 -0.00377372 33.6576 0.0183898 33.7579C0.0405533 33.8582 0.0822924 33.9532 0.141217 34.0374C0.200141 34.1215 0.275092 34.1933 0.361778 34.2484C0.448464 34.3036 0.545182 34.3411 0.646392 34.3589L4.49225 35.0362C4.59336 35.054 4.697 35.0518 4.79724 35.0296C4.89749 35.0074 4.99237 34.9656 5.07646 34.9067C5.16055 34.8478 5.2322 34.7729 5.28732 34.6862C5.34243 34.5996 5.37993 34.503 5.39767 34.4018L5.46876 33.9823L6.11403 34.0964C6.70878 35.4064 7.57404 36.5757 8.65294 37.5274C8.61159 38.2328 8.81241 38.9311 9.22213 39.5068C9.63186 40.0825 10.2259 40.5009 10.9059 40.6929C10.5405 41.2999 10.3934 42.0135 10.4893 42.7156C10.5851 43.4176 10.918 44.0658 11.4327 44.5526C11.9475 45.0395 12.6132 45.3358 13.3195 45.3923C14.0257 45.4489 14.7301 45.2624 15.3158 44.8637C15.3935 45.3824 15.6019 45.8729 15.9215 46.2888C16.241 46.7048 16.6612 47.0325 17.1424 47.2412C17.6236 47.45 18.15 47.5328 18.6721 47.4819C19.1941 47.431 19.6946 47.248 20.1265 46.9503C20.1996 47.4287 20.384 47.8833 20.665 48.2775C20.9459 48.6716 21.3155 48.9942 21.7439 49.2193C22.1724 49.4445 22.6477 49.5658 23.1317 49.5736C23.6156 49.5814 24.0946 49.4754 24.5301 49.2642V49.2689L24.8426 49.4767C25.1848 49.7033 25.5683 49.8602 25.9712 49.9385C26.3741 50.0169 26.7884 50.0151 27.1906 49.9332C27.5928 49.8514 27.9749 49.6912 28.3152 49.4616C28.6554 49.2321 28.9471 48.9378 29.1736 48.5955C29.5156 48.0748 29.6905 47.4621 29.6751 46.8394C29.9285 46.9084 30.1898 46.9446 30.4524 46.9472C30.8652 46.9484 31.2742 46.8677 31.6555 46.7098C32.0369 46.5518 32.3832 46.3197 32.6742 46.0269C32.9652 45.7342 33.1952 45.3866 33.3509 45.0042C33.5066 44.6219 33.5848 44.2125 33.5811 43.7997C33.8298 43.8651 34.0857 43.8992 34.3428 43.9013C34.7551 43.9013 35.1633 43.8197 35.5439 43.6612C35.9245 43.5028 36.27 43.2706 36.5604 42.978C36.8509 42.6855 37.0806 42.3383 37.2363 41.9566C37.392 41.5748 37.4706 41.166 37.4676 40.7538C37.9438 40.8779 38.4428 40.8868 38.9231 40.7797C39.4035 40.6726 39.8514 40.4526 40.2298 40.1379C40.6082 39.8233 40.9062 39.423 41.0992 38.9703C41.2921 38.5175 41.3744 38.0253 41.3392 37.5345C42.4192 36.5812 43.2845 35.4096 43.8782 34.0972L44.5289 33.9862L44.6023 34.4018C44.6201 34.503 44.6576 34.5998 44.7128 34.6864C44.7679 34.7731 44.8396 34.8481 44.9238 34.907C45.008 34.9659 45.103 35.0077 45.2033 35.0298C45.3036 35.052 45.4074 35.0541 45.5085 35.0362L49.3536 34.3589C49.4548 34.3411 49.5515 34.3036 49.6382 34.2484C49.7249 34.1933 49.7999 34.1215 49.8588 34.0374C49.9177 33.9532 49.9594 33.8582 49.9816 33.7579C50.0038 33.6576 50.0059 33.5538 49.9879 33.4527L47.0006 16.5295ZM21.874 2.34361C21.874 2.13642 21.9563 1.93772 22.1028 1.79121C22.2493 1.64471 22.448 1.56241 22.6552 1.56241H27.3424C27.5496 1.56241 27.7483 1.64471 27.8948 1.79121C28.0413 1.93772 28.1236 2.13642 28.1236 2.34361V3.90601H21.874V2.34361ZM13.2808 7.03083C13.2808 6.61645 13.4454 6.21905 13.7384 5.92604C14.0314 5.63303 14.4288 5.46842 14.8432 5.46842H35.1545C35.5688 5.46842 35.9662 5.63303 36.2593 5.92604C36.5523 6.21905 36.7169 6.61645 36.7169 7.03083V9.37443C36.7169 9.996 36.47 10.5921 36.0304 11.0316C35.5909 11.4711 34.9948 11.718 34.3733 11.718V10.9368C34.3733 10.7297 34.291 10.531 34.1445 10.3844C33.998 10.2379 33.7992 10.1556 33.5921 10.1556H30.4672C30.2601 10.1556 30.0614 10.2379 29.9149 10.3844C29.7683 10.531 29.686 10.7297 29.686 10.9368V11.718H20.3116V10.9368C20.3116 10.7297 20.2293 10.531 20.0828 10.3844C19.9363 10.2379 19.7376 10.1556 19.5304 10.1556H16.4056C16.1984 10.1556 15.9997 10.2379 15.8532 10.3844C15.7067 10.531 15.6244 10.7297 15.6244 10.9368V11.718C15.0028 11.718 14.4067 11.4711 13.9672 11.0316C13.5277 10.5921 13.2808 9.996 13.2808 9.37443V7.03083ZM32.8109 11.718V13.2804H31.2485V11.718H32.8109ZM18.7492 11.718V13.2804H17.1868V11.718H18.7492ZM13.2808 12.4789C13.9529 12.9959 14.7764 13.2776 15.6244 13.2804V14.0617C15.6244 14.2688 15.7067 14.4675 15.8532 14.614C15.9997 14.7605 16.1984 14.8429 16.4056 14.8429H19.5304C19.7376 14.8429 19.9363 14.7605 20.0828 14.614C20.2293 14.4675 20.3116 14.2688 20.3116 14.0617V13.2804H29.686V14.0617C29.686 14.2688 29.7683 14.4675 29.9149 14.614C30.0614 14.7605 30.2601 14.8429 30.4672 14.8429H33.5921C33.7992 14.8429 33.998 14.7605 34.1445 14.614C34.291 14.4675 34.3733 14.2688 34.3733 14.0617V13.2804C35.2212 13.2776 36.0447 12.9959 36.7169 12.4789V18.3661L30.7797 17.4583C29.4887 17.2639 28.169 17.4312 26.9675 17.9419L24.9988 18.7809L23.0357 17.9442C21.8322 17.4314 20.5095 17.2644 19.2164 17.4622L13.2808 18.3692V12.4789ZM3.99463 33.3628L1.68695 32.955L4.39929 17.5653L6.70775 17.9724L3.99463 33.3628ZM10.57 38.693C10.3038 38.3756 10.1745 37.9655 10.2105 37.5529C10.2465 37.1402 10.445 36.7587 10.7622 36.4923L13.755 33.9823C13.9121 33.8504 14.0938 33.7507 14.2894 33.689C14.4851 33.6272 14.6911 33.6046 14.8955 33.6225C15.0999 33.6403 15.2988 33.6983 15.4808 33.793C15.6629 33.8877 15.8245 34.0173 15.9564 34.1745C16.0883 34.3317 16.188 34.5133 16.2498 34.709C16.3115 34.9047 16.3341 35.1106 16.3162 35.315C16.2984 35.5194 16.2405 35.7183 16.1458 35.9004C16.051 36.0824 15.9214 36.244 15.7642 36.3759L12.7714 38.8875C12.6141 39.0193 12.4324 39.1188 12.2366 39.1804C12.0409 39.242 11.8349 39.2644 11.6304 39.2463C11.426 39.2282 11.2271 39.1701 11.0452 39.0751C10.8632 38.9802 10.7018 38.8503 10.57 38.693ZM14.587 43.481C14.4297 43.6129 14.2481 43.7126 14.0523 43.7743C13.8566 43.836 13.6506 43.8586 13.4462 43.8407C13.2417 43.8228 13.0428 43.7648 12.8607 43.6701C12.6787 43.5753 12.5171 43.4456 12.3851 43.2884C12.2532 43.1312 12.1535 42.9495 12.0918 42.7538C12.0301 42.558 12.0075 42.3521 12.0254 42.1476C12.0433 41.9432 12.1013 41.7442 12.196 41.5622C12.2908 41.3801 12.4205 41.2185 12.5777 41.0866L16.1712 38.0735C16.4903 37.8237 16.894 37.7077 17.297 37.7499C17.7001 37.7921 18.0709 37.9893 18.3313 38.2998C18.5917 38.6103 18.7213 39.0098 18.6928 39.414C18.6642 39.8182 18.4797 40.1956 18.1781 40.4663L14.587 43.481ZM19.3953 45.5652C19.238 45.6971 19.0564 45.7967 18.8607 45.8584C18.665 45.9201 18.459 45.9426 18.2546 45.9247C18.0502 45.9068 17.8513 45.8487 17.6693 45.754C17.4873 45.6592 17.3257 45.5295 17.1938 45.3723C17.062 45.215 16.9623 45.0334 16.9007 44.8377C16.839 44.642 16.8165 44.436 16.8344 44.2316C16.8523 44.0272 16.9103 43.8283 17.0051 43.6463C17.0999 43.4643 17.2296 43.3027 17.3868 43.1708L19.7812 41.1624C20.0992 40.9013 20.5074 40.7762 20.9171 40.8143C21.3268 40.8524 21.7049 41.0505 21.9694 41.3657C22.2338 41.6809 22.3633 42.0877 22.3297 42.4978C22.296 42.9079 22.102 43.2881 21.7896 43.556L19.3953 45.5652ZM24.2028 47.6534C23.8848 47.916 23.476 48.0423 23.0653 48.0047C22.6547 47.967 22.2755 47.7686 22.0106 47.4526C21.7456 47.1366 21.6163 46.7287 21.6509 46.3178C21.6854 45.9069 21.8811 45.5263 22.1951 45.259L24.5887 43.2505C24.7459 43.1186 24.9275 43.0189 25.1232 42.9571C25.3189 42.8954 25.5248 42.8728 25.7292 42.8906C25.9336 42.9085 26.1326 42.9664 26.3146 43.0611C26.4966 43.1558 26.6582 43.2855 26.7901 43.4427C26.922 43.5999 27.0217 43.7815 27.0834 43.9773C27.1451 44.173 27.1676 44.3789 27.1497 44.5834C27.1317 44.7878 27.0737 44.9867 26.9789 45.1687C26.8841 45.3507 26.7544 45.5123 26.5972 45.6441L24.2028 47.6534ZM27.869 47.7362C27.6619 48.0518 27.3466 48.2808 26.9824 48.3801C26.6182 48.4794 26.2303 48.4421 25.8917 48.2752L27.6018 46.8409C27.7635 46.7057 27.9112 46.5544 28.0424 46.3894C28.1163 46.6117 28.1391 46.8479 28.1091 47.0803C28.0791 47.3126 27.997 47.5353 27.869 47.7315V47.7362ZM39.5394 38.5914C39.4261 38.7626 39.2803 38.9097 39.1101 39.0245C38.94 39.1392 38.749 39.2194 38.5479 39.2603C38.3468 39.3012 38.1396 39.3021 37.9382 39.2629C37.7367 39.2238 37.545 39.1453 37.3739 39.032L30.8578 34.7221C30.7724 34.6602 30.6754 34.6163 30.5725 34.5929C30.4696 34.5695 30.3631 34.5672 30.2593 34.5862C30.1555 34.6051 30.0567 34.6448 29.9687 34.703C29.8807 34.7612 29.8054 34.8365 29.7473 34.9246C29.6892 35.0127 29.6496 35.1116 29.6308 35.2154C29.6119 35.3192 29.6143 35.4257 29.6378 35.5286C29.6613 35.6314 29.7054 35.7284 29.7674 35.8138C29.8294 35.8991 29.908 35.971 29.9985 36.0252L35.2123 39.4757C35.5577 39.7048 35.7979 40.0617 35.8802 40.4678C35.9624 40.874 35.88 41.2962 35.6509 41.6416C35.4219 41.987 35.065 42.2273 34.6588 42.3095C34.2526 42.3918 33.8304 42.3093 33.485 42.0803L28.2721 38.6305C28.1852 38.5723 28.0874 38.5324 27.9846 38.5133C27.8072 38.4799 27.6237 38.5089 27.4653 38.5955C27.3069 38.6821 27.1833 38.8208 27.1156 38.9882C27.048 39.1555 27.0404 39.3412 27.0941 39.5135C27.1478 39.6859 27.2596 39.8343 27.4104 39.9335L31.3164 42.5217C31.6597 42.7515 31.898 43.1079 31.9791 43.513C32.0603 43.9181 31.9777 44.3388 31.7494 44.6832C31.5212 45.0275 31.1658 45.2674 30.7611 45.3504C30.3565 45.4335 29.9354 45.3528 29.59 45.1262L28.6994 44.5372C28.7209 43.964 28.5829 43.3961 28.3006 42.8967C28.0184 42.3974 27.603 41.9862 27.1009 41.709C26.5987 41.4319 26.0294 41.2996 25.4565 41.3269C24.8835 41.3543 24.3294 41.5402 23.8559 41.8639C23.7954 41.4577 23.6541 41.0678 23.4405 40.717C23.2269 40.3663 22.9453 40.0619 22.6123 39.8216C22.2792 39.5814 21.9015 39.4102 21.5012 39.3182C21.101 39.2262 20.6865 39.2152 20.2819 39.2859C20.2956 38.5465 20.0412 37.8271 19.5658 37.2606C19.0903 36.6941 18.426 36.3188 17.6954 36.2041C17.924 35.5591 17.9339 34.8567 17.7235 34.2055C17.5131 33.5543 17.0942 32.9905 16.5314 32.6012C15.9687 32.2118 15.2934 32.0186 14.6098 32.0514C13.9263 32.0841 13.2725 32.341 12.7496 32.7824L9.75678 35.294C9.54755 35.4741 9.36361 35.6817 9.20994 35.9111C8.42811 35.1051 7.81184 34.1536 7.39599 33.1105C7.34673 32.9865 7.26652 32.8771 7.16299 32.7928C7.05947 32.7086 6.93609 32.6523 6.80461 32.6293L5.7414 32.4418L7.94205 19.9621L10.2497 20.3691C10.3337 20.3835 10.4196 20.3835 10.5036 20.3691L19.4523 19.0067C20.4574 18.8525 21.4856 18.9824 22.4209 19.3816L23.0021 19.6293L19.8827 20.9573C19.1819 21.257 18.5844 21.7557 18.1641 22.3916L15.2244 26.8234C14.8843 27.3439 14.7636 27.9777 14.8885 28.5868C15.0135 29.1959 15.374 29.731 15.8916 30.0755C16.7559 30.645 17.8108 30.8487 18.825 30.6417C19.8392 30.4348 20.73 29.8343 21.3022 28.9717L22.6435 26.9515L25.4957 26.3679C25.8031 27.3157 26.3253 28.1797 27.0215 28.8924C27.7177 29.6052 28.5692 30.1475 29.5095 30.4771C29.8428 30.5959 30.1846 30.6891 30.5321 30.756L39.098 36.4275C39.4433 36.6561 39.6838 37.0124 39.7665 37.4181C39.8493 37.8239 39.7676 38.2459 39.5394 38.5914ZM43.1915 32.6308C43.0595 32.6538 42.9356 32.7104 42.8318 32.7951C42.7279 32.8798 42.6476 32.9897 42.5985 33.1144C42.1825 34.1623 41.564 35.118 40.7783 35.9267C40.5584 35.6102 40.2809 35.3378 39.9604 35.1237L33.3202 30.731C34.1831 30.5585 35.005 30.2228 35.7419 29.742L36.9692 28.9373C37.1424 28.8234 37.2633 28.6453 37.3052 28.4422C37.3471 28.2392 37.3066 28.0278 37.1926 27.8546C37.0787 27.6814 36.9006 27.5605 36.6975 27.5186C36.4945 27.4767 36.2831 27.5172 36.1099 27.6311L34.8865 28.4358C34.179 28.9005 33.3729 29.1941 32.5322 29.2932C31.6915 29.3923 30.8393 29.2943 30.0431 29.0068C29.3103 28.7515 28.6483 28.3266 28.1111 27.7667C27.5739 27.2068 27.1766 26.5278 26.9518 25.7852C26.9031 25.6247 26.8619 25.462 26.8284 25.2977C26.7861 25.0955 26.6655 24.9183 26.4929 24.8049C26.3203 24.6914 26.1097 24.6509 25.9074 24.6923L22.0162 25.4891C21.8137 25.5305 21.6359 25.6504 21.5217 25.8227L20.0069 28.1108C19.6635 28.628 19.1292 28.9881 18.5209 29.1124C17.9126 29.2367 17.2799 29.115 16.761 28.774C16.5879 28.6587 16.4672 28.4798 16.4251 28.2761C16.383 28.0724 16.4229 27.8603 16.5361 27.6858L19.4742 23.2548C19.7261 22.8743 20.0837 22.5757 20.503 22.3955L27.5815 19.3801C28.5173 18.9828 29.5448 18.8528 30.5501 19.0043L39.4948 20.3714C39.5784 20.3843 39.6635 20.3843 39.7472 20.3714L42.0595 19.9668L44.2555 32.4465L43.1915 32.6308ZM46.0038 33.3613L43.2907 17.9716L45.5991 17.5646L48.3115 32.9543L46.0038 33.3613Z" fill="#EB5C26"/>
</svg>
