<svg width="50" height="50" viewBox="0 0 50 50" fill="none" xmlns="http://www.w3.org/2000/svg">
<path d="M25 37.1041H4.16669C3.31252 37.1041 2.60419 36.3958 2.60419 35.5416C2.60419 34.6875 3.31252 33.9791 4.16669 33.9791H25C25.8542 33.9791 26.5625 34.6875 26.5625 35.5416C26.5625 36.4166 25.8542 37.1041 25 37.1041Z" fill="black"/>
<path d="M20.3746 47.3958H8.81195C4.24945 47.3958 2.62451 45.7917 2.62451 41.25V32.7083C2.62451 28.1667 4.24945 26.5625 8.81195 26.5625H20.3746C24.9371 26.5625 26.562 28.1667 26.562 32.7083V41.2708C26.562 45.7917 24.9371 47.3958 20.3746 47.3958ZM8.7911 29.6875C5.95776 29.6875 5.72866 29.9167 5.72866 32.7083V41.2708C5.72866 44.0625 5.95776 44.2917 8.7911 44.2917H20.3537C23.187 44.2917 23.4161 44.0625 23.4161 41.2708V32.7083C23.4161 29.9167 23.187 29.6875 20.3537 29.6875H8.7911Z" fill="black"/>
<path d="M31.2504 47.3958C30.6879 47.3958 30.167 47.0833 29.8962 46.6041C29.6254 46.1041 29.6254 45.5208 29.9171 45.0208L32.1045 41.375C32.542 40.6458 33.5004 40.3958 34.2504 40.8333C35.0004 41.2708 35.2296 42.2291 34.7921 42.9791L34.2296 43.9166C39.9796 42.5625 44.2921 37.3958 44.2921 31.2291C44.2921 30.375 45.0004 29.6666 45.8546 29.6666C46.7088 29.6666 47.4171 30.375 47.4171 31.2291C47.3963 40.1458 40.1463 47.3958 31.2504 47.3958Z" fill="black"/>
<path d="M4.16669 20.3125C3.31252 20.3125 2.60419 19.6041 2.60419 18.75C2.60419 9.85413 9.85419 2.60413 18.75 2.60413C19.3125 2.60413 19.8334 2.91663 20.1042 3.39579C20.3751 3.89579 20.3751 4.47912 20.0834 4.97912L17.8959 8.62496C17.4584 9.35413 16.5 9.60413 15.75 9.16663C15 8.72913 14.7708 7.77079 15.2083 7.02079L15.7709 6.08329C10.0209 7.43746 5.70833 12.6041 5.70833 18.7708C5.72917 19.6041 5.02085 20.3125 4.16669 20.3125Z" fill="black"/>
<path d="M38.5417 24.4791C32.5209 24.4791 27.6042 19.5833 27.6042 13.5416C27.6042 7.49996 32.5 2.60413 38.5417 2.60413C44.5834 2.60413 49.4792 7.49996 49.4792 13.5416C49.4792 19.5833 44.5625 24.4791 38.5417 24.4791ZM38.5417 5.72913C34.2292 5.72913 30.7292 9.22913 30.7292 13.5416C30.7292 17.8541 34.2292 21.3541 38.5417 21.3541C42.8542 21.3541 46.3542 17.8541 46.3542 13.5416C46.3542 9.22913 42.8542 5.72913 38.5417 5.72913Z" fill="black"/>
</svg>
