<svg width="46" height="42" viewBox="0 0 46 42" fill="none" xmlns="http://www.w3.org/2000/svg">
<path d="M2.16666 21C2.16666 12.1612 2.16666 7.74175 5.21764 4.99587C8.26861 2.25 13.1791 2.25 23 2.25C32.8209 2.25 37.7314 2.25 40.7824 4.99587C43.8333 7.74175 43.8333 12.1612 43.8333 21C43.8333 29.8388 43.8333 34.2583 40.7824 37.0041C37.7314 39.75 32.8209 39.75 23 39.75C13.1791 39.75 8.26861 39.75 5.21764 37.0041C2.16666 34.2583 2.16666 29.8388 2.16666 21Z" stroke="#141B34" stroke-width="3" stroke-linecap="round" stroke-linejoin="round"/>
<path d="M9.45834 13.7083L14.6667 13.7083M19.875 13.7083L14.6667 13.7083M25.0833 28.2916V13.7083L30.8125 22.0416L36.5417 13.7083V28.2916M14.6667 13.7083V28.2916" stroke="#141B34" stroke-width="3" stroke-linecap="round" stroke-linejoin="round"/>
</svg>
