<svg width="46" height="46" viewBox="0 0 46 46" fill="none" xmlns="http://www.w3.org/2000/svg">
<path d="M43.8333 23C43.8333 11.4941 34.5059 2.16671 23 2.16671C11.4941 2.16671 2.16666 11.4941 2.16666 23C2.16666 34.506 11.4941 43.8334 23 43.8334C34.5059 43.8334 43.8333 34.506 43.8333 23Z" stroke="#141B34" stroke-width="3"/>
<path d="M39.6667 9.87285C37.7193 10.0132 35.2251 10.7671 33.4956 13.0057C30.3718 17.0491 27.248 17.3865 25.1654 16.0387C22.0416 14.017 24.6667 10.7424 21.0003 8.96278C18.6107 7.80292 18.2775 4.64674 19.6075 2.16663" stroke="#141B34" stroke-width="3" stroke-linejoin="round"/>
<path d="M2.16666 20.9166C3.7552 22.296 5.98012 23.5587 8.60154 23.5587C14.0176 23.5587 15.1008 24.5935 15.1008 28.7329C15.1008 32.8722 15.1008 32.8722 16.184 35.9767C16.8886 37.9961 17.1348 40.0154 15.7304 41.75" stroke="#141B34" stroke-width="3" stroke-linejoin="round"/>
<path d="M43.8333 26.0258C41.9852 24.9606 39.6667 24.5225 37.3196 26.2094C32.8285 29.4372 29.732 26.7626 28.3373 29.4354C26.2844 33.3698 33.6161 34.6065 27.1667 43.8334" stroke="#141B34" stroke-width="3" stroke-linejoin="round"/>
</svg>
