<svg width="52" height="47" viewBox="0 0 52 47" fill="none" xmlns="http://www.w3.org/2000/svg">
<path d="M44.1972 7.7497L47.4859 7.75171C48.3189 7.75171 48.995 8.42777 48.994 9.26076L48.9809 36.8262M40.6761 7.74869L37.334 7.74668M3.00523 36.8051L3.00845 29.9486M6.76358 40.9408H4.01811C2.35111 40.9408 1 39.5887 1 37.9227C1 37.6441 1.11268 37.3926 1.29477 37.2115C1.38806 37.1179 1.49893 37.0437 1.62099 36.9931C1.74305 36.9425 1.87391 36.9166 2.00604 36.9167H28.669M28.669 40.9408H10.2847M45.7247 36.9163H49.994C50.5496 36.9163 51 37.3667 51 37.9223C51 39.5892 49.6488 40.9404 47.9819 40.9404H45.7504M28.6692 29.763H2.52032C1.68068 29.763 1 29.0823 1 28.2427V2.52032C1 1.68068 1.68068 1 2.52032 1H35.6628C36.5023 1 37.1828 1.68058 37.1828 2.52002V18.8399" stroke="#FBB81F" stroke-miterlimit="10" stroke-linecap="round" stroke-linejoin="round"/>
<path d="M11.501 3.91772H34.2656V18.8403M7.97985 3.91772H3.91748V26.8453H28.669" stroke="#FBB81F" stroke-miterlimit="10" stroke-linecap="round" stroke-linejoin="round"/>
<path d="M19.0913 21.9251C22.8164 21.9251 25.8361 18.9053 25.8361 15.1803C25.8361 11.4553 22.8164 8.43555 19.0913 8.43555C15.3663 8.43555 12.3466 11.4553 12.3466 15.1803C12.3466 18.9053 15.3663 21.9251 19.0913 21.9251Z" stroke="#FBB81F" stroke-miterlimit="10" stroke-linecap="round" stroke-linejoin="round"/>
<path d="M16.5021 15.1678L18.6212 17.5539L22.0831 13.1108M28.8602 35.474V43.8352C28.8602 44.9549 29.7676 45.8613 30.8863 45.8613H43.4749C44.5936 45.8613 45.5 44.9549 45.5 43.8352V21.0384C45.5 19.9187 44.5936 19.0122 43.4749 19.0122H30.8863C29.7676 19.0122 28.8602 19.9187 28.8602 21.0384V31.9529M35.8296 21.6388H38.531" stroke="#FBB81F" stroke-miterlimit="10" stroke-linecap="round" stroke-linejoin="round"/>
<path d="M37.1803 37.6935C40.0834 37.6935 42.4369 35.34 42.4369 32.4368C42.4369 29.5337 40.0834 27.1802 37.1803 27.1802C34.2771 27.1802 31.9236 29.5337 31.9236 32.4368C31.9236 35.34 34.2771 37.6935 37.1803 37.6935Z" stroke="#FBB81F" stroke-miterlimit="10" stroke-linecap="round" stroke-linejoin="round"/>
<path d="M35.3196 32.4363L36.8516 34.1614L39.3547 30.9492" stroke="#FBB81F" stroke-miterlimit="10" stroke-linecap="round" stroke-linejoin="round"/>
</svg>
