<svg width="50" height="55" viewBox="0 0 50 55" fill="none" xmlns="http://www.w3.org/2000/svg">
<path d="M25.0051 41.9247C17.9852 41.9247 12.4732 34.9686 10.321 28.5052C9.54233 26.1794 9.14832 23.8911 9.14832 21.7031C9.14832 21.0921 9.17555 20.5356 9.23342 20.0028C10.0504 11.5319 16.832 5.13745 25.0051 5.13745C33.1731 5.13745 39.9488 11.5319 40.7683 20.0113C40.8245 20.5356 40.8517 21.0921 40.8517 21.7031C40.8517 23.8902 40.4577 26.1794 39.6773 28.5069C37.5268 34.9686 32.0174 41.9247 25.0051 41.9247ZM25.0051 6.83946C17.7128 6.83946 11.6605 12.5727 10.9252 20.1747C10.8742 20.6624 10.8503 21.1449 10.8503 21.7031C10.8503 23.7064 11.2163 25.8135 11.9362 27.9665C13.9012 33.87 18.8294 40.2227 25.0051 40.2227C31.1749 40.2227 36.0988 33.87 38.0629 27.9682C38.7846 25.8135 39.1497 23.7064 39.1497 21.7031C39.1497 21.1457 39.1258 20.6624 39.0756 20.1841C38.3395 12.5727 32.2923 6.84031 25.0051 6.84031V6.83946Z" fill="#D02F44"/>
<path d="M10.1499 23.4461C10.0785 23.4461 10.0393 23.4444 10.0334 23.4444C9.92177 23.4381 9.81251 23.4098 9.71183 23.3613C9.61114 23.3128 9.52101 23.2449 9.44657 23.1615C9.37212 23.0781 9.31484 22.9809 9.27797 22.8754C9.2411 22.7699 9.22539 22.6581 9.23171 22.5466C9.23725 22.435 9.26484 22.3257 9.3129 22.2248C9.36096 22.124 9.42853 22.0337 9.5117 21.9592C9.59488 21.8846 9.692 21.8273 9.79746 21.7905C9.90292 21.7537 10.0146 21.7382 10.1261 21.7449C10.395 21.7543 16.1666 21.9321 17.2005 14.2075C17.2219 14.0471 17.2886 13.8962 17.3927 13.7723C17.4969 13.6485 17.6342 13.5569 17.7885 13.5083C17.9429 13.4597 18.1079 13.4561 18.2642 13.498C18.4205 13.5398 18.5617 13.6254 18.6711 13.7446C18.6838 13.7582 19.9654 15.1402 21.8589 16.3146C22.9006 16.9614 24.0835 17.3809 25.3761 17.5631C26.4382 17.7128 27.9802 18.123 29.6533 19.2012C29.8422 18.437 29.8116 17.2941 28.5104 16.318C28.3745 16.2158 28.2722 16.0753 28.2169 15.9145C28.1615 15.7537 28.1556 15.58 28.1998 15.4157C28.244 15.2515 28.3364 15.1043 28.465 14.993C28.5936 14.8817 28.7526 14.8115 28.9214 14.7913C29.2414 14.7547 36.7677 13.9505 40.7189 20.2888C40.7816 20.3837 40.8247 20.4901 40.8456 20.6019C40.8665 20.7136 40.8647 20.8285 40.8405 20.9396C40.8163 21.0506 40.77 21.1557 40.7045 21.2487C40.639 21.3416 40.5555 21.4204 40.459 21.4805C40.3625 21.5406 40.2549 21.5808 40.1426 21.5986C40.0303 21.6165 39.9156 21.6116 39.8052 21.5844C39.6948 21.5572 39.591 21.5081 39.4999 21.4401C39.4088 21.372 39.3322 21.2864 39.2748 21.1883C36.9771 17.5035 33.156 16.6491 30.9128 16.4823C31.8872 18.2064 31.3247 20.0523 30.7426 20.9645C30.6789 21.0643 30.5951 21.1497 30.4966 21.2152C30.3981 21.2807 30.287 21.325 30.1704 21.3452C30.0538 21.3654 29.9342 21.361 29.8194 21.3324C29.7046 21.3038 29.597 21.2515 29.5035 21.179C27.7887 19.8497 26.1846 19.3961 25.1379 19.2489C23.6112 19.0336 22.2053 18.5332 20.9611 17.7605C20.129 17.2408 19.3386 16.6573 18.597 16.0151C16.8933 23.1627 11.052 23.4461 10.1499 23.4461ZM19.3987 25.0672C18.9289 25.0672 18.4915 24.629 18.4915 24.1592C18.4915 23.6895 18.9289 23.2512 19.3987 23.2512C19.8684 23.2512 20.3076 23.6895 20.3076 24.1592C20.3076 24.629 19.8693 25.0672 19.3987 25.0672ZM30.6022 25.0672C30.1324 25.0672 29.6941 24.629 29.6941 24.1592C29.6941 23.6895 30.1324 23.2512 30.6022 23.2512C31.0719 23.2512 31.511 23.6895 31.511 24.1592C31.511 24.629 31.0728 25.0672 30.6022 25.0672Z" fill="#D02F44"/>
<path d="M6.18936 20.9441L6.14086 20.9433C5.91564 20.9305 5.7047 20.8289 5.55438 20.6607C5.40406 20.4925 5.32667 20.2715 5.33921 20.0463C5.99448 8.24284 14.079 0 25.0008 0C35.9235 0 44.0081 8.24369 44.6625 20.0463C44.675 20.2715 44.5976 20.4925 44.4473 20.6607C44.297 20.8289 44.0861 20.9305 43.8608 20.9433C43.3579 20.9603 42.9894 20.6097 42.9639 20.1408C42.3605 9.28447 34.9755 1.70201 25 1.70201C15.0262 1.70201 7.63948 9.28447 7.03696 20.1408C7.0248 20.3577 6.93014 20.5617 6.7724 20.7111C6.61465 20.8604 6.4066 20.9438 6.18936 20.9441Z" fill="#D02F44"/>
<path d="M11.1286 29.0875H5.84132C5.0162 29.0866 4.22515 28.7584 3.6417 28.175C3.05826 27.5915 2.73009 26.8005 2.72919 25.9753V22.3552C2.72986 21.5299 3.05794 20.7386 3.6414 20.155C4.22487 19.5714 5.01606 19.2431 5.84132 19.2422H10.0793C10.1986 19.2426 10.3164 19.268 10.4253 19.3168C10.5341 19.3656 10.6315 19.4367 10.7111 19.5255C10.7908 19.6143 10.8509 19.7188 10.8876 19.8323C10.9243 19.9457 10.9369 20.0656 10.9244 20.1843C10.8733 20.6625 10.8503 21.1459 10.8503 21.7033C10.8503 23.7066 11.2163 25.8137 11.9362 27.9667C11.979 28.0946 11.9907 28.2309 11.9705 28.3642C11.9502 28.4975 11.8986 28.6242 11.8198 28.7336C11.741 28.8431 11.6373 28.9323 11.5173 28.9938C11.3973 29.0553 11.2635 29.0874 11.1286 29.0875ZM5.84132 20.9442C5.46724 20.9449 5.10871 21.0939 4.84436 21.3586C4.58001 21.6232 4.43142 21.9819 4.4312 22.356V25.9762C4.4312 26.7676 5.04988 27.3863 5.84132 27.3863H9.9755C9.4266 25.446 9.14832 23.5398 9.14832 21.7041C9.14832 21.442 9.15258 21.1901 9.16364 20.945L5.84132 20.9442ZM44.1579 29.0875H38.8714C38.7365 29.0874 38.6036 29.0553 38.4836 28.9938C38.3636 28.9323 38.2599 28.8431 38.1811 28.7336C38.1023 28.6242 38.0507 28.4975 38.0304 28.3642C38.0102 28.2309 38.0219 28.0946 38.0647 27.9667C38.7855 25.8137 39.1505 23.7066 39.1505 21.7033C39.1505 21.1459 39.1267 20.6625 39.0765 20.1843C39.0637 20.0655 39.0761 19.9454 39.1128 19.8318C39.1494 19.7181 39.2096 19.6135 39.2894 19.5246C39.3692 19.4358 39.4668 19.3647 39.5758 19.316C39.6849 19.2674 39.803 19.2422 39.9224 19.2422H44.1587C44.984 19.2431 45.7753 19.5714 46.3589 20.155C46.9425 20.7386 47.2708 21.5298 47.2717 22.3552V25.9753C47.2706 26.8005 46.9422 27.5916 46.3586 28.175C45.775 28.7584 44.983 29.0866 44.1579 29.0875ZM40.0245 27.3855H44.1579C44.3436 27.3875 44.528 27.3524 44.7 27.2823C44.8721 27.2122 45.0284 27.1084 45.1598 26.9771C45.2912 26.8457 45.3951 26.6895 45.4653 26.5175C45.5356 26.3454 45.5708 26.1611 45.5688 25.9753V22.3552C45.5684 21.9811 45.4196 21.6225 45.1551 21.358C44.8905 21.0934 44.5319 20.9446 44.1579 20.9442H40.8372C40.8483 21.1893 40.8525 21.4412 40.8525 21.7033C40.8525 23.5389 40.5734 25.4452 40.0245 27.3855ZM21.5177 34.6513H21.4811C14.879 34.3756 11.7388 31.6107 11.6077 31.4924C11.4438 31.3406 11.3462 31.1304 11.3359 30.9072C11.3256 30.684 11.4035 30.4658 11.5528 30.2995C11.7021 30.1333 11.9107 30.0324 12.1337 30.0187C12.3567 30.0049 12.5761 30.0795 12.7447 30.2261C12.7728 30.2508 15.6109 32.7025 21.5526 32.9502C21.7783 32.9548 21.9929 33.0489 22.1492 33.2118C22.3056 33.3746 22.3908 33.5929 22.3861 33.8186C22.3815 34.0443 22.2874 34.259 22.1246 34.4153C21.9617 34.5716 21.7434 34.6568 21.5177 34.6522V34.6513Z" fill="#D02F44"/>
<path d="M24.7047 36.8527C22.4402 36.8527 20.6658 35.4996 20.6658 33.7738C20.6658 32.0479 22.4402 30.6948 24.7047 30.6948C26.9692 30.6948 28.7436 32.0479 28.7436 33.7738C28.7436 35.4996 26.9692 36.8527 24.7047 36.8527ZM24.7047 32.3968C23.3278 32.3968 22.3678 33.1227 22.3678 33.7738C22.3678 34.4248 23.3278 35.1507 24.7047 35.1507C26.0816 35.1507 27.0416 34.4248 27.0416 33.7738C27.0416 33.1227 26.0816 32.3968 24.7047 32.3968ZM49.149 54.4643C48.9233 54.4643 48.7068 54.3746 48.5472 54.215C48.3876 54.0554 48.298 53.839 48.298 53.6133V50.9071C48.298 45.9542 44.2693 41.9247 39.3165 41.9247H10.6835C5.73067 41.9247 1.70201 45.9542 1.70201 50.9071V53.6133C1.70201 53.839 1.61235 54.0554 1.45276 54.215C1.29316 54.3746 1.07671 54.4643 0.851006 54.4643C0.625305 54.4643 0.408848 54.3746 0.249254 54.215C0.0896591 54.0554 0 53.839 0 53.6133V50.9071C0 45.0156 4.79201 40.2227 10.6835 40.2227H39.3165C45.208 40.2227 50 45.0156 50 50.9071V53.6133C50 53.839 49.9103 54.0554 49.7507 54.215C49.5912 54.3746 49.3747 54.4643 49.149 54.4643Z" fill="#D02F44"/>
<path d="M10.6546 53.8031C10.4289 53.8031 10.2124 53.7135 10.0528 53.5539C9.89325 53.3943 9.80359 53.1778 9.80359 52.9521V48.9694C9.80359 48.7437 9.89325 48.5273 10.0528 48.3677C10.2124 48.2081 10.4289 48.1184 10.6546 48.1184C10.8803 48.1184 11.0968 48.2081 11.2563 48.3677C11.4159 48.5273 11.5056 48.7437 11.5056 48.9694V52.9521C11.5056 53.1778 11.4159 53.3943 11.2563 53.5539C11.0968 53.7135 10.8803 53.8031 10.6546 53.8031ZM39.3454 53.8031C39.1197 53.8031 38.9033 53.7135 38.7437 53.5539C38.5841 53.3943 38.4944 53.1778 38.4944 52.9521V48.9694C38.4944 48.7437 38.5841 48.5273 38.7437 48.3677C38.9033 48.2081 39.1197 48.1184 39.3454 48.1184C39.5711 48.1184 39.7876 48.2081 39.9472 48.3677C40.1068 48.5273 40.1964 48.7437 40.1964 48.9694V52.9521C40.1964 53.1778 40.1068 53.3943 39.9472 53.5539C39.7876 53.7135 39.5711 53.8031 39.3454 53.8031Z" fill="#D02F44"/>
</svg>
