<svg width="50" height="52" viewBox="0 0 50 52" fill="none" xmlns="http://www.w3.org/2000/svg">
<path d="M26.6114 22.5808C28.3658 22.5808 30.0809 22.0605 31.5396 21.0858C32.9983 20.1111 34.1353 18.7258 34.8067 17.1049C35.4781 15.484 35.6537 13.7005 35.3115 11.9798C34.9692 10.2591 34.1244 8.67851 32.8838 7.43795C31.6432 6.19739 30.0627 5.35256 28.342 5.01029C26.6213 4.66802 24.8377 4.84369 23.2169 5.51507C21.596 6.18646 20.2106 7.32341 19.2359 8.78215C18.2612 10.2409 17.741 11.9559 17.741 13.7103C17.7437 16.0621 18.6792 18.3167 20.3421 19.9796C22.0051 21.6426 24.2597 22.578 26.6114 22.5808ZM23.3858 11.2911C23.3885 10.5781 23.6273 9.88601 24.065 9.32312C24.5028 8.76023 25.1146 8.35824 25.805 8.17998V7.25907C25.805 7.04519 25.89 6.84008 26.0412 6.68885C26.1925 6.53762 26.3976 6.45266 26.6114 6.45266C26.8253 6.45266 27.0304 6.53762 27.1817 6.68885C27.3329 6.84008 27.4178 7.04519 27.4178 7.25907V8.17998C28.1082 8.35824 28.7201 8.76023 29.1578 9.32312C29.5955 9.88601 29.8344 10.5781 29.8371 11.2911C29.8371 11.505 29.7521 11.7101 29.6009 11.8613C29.4496 12.0125 29.2445 12.0975 29.0307 12.0975C28.8168 12.0975 28.6117 12.0125 28.4604 11.8613C28.3092 11.7101 28.2242 11.505 28.2242 11.2911C28.2234 11.0093 28.1484 10.7326 28.0069 10.4889C27.8654 10.2451 27.6622 10.0429 27.4178 9.90247V13.0184C28.1094 13.1944 28.7226 13.5959 29.1606 14.1593C29.5985 14.7227 29.8363 15.4159 29.8363 16.1295C29.8363 16.8431 29.5985 17.5364 29.1606 18.0998C28.7226 18.6632 28.1094 19.0646 27.4178 19.2407V20.1616C27.4178 20.3754 27.3329 20.5806 27.1817 20.7318C27.0304 20.883 26.8253 20.968 26.6114 20.968C26.3976 20.968 26.1925 20.883 26.0412 20.7318C25.89 20.5806 25.805 20.3754 25.805 20.1616V19.2407C25.1146 19.0624 24.5028 18.6604 24.065 18.0975C23.6273 17.5346 23.3885 16.8426 23.3858 16.1295C23.3858 15.9157 23.4708 15.7106 23.622 15.5593C23.7732 15.4081 23.9783 15.3231 24.1922 15.3231C24.4061 15.3231 24.6112 15.4081 24.7624 15.5593C24.9137 15.7106 24.9986 15.9157 24.9986 16.1295C24.9995 16.4114 25.0744 16.6881 25.216 16.9318C25.3575 17.1755 25.5607 17.3777 25.805 17.5182V14.4022C25.1146 14.224 24.5028 13.822 24.065 13.2591C23.6273 12.6962 23.3885 12.0041 23.3858 11.2911Z" fill="#1A9F0B"/>
<path d="M28.2243 16.1296C28.2234 15.8478 28.1484 15.5711 28.0069 15.3274C27.8654 15.0836 27.6622 14.8814 27.4178 14.741V17.5182C27.6622 17.3778 27.8654 17.1756 28.0069 16.9318C28.1484 16.6881 28.2234 16.4114 28.2243 16.1296Z" fill="#1A9F0B"/>
<path d="M23.789 27.1241V29.8385H21.773C21.6135 29.8385 21.4576 29.8858 21.325 29.9744C21.1925 30.0631 21.0891 30.189 21.0281 30.3363C20.9671 30.4837 20.9511 30.6458 20.9822 30.8022C21.0133 30.9586 21.0901 31.1022 21.2028 31.215L26.0413 36.0535C26.1925 36.2046 26.3976 36.2896 26.6114 36.2896C26.8252 36.2896 27.0303 36.2046 27.1815 36.0535L32.02 31.215C32.1327 31.1022 32.2095 30.9586 32.2406 30.8022C32.2717 30.6458 32.2557 30.4837 32.1947 30.3363C32.1337 30.189 32.0304 30.0631 31.8978 29.9744C31.7652 29.8858 31.6093 29.8385 31.4498 29.8385H29.4338V27.1241C32.7514 26.4261 35.6926 24.5237 37.6896 21.784C39.6866 19.0444 40.5976 15.6621 40.2467 12.2901C39.8958 8.91811 38.308 5.79574 35.7897 3.52596C33.2715 1.25618 30.0016 0 26.6114 0C23.2212 0 19.9513 1.25618 17.4331 3.52596C14.9149 5.79574 13.327 8.91811 12.9761 12.2901C12.6252 15.6621 13.5363 19.0444 15.5332 21.784C17.5302 24.5237 20.4714 26.4261 23.789 27.1241ZM26.6114 3.22708C28.6848 3.22708 30.7116 3.84191 32.4356 4.99383C34.1596 6.14575 35.5032 7.78301 36.2967 9.69858C37.0902 11.6142 37.2978 13.722 36.8933 15.7556C36.4888 17.7891 35.4903 19.6571 34.0242 21.1232C32.5581 22.5893 30.6902 23.5877 28.6566 23.9922C26.623 24.3967 24.5152 24.1891 22.5996 23.3957C20.6841 22.6022 19.0468 21.2585 17.8949 19.5346C16.743 17.8106 16.1281 15.7838 16.1281 13.7104C16.1313 10.931 17.2368 8.2664 19.2021 6.3011C21.1674 4.3358 23.832 3.23028 26.6114 3.22708Z" fill="#1A9F0B"/>
<path d="M25.805 9.90259C25.5601 10.0424 25.3566 10.2445 25.215 10.4884C25.0735 10.7323 24.9989 11.0092 24.9989 11.2912C24.9989 11.5732 25.0735 11.8502 25.215 12.094C25.3566 12.3379 25.5601 12.54 25.805 12.6799V9.90259Z" fill="#1A9F0B"/>
<path d="M10.4833 36.2898H0.806406C0.36104 36.2898 0 36.6508 0 37.0962V50.8051C0 51.2505 0.36104 51.6115 0.806406 51.6115H10.4833C10.9286 51.6115 11.2897 51.2505 11.2897 50.8051V37.0962C11.2897 36.6508 10.9286 36.2898 10.4833 36.2898Z" fill="#1A9F0B"/>
<path d="M37.3027 38.076C37.748 38.4506 38.1063 38.9177 38.3528 39.4448C38.5993 39.9719 38.728 40.5464 38.7301 41.1283C38.7301 41.2557 38.7244 41.3823 38.7131 41.5073L43.7935 36.1648C43.7328 35.7765 43.5645 35.413 43.3077 35.1154C43.051 34.8179 42.716 34.5982 42.3408 34.4813C41.9656 34.3643 41.5651 34.3548 41.1848 34.4539C40.8044 34.5529 40.4594 34.7565 40.1889 35.0415L37.3027 38.076Z" fill="#1A9F0B"/>
<path d="M46.3063 35.8664L38.6551 43.9079C38.2785 44.3036 37.8254 44.6187 37.3233 44.8339C36.8212 45.0492 36.2806 45.1602 35.7343 45.1602H25.8276C25.6137 45.1602 25.4086 45.0753 25.2574 44.924C25.1062 44.7728 25.0212 44.5677 25.0212 44.3538C25.0212 44.1399 25.1062 43.9348 25.2574 43.7836C25.4086 43.6324 25.6137 43.5474 25.8276 43.5474H34.6981C35.3397 43.5474 35.955 43.2925 36.4087 42.8388C36.8624 42.3851 37.1173 41.7698 37.1173 41.1282C37.1173 40.4866 36.8624 39.8712 36.4087 39.4175C35.955 38.9638 35.3397 38.709 34.6981 38.709H25.2631L25.0599 38.5735C23.6084 37.628 21.9134 37.1247 20.1811 37.1247C18.4489 37.1247 16.7539 37.628 15.3024 38.5735L15.1008 38.709H12.9025V49.1922H15.0798C16.7437 50.2476 18.6737 50.807 20.644 50.8051H37.0488C38.1964 50.805 39.3277 50.5328 40.3497 50.0108C41.3718 49.4887 42.2555 48.7318 42.9283 47.802L49.594 38.5961C49.9121 38.1563 50.0512 37.6121 49.9832 37.0737C49.9152 36.5353 49.6451 36.0428 49.2278 35.6959C48.8104 35.349 48.2768 35.1737 47.735 35.2053C47.1932 35.237 46.6837 35.4733 46.3095 35.8664H46.3063Z" fill="#1A9F0B"/>
</svg>
