<svg width="50" height="51" viewBox="0 0 50 51" fill="none" xmlns="http://www.w3.org/2000/svg">
<path d="M28.9879 23.2998C30.5179 23.2998 31.9918 23.0116 33.3824 22.4435C34.6869 24.6618 37.0977 26.1549 39.8521 26.1549C43.9867 26.1549 47.3505 22.7898 47.3505 18.6536C47.3505 14.7813 44.4002 11.5855 40.6295 11.1953C40.389 4.9814 35.2597 0 28.9879 0C22.5649 0 17.3393 5.22671 17.3393 11.6513C17.3393 18.0759 22.5649 23.2998 28.9879 23.2998ZM45.4395 18.6536C45.4395 21.736 42.933 24.2439 39.8521 24.2439C36.7712 24.2439 34.2616 21.736 34.2616 18.6536C34.2616 15.5711 36.7695 13.066 39.8521 13.066C42.9347 13.066 45.4395 15.5726 45.4395 18.6536ZM28.9879 1.91108C34.2211 1.91108 38.5029 6.05964 38.7189 11.2406C35.1183 11.7882 32.3505 14.9037 32.3505 18.6536C32.3505 19.3579 32.4503 20.039 32.6326 20.6858C31.4794 21.1525 30.257 21.3888 28.9878 21.3888C23.6185 21.3888 19.2503 17.0206 19.2503 11.6514C19.2503 6.28221 23.6185 1.91108 28.9879 1.91108ZM30.9844 13.9788C30.9844 13.1623 30.619 12.9286 28.812 12.5892C27.3272 12.3104 25.0832 11.889 25.0832 9.32396C25.0832 7.79081 26.3397 6.50016 28.0324 6.14084V5.20246C28.0324 4.67481 28.4603 4.24697 28.9879 4.24697C29.5156 4.24697 29.9434 4.67481 29.9434 5.20246V6.14064C31.6375 6.49975 32.8954 7.79061 32.8954 9.32386C32.8954 9.85151 32.4676 10.2793 31.9399 10.2793C31.4123 10.2793 30.9844 9.85151 30.9844 9.32386C30.9844 8.58018 30.0702 7.9519 28.9879 7.9519C27.9056 7.9519 26.9942 8.58018 26.9942 9.32386C26.9942 10.1387 27.3594 10.3719 29.1648 10.711C30.6504 10.9899 32.8954 11.4115 32.8954 13.9787C32.8954 15.5121 31.6375 16.8028 29.9434 17.162V18.1001C29.9434 18.6278 29.5156 19.0556 28.9879 19.0556C28.4603 19.0556 28.0324 18.6278 28.0324 18.1001V17.1618C26.3398 16.8024 25.0832 15.5117 25.0832 13.9786C25.0832 13.451 25.511 13.0232 26.0386 13.0232C26.5663 13.0232 26.9941 13.451 26.9941 13.9786C26.9941 14.7223 27.9072 15.3506 28.9878 15.3506C30.0685 15.3506 30.9843 14.7223 30.9843 13.9786L30.9844 13.9788ZM39.8521 14.0073C40.3797 14.0073 40.8076 14.4352 40.8076 14.9628V20.0376L42.0572 18.788C42.2374 18.6141 42.4788 18.518 42.7292 18.5202C42.9797 18.5225 43.2193 18.623 43.3964 18.8001C43.5735 18.9772 43.674 19.2168 43.6762 19.4672C43.6785 19.7177 43.5824 19.959 43.4085 20.1393L40.5277 23.0201C40.3412 23.2066 40.0967 23.2999 39.8521 23.2999C39.6075 23.2999 39.3631 23.2066 39.1764 23.0201L36.2957 20.1393C36.1218 19.959 36.0256 19.7177 36.0279 19.4672C36.0302 19.2168 36.1307 18.9772 36.3078 18.8001C36.4849 18.623 36.7244 18.5225 36.9749 18.5202C37.2254 18.518 37.4667 18.6141 37.647 18.788L38.8966 20.0376V14.9628C38.8966 14.4352 39.3244 14.0073 39.8521 14.0073ZM49.4841 30.3943C48.973 29.5099 48.145 28.8766 47.1528 28.6113C46.1608 28.3461 45.1272 28.4815 44.2425 28.9929L44.0707 29.0922C43.9078 28.8157 43.7109 28.5608 43.4845 28.3335C42.0355 26.8879 39.7084 26.8435 38.2044 28.1986C36.7039 26.7563 34.3084 26.7736 32.8298 28.2519L30.4381 30.6461L20.6848 28.0389C19.6662 27.713 18.4223 27.8437 17.5085 28.3738L10.7201 32.2992L10.1767 31.3596C9.52186 30.2311 7.93639 29.9201 6.64251 30.6662L1.44991 33.669C0.770324 34.0596 0.272054 34.6868 0.082687 35.3896C-0.0758902 35.9786 -0.0049531 36.5779 0.283223 37.078L7.24181 49.1044C7.65344 49.8185 8.43808 50.206 9.28791 50.206C9.78286 50.206 10.3001 50.0745 10.7783 49.7995C11.6849 49.2753 12.5914 48.7508 13.4978 48.2261L15.9673 46.7974C16.649 46.4055 17.1482 45.7768 17.3367 45.0724C17.4944 44.4834 17.4222 43.885 17.1339 43.3884L16.6694 42.5853L17.0795 42.3491C17.4871 42.1128 17.6061 42.1029 18.316 42.2596L28.9792 45.1097C29.3722 45.2144 29.7772 45.2676 30.184 45.2679C30.9973 45.2679 31.8004 45.0534 32.5236 44.6342L48.0865 35.6375C48.9707 35.1246 49.6034 34.2958 49.868 33.3038C50.1329 32.3109 49.9962 31.2769 49.484 30.3939L49.4841 30.3943ZM42.1341 29.6856C42.2428 29.7947 42.3379 29.9164 42.4173 30.0483L34.4511 34.6545L38.7574 30.3417C38.7733 30.3269 38.7885 30.3116 38.8032 30.2958L39.4095 29.6885C40.1605 28.9373 41.3829 28.9362 42.134 29.6856H42.1341ZM34.1815 29.6029C34.9138 28.8704 36.0941 28.8536 36.8489 29.5485L33.6246 32.7776C33.3559 32.2082 32.9384 31.7218 32.4162 31.3699L34.1816 29.6028L34.1815 29.6029ZM15.4909 44.5785C15.4337 44.7923 15.2558 45.0025 15.0129 45.1422L12.5408 46.5726C11.6347 47.0969 10.7287 47.6213 9.82402 48.1444C9.40393 48.3858 8.98827 48.3079 8.8968 48.1491L1.93812 36.1226C1.89656 36.0506 1.90965 35.9547 1.92786 35.8868C1.98531 35.6733 2.1627 35.4636 2.40429 35.3248L3.72735 34.5597L6.98965 40.2108L7.48027 41.0435C7.54393 41.1517 7.62828 41.2462 7.72849 41.3218C7.8287 41.3973 7.94282 41.4523 8.06431 41.4837C8.18581 41.5152 8.3123 41.5223 8.43657 41.5048C8.56083 41.4874 8.68043 41.4455 8.78854 41.3818C9.24324 41.114 9.39457 40.5283 9.12672 40.0736L8.64032 39.2481L5.38154 33.6031L7.598 32.3214C8.01567 32.0809 8.43174 32.1605 8.523 32.3179L9.54389 34.0828L9.54409 34.0832L9.54429 34.0835L14.5306 42.7047C14.5321 42.7073 14.5331 42.71 14.5347 42.7126C14.5364 42.7154 14.5383 42.7178 14.5399 42.7207L15.4804 44.3468C15.5212 44.4173 15.5085 44.5117 15.4907 44.5785H15.4909ZM48.0217 32.8118C47.8886 33.3112 47.571 33.7278 47.129 33.9841L31.5662 42.9808C30.9261 43.352 30.1814 43.452 29.4715 43.2636L18.79 40.4086C18.7768 40.4051 18.7635 40.4018 18.7501 40.3989C17.8545 40.2001 17.1415 40.1051 16.1237 40.6947L15.7128 40.9314L11.677 33.9537L18.4665 30.0275C18.9172 29.766 19.6104 29.6968 20.1152 29.8631C20.1324 29.8689 20.15 29.874 20.1676 29.8787L30.8804 32.7423C31.719 32.9668 32.2194 33.8302 31.9958 34.6661C31.7785 35.4748 30.9689 35.9407 30.1425 35.7405L30.1362 35.7385L22.053 33.6051C21.5423 33.4707 21.0199 33.7749 20.8853 34.2851C20.7506 34.7953 21.0551 35.3181 21.5653 35.4528L29.587 37.57C29.598 37.5733 29.6084 37.5775 29.6197 37.5805L29.6354 37.5846L30.9026 37.917C31.9146 38.1848 32.51 37.9849 33.7848 37.2472L44.0354 31.3202C44.0585 31.3082 44.0807 31.2952 44.1026 31.2815L45.1992 30.6474C45.6417 30.3915 46.1601 30.3241 46.6595 30.4575C47.1585 30.5909 47.5742 30.9082 47.8307 31.3519C48.0873 31.7942 48.1552 32.3126 48.022 32.8118H48.0217Z" fill="#1D3458"/>
</svg>
