<svg width="44" height="50" viewBox="0 0 44 50" fill="none" xmlns="http://www.w3.org/2000/svg">
<path d="M21.875 50C21.6516 50 21.4281 49.9531 21.2203 49.8563L16.5406 47.6969C6.49375 43.0594 1.28284e-07 32.9109 1.28284e-07 21.8438V6.25C-0.000155367 5.86606 0.141053 5.49551 0.396681 5.20904C0.652309 4.92258 1.00446 4.74026 1.38594 4.69688C4.48204 4.34272 7.55795 3.83007 10.6016 3.16094C14.2449 2.35804 17.8355 1.33215 21.3531 0.0890625C21.6906 -0.0296875 22.0594 -0.0296875 22.3953 0.0890625C25.9134 1.3322 29.5046 2.35809 33.1484 3.16094C36.1766 3.82812 39.2781 4.34531 42.3641 4.69688C42.7455 4.74026 43.0977 4.92258 43.3533 5.20904C43.6089 5.49551 43.7502 5.86606 43.75 6.25V21.8453C43.75 32.9125 37.2578 43.0594 27.2094 47.6969L22.5297 49.8563C22.3244 49.9508 22.101 49.9998 21.875 50ZM3.125 7.63438V21.8453C3.1341 26.6852 4.52458 31.4218 7.13302 35.4986C9.74146 39.5754 13.4594 42.8229 17.85 44.8594L21.875 46.7141L25.9 44.8563C30.2901 42.82 34.0077 39.573 36.6161 35.4968C39.2245 31.4206 40.6153 26.6846 40.625 21.8453V7.63438C34.2406 6.8066 27.9578 5.327 21.875 3.21875C15.7921 5.32653 9.50934 6.80717 3.125 7.63438Z" fill="#EB5C26"/>
<path d="M28.125 35.9375H15.625C13.9016 35.9375 12.5 34.5359 12.5 32.8125V21.875C12.5 20.1516 13.9016 18.75 15.625 18.75H28.125C29.8484 18.75 31.25 20.1516 31.25 21.875V32.8125C31.25 34.5359 29.8484 35.9375 28.125 35.9375ZM15.625 21.875V32.8125H28.1281L28.125 21.875H15.625Z" fill="#EB5C26"/>
<path d="M26.5625 21.875H17.1875C16.7731 21.875 16.3757 21.7104 16.0826 21.4174C15.7896 21.1243 15.625 20.7269 15.625 20.3125V17.1875C15.625 13.7406 18.4281 10.9375 21.875 10.9375C25.3219 10.9375 28.125 13.7406 28.125 17.1875V20.3125C28.125 20.7269 27.9604 21.1243 27.6674 21.4174C27.3743 21.7104 26.9769 21.875 26.5625 21.875ZM18.75 18.75H25V17.1875C25 15.4641 23.5984 14.0625 21.875 14.0625C20.1516 14.0625 18.75 15.4641 18.75 17.1875V18.75Z" fill="#EB5C26"/>
</svg>
