<svg width="50" height="47" viewBox="0 0 50 47" fill="none" xmlns="http://www.w3.org/2000/svg">
<path d="M22.1927 34.9417C21.1357 34.9417 20.2763 34.0839 20.2763 33.0269C20.2763 31.9699 21.1357 31.1113 22.1927 31.1113C23.2497 31.1113 24.1091 31.9699 24.1091 33.0269C24.1091 34.0839 23.2497 34.9417 22.1927 34.9417ZM22.1927 32.7246C22.1124 32.7246 22.0354 32.7564 21.9786 32.8131C21.9218 32.8697 21.8898 32.9466 21.8896 33.0269C21.8896 33.3605 22.4958 33.3605 22.4958 33.0269C22.4956 32.9466 22.4636 32.8697 22.4067 32.8131C22.3499 32.7564 22.2729 32.7246 22.1927 32.7246ZM29.3957 34.9417C28.3395 34.9417 27.4809 34.0839 27.4809 33.0269C27.4809 31.9699 28.3395 31.1113 29.3965 31.1113C30.4535 31.1113 31.3113 31.9699 31.3113 33.0269C31.3113 34.0839 30.4519 34.9417 29.3957 34.9417ZM29.3957 32.7246C29.3155 32.7246 29.2386 32.7564 29.1819 32.8131C29.1252 32.8698 29.0934 32.9467 29.0934 33.0269C29.0934 33.3605 29.6988 33.3605 29.6988 33.0269C29.6988 32.9467 29.667 32.8698 29.6103 32.8131C29.5536 32.7564 29.4759 32.7246 29.3957 32.7246ZM35.4292 16.549C35.2546 16.32 35.0293 16.1345 34.7709 16.0072C34.5125 15.8799 34.2282 15.8143 33.9402 15.8154H15.6154L15.1389 14.0303C15.0207 13.589 14.7604 13.199 14.3981 12.9207C14.0358 12.6425 13.5918 12.4915 13.135 12.4912H11.9327C11.7188 12.4912 11.5138 12.5762 11.3626 12.7274C11.2114 12.8786 11.1264 13.0836 11.1264 13.2975C11.1264 13.5113 11.2114 13.7164 11.3626 13.8676C11.5138 14.0188 11.7188 14.1037 11.9327 14.1037H13.135C13.3436 14.1037 13.5256 14.2443 13.5803 14.4467L17.4326 28.8496C17.5705 29.3634 17.874 29.8174 18.2959 30.1414C18.7179 30.4654 19.2349 30.6412 19.7669 30.6418H32.6964C32.9104 30.6418 33.1155 30.5568 33.2668 30.4055C33.4181 30.2542 33.5031 30.0491 33.5031 29.8351C33.5031 29.6212 33.4181 29.416 33.2668 29.2648C33.1155 29.1135 32.9104 29.0285 32.6964 29.0285H19.7669C19.4036 29.0285 19.0841 28.7832 18.9904 28.4332L18.6966 27.334H30.8355C31.5472 27.3331 32.2387 27.0978 32.8032 26.6644C33.3676 26.231 33.7735 25.6237 33.9581 24.9364L35.755 18.1763C35.8298 17.8983 35.8394 17.6068 35.7828 17.3245C35.7263 17.0422 35.6053 16.7768 35.4292 16.549ZM34.1503 17.5318C34.18 17.5709 34.2253 17.6513 34.1956 17.7623L33.3964 20.7685H30.5637L31.0129 17.4287H33.9402C34.0542 17.4287 34.1199 17.4927 34.1503 17.5318ZM28.9371 20.7685H25.9731V17.4287H29.3871L28.9371 20.7685ZM24.3606 17.4287V20.7685H21.3997L20.9466 17.4287H24.3606ZM19.3193 17.4287L19.7716 20.7685H16.9443L16.0498 17.4287H19.3193ZM19.9904 22.3817L20.4427 25.7207H18.2708L17.3763 22.3817H19.9904ZM21.6185 22.3817H24.3606V25.7207H22.07L21.6185 22.3817ZM25.9731 25.7207V22.3817H28.7199L28.2699 25.7207H25.9731ZM30.8355 25.7207H29.898L30.3473 22.3817H32.9683L32.3996 24.5208C32.3073 24.8648 32.1042 25.1687 31.8218 25.3857C31.5393 25.6026 31.1932 25.7204 30.8371 25.7207H30.8355ZM13.6592 3.70386C13.6592 3.5035 13.5796 3.31134 13.4379 3.16967C13.2962 3.02799 13.1041 2.9484 12.9037 2.9484H4.60697C4.40661 2.9484 4.21446 3.02799 4.07278 3.16967C3.9311 3.31134 3.85151 3.5035 3.85151 3.70386C3.85151 3.90422 3.9311 4.09637 4.07278 4.23805C4.21446 4.37972 4.40661 4.45932 4.60697 4.45932H12.9037C13.1041 4.45932 13.2962 4.37972 13.4379 4.23805C13.5796 4.09637 13.6592 3.90422 13.6592 3.70386ZM36.4433 3.70386C36.4433 3.91768 36.3583 4.12276 36.2071 4.27395C36.0559 4.42515 35.8509 4.5101 35.637 4.5101C35.4232 4.5101 35.2181 4.42515 35.0669 4.27395C34.9157 4.12276 34.8308 3.91768 34.8308 3.70386C34.8308 3.49003 34.9157 3.28496 35.0669 3.13376C35.2181 2.98256 35.4232 2.89762 35.637 2.89762C35.8509 2.89762 36.0559 2.98256 36.2071 3.13376C36.3583 3.28496 36.4433 3.49003 36.4433 3.70386ZM38.9643 2.89762C38.7504 2.89762 38.5452 2.9826 38.394 3.13387C38.2427 3.28515 38.1577 3.49032 38.1577 3.70425C38.1577 3.91818 38.2427 4.12335 38.394 4.27462C38.5452 4.42589 38.7504 4.51088 38.9643 4.51088C39.1783 4.51088 39.3834 4.42589 39.5347 4.27462C39.686 4.12335 39.771 3.91818 39.771 3.70425C39.771 3.49032 39.686 3.28515 39.5347 3.13387C39.3834 2.9826 39.1783 2.89762 38.9643 2.89762ZM42.2916 2.89762C42.0777 2.89762 41.8725 2.9826 41.7212 3.13387C41.57 3.28515 41.485 3.49032 41.485 3.70425C41.485 3.91818 41.57 4.12335 41.7212 4.27462C41.8725 4.42589 42.0777 4.51088 42.2916 4.51088C42.5056 4.51088 42.7107 4.42589 42.862 4.27462C43.0133 4.12335 43.0983 3.91818 43.0983 3.70425C43.0983 3.49032 43.0133 3.28515 42.862 3.13387C42.7107 2.9826 42.5056 2.89762 42.2916 2.89762ZM49.4087 38.1393L46.9353 36.0542C46.9369 36.005 46.9447 35.9558 46.9447 35.9058V4.39838C46.9447 1.97654 44.9681 0 42.5463 0H4.39838C1.97654 0 0 1.97654 0 4.39838V35.9058C0 38.3276 1.97654 40.3041 4.39838 40.3041H38.2557L38.2565 43.3252C38.2565 43.976 38.6221 44.551 39.2112 44.8267C39.7956 45.0986 40.4745 45.0142 40.9737 44.6002L42.4846 43.3439L43.3252 45.151C43.5854 45.715 44.0518 46.1431 44.6346 46.3556C44.9214 46.4605 45.226 46.5078 45.5312 46.4948C45.8363 46.4818 46.1358 46.4088 46.4127 46.2798C46.6898 46.1518 46.9388 45.97 47.1453 45.7452C47.3518 45.5203 47.5117 45.2567 47.6158 44.9697C47.7214 44.6833 47.769 44.3787 47.7559 44.0738C47.7427 43.7688 47.6691 43.4694 47.5392 43.1932L46.6994 41.3846L48.6322 41.0393C48.9429 40.9851 49.2316 40.8428 49.4637 40.6292C49.6959 40.4156 49.8617 40.1398 49.9415 39.8346C50.0249 39.5307 50.019 39.2092 49.9245 38.9086C49.83 38.608 49.651 38.3409 49.4087 38.1393ZM1.60935 4.39838C1.60935 2.86715 2.85934 1.61717 4.39838 1.61717H42.5463C44.0854 1.61717 45.3353 2.86715 45.3353 4.39838V5.78898H1.60935V4.39838ZM38.2534 32.2972L38.255 38.6878H4.39838C3.66003 38.6878 2.95182 38.395 2.429 37.8736C1.90618 37.3523 1.61142 36.6449 1.60935 35.9065V7.40693H45.3353V34.7058L40.9768 31.0308C40.7363 30.826 40.4417 30.6949 40.1286 30.6533C39.8154 30.6118 39.4968 30.6615 39.2112 30.7965C38.9239 30.9277 38.6806 31.1391 38.5106 31.4054C38.3407 31.6716 38.2514 31.9814 38.2534 32.2972ZM48.347 39.4518L45.3845 39.9807C45.263 40.0024 45.148 40.0518 45.0485 40.125C44.949 40.1982 44.8676 40.2932 44.8107 40.4028C44.7538 40.5125 44.7228 40.6337 44.7202 40.7572C44.7175 40.8807 44.7433 41.0031 44.7955 41.1151L46.0767 43.8752C46.1164 43.9593 46.1389 44.0505 46.1431 44.1435C46.1473 44.2364 46.1329 44.3292 46.1009 44.4166C46.0359 44.5934 45.9041 44.7376 45.7338 44.8181C45.649 44.8576 45.5572 44.8798 45.4638 44.8837C45.3703 44.8876 45.277 44.873 45.1892 44.8408C45.1009 44.8094 45.0198 44.7605 44.9507 44.6972C44.8816 44.6339 44.8259 44.5573 44.7869 44.4721L43.5057 41.7151C43.4406 41.576 43.3373 41.4583 43.2078 41.3759C43.0783 41.2934 42.928 41.2495 42.7744 41.2494C42.5885 41.2494 42.4057 41.3135 42.2588 41.4354L39.8698 43.3252L39.937 32.2628L48.3689 39.3721L48.347 39.4518Z" fill="#EB5C26"/>
</svg>
