<svg width="50" height="49" viewBox="0 0 50 49" fill="none" xmlns="http://www.w3.org/2000/svg">
<path d="M49.2188 41.4062H48.0047C48.2861 40.9334 48.436 40.394 48.4391 39.8438V25.7812C48.438 24.9528 48.1085 24.1585 47.5226 23.5727C46.9368 22.9869 46.1425 22.6573 45.3141 22.6562H27.3453C26.9336 22.6562 26.5259 22.738 26.1461 22.8969C25.5154 22.7438 24.8693 22.663 24.2203 22.6562H21.4859V22.0562C22.2875 21.4857 22.9676 20.7614 23.4866 19.9255C24.0057 19.0897 24.3533 18.1589 24.5094 17.1875H24.6109C25.4394 17.1865 26.2337 16.8569 26.8195 16.2711C27.4053 15.6852 27.7349 14.891 27.7359 14.0625V10.5469C27.7359 7.74967 26.6248 5.06703 24.6468 3.08911C22.6689 1.11119 19.9863 0 17.1891 0C14.3919 0 11.7092 1.11119 9.7313 3.08911C7.75337 5.06703 6.64219 7.74967 6.64219 10.5469V14.0625C6.64322 14.891 6.97279 15.6852 7.55862 16.2711C8.14445 16.8569 8.9387 17.1865 9.76719 17.1875H9.86875C10.0249 18.1588 10.3726 19.0894 10.8916 19.9251C11.4107 20.7608 12.0907 21.485 12.8922 22.0555V22.6562H10.1578C7.87937 22.6587 5.69496 23.5649 4.08385 25.176C2.47275 26.7871 1.56654 28.9716 1.56406 31.25V39.0625C1.56711 39.9105 1.84874 40.734 2.36563 41.4062H0.78125C0.57405 41.4062 0.375336 41.4886 0.228823 41.6351C0.08231 41.7816 0 41.9803 0 42.1875L0 47.6562C0 47.8634 0.08231 48.0622 0.228823 48.2087C0.375336 48.3552 0.57405 48.4375 0.78125 48.4375H49.2188C49.4259 48.4375 49.6247 48.3552 49.7712 48.2087C49.9177 48.0622 50 47.8634 50 47.6562V42.1875C50 41.9803 49.9177 41.7816 49.7712 41.6351C49.6247 41.4886 49.4259 41.4062 49.2188 41.4062ZM45.3141 24.2188C45.7283 24.2192 46.1255 24.3839 46.4185 24.6769C46.7114 24.9698 46.8761 25.367 46.8766 25.7812V39.8438C46.8761 40.258 46.7114 40.6552 46.4185 40.9481C46.1255 41.2411 45.7283 41.4058 45.3141 41.4062H25.7828V25.7812C25.7832 25.367 25.948 24.9698 26.2409 24.6769C26.5339 24.3839 26.931 24.2192 27.3453 24.2188H45.3141ZM21.8227 41.4062C21.7191 40.5798 21.4499 39.7826 21.0312 39.0625H24.2203V41.4062H21.8227ZM16.4086 37.5703C17.367 37.7335 18.2511 38.1901 18.9389 38.8772C19.6267 39.5643 20.0843 40.448 20.2484 41.4062H16.407L16.4086 37.5703ZM24.6109 15.625V12.5C25.0253 12.5 25.4228 12.6646 25.7158 12.9576C26.0088 13.2507 26.1734 13.6481 26.1734 14.0625C26.1734 14.4769 26.0088 14.8743 25.7158 15.1674C25.4228 15.4604 25.0253 15.625 24.6109 15.625ZM17.1891 1.5625C19.571 1.56519 21.8547 2.51262 23.539 4.19693C25.2233 5.88125 26.1707 8.1649 26.1734 10.5469V11.3719C25.7006 11.0905 25.1612 10.9405 24.6109 10.9375H24.2125L21.4289 7.33516C21.3596 7.24529 21.2715 7.17161 21.1707 7.11925C21.07 7.06689 20.9591 7.03711 20.8457 7.03198C20.7323 7.02685 20.6191 7.04649 20.5141 7.08954C20.4091 7.13259 20.3147 7.19801 20.2375 7.28125C19.167 8.43265 17.8711 9.35144 16.4303 9.98045C14.9895 10.6095 13.4346 10.9352 11.8625 10.9375H9.76719C9.21696 10.9405 8.67754 11.0905 8.20469 11.3719V10.5469C8.20738 8.1649 9.1548 5.88125 10.8391 4.19693C12.5234 2.51262 14.8071 1.56519 17.1891 1.5625ZM8.20469 14.0625C8.2051 13.6482 8.36985 13.251 8.66279 12.9581C8.95573 12.6652 9.35291 12.5004 9.76719 12.5V15.625C9.35291 15.6246 8.95573 15.4598 8.66279 15.1669C8.36985 14.874 8.2051 14.4768 8.20469 14.0625ZM11.3297 16.0156V12.5H11.8609C15.1562 12.4953 18.3273 11.2425 20.7359 8.99375L23.0484 11.9859V16.0156C23.0484 17.5696 22.4311 19.06 21.3323 20.1588C20.2334 21.2577 18.7431 21.875 17.1891 21.875C15.6351 21.875 14.1447 21.2577 13.0459 20.1588C11.947 19.06 11.3297 17.5696 11.3297 16.0156ZM17.1891 23.4375C18.1258 23.4367 19.0538 23.2575 19.9234 22.9094V23.8281C19.9234 24.5533 19.6354 25.2488 19.1226 25.7616C18.6098 26.2744 17.9143 26.5625 17.1891 26.5625C16.4639 26.5625 15.7684 26.2744 15.2556 25.7616C14.7428 25.2488 14.4547 24.5533 14.4547 23.8281V22.9086C15.3243 23.257 16.2523 23.4365 17.1891 23.4375ZM3.12656 39.0625V31.25C3.12863 29.3858 3.87008 27.5986 5.18825 26.2804C6.50642 24.9623 8.29364 24.2208 10.1578 24.2188H12.9117C13.0076 25.287 13.4997 26.2807 14.2913 27.0044C15.0828 27.7281 16.1165 28.1294 17.1891 28.1294C18.2616 28.1294 19.2953 27.7281 20.0869 27.0044C20.8784 26.2807 21.3705 25.287 21.4664 24.2188H24.2195C24.3578 24.2188 24.4992 24.2391 24.6391 24.2477C24.368 24.7135 24.2236 25.2423 24.2203 25.7812V37.5H19.7469C18.6103 36.4936 17.1447 35.9378 15.6266 35.9375H7.81406C7.60686 35.9375 7.40815 36.0198 7.26164 36.1663C7.11512 36.3128 7.03281 36.5116 7.03281 36.7188C7.03281 36.9259 7.11512 37.1247 7.26164 37.2712C7.40815 37.4177 7.60686 37.5 7.81406 37.5H14.8453V41.4062H5.47031C4.8489 41.4056 4.25312 41.1585 3.81372 40.7191C3.37431 40.2797 3.12718 39.6839 3.12656 39.0625ZM48.4375 46.875H1.5625V42.9688H48.4375V46.875Z" fill="#EB5C26"/>
<path d="M36.3297 36.7188C37.1023 36.7188 37.8575 36.4897 38.4999 36.0604C39.1423 35.6312 39.643 35.0211 39.9386 34.3074C40.2343 33.5936 40.3116 32.8082 40.1609 32.0504C40.0102 31.2927 39.6381 30.5967 39.0918 30.0504C38.5455 29.5041 37.8495 29.132 37.0918 28.9813C36.334 28.8306 35.5486 28.9079 34.8349 29.2036C34.1211 29.4993 33.511 29.9999 33.0818 30.6423C32.6526 31.2847 32.4235 32.0399 32.4235 32.8125C32.4247 33.8481 32.8367 34.841 33.5689 35.5733C34.3012 36.3056 35.2941 36.7175 36.3297 36.7188ZM36.3297 30.4688C36.7933 30.4688 37.2464 30.6062 37.6318 30.8637C38.0173 31.1213 38.3177 31.4873 38.4951 31.9156C38.6724 32.3439 38.7189 32.8151 38.6284 33.2697C38.538 33.7244 38.3148 34.142 37.987 34.4698C37.6592 34.7976 37.2416 35.0208 36.787 35.1112C36.3323 35.2017 35.8611 35.1552 35.4328 34.9778C35.0045 34.8005 34.6385 34.5 34.381 34.1146C34.1234 33.7292 33.986 33.2761 33.986 32.8125C33.9866 32.1911 34.2337 31.5953 34.6731 31.1559C35.1125 30.7165 35.7083 30.4694 36.3297 30.4688Z" fill="#EB5C26"/>
</svg>
