<svg width="50" height="50" viewBox="0 0 50 50" fill="none" xmlns="http://www.w3.org/2000/svg">
<path fill-rule="evenodd" clip-rule="evenodd" d="M41.2274 32.8248H41.2261C41.1097 32.8243 40.9983 32.7777 40.9163 32.6951C40.8343 32.6126 40.7884 32.5009 40.7887 32.3845L40.8517 18.4629C40.8523 18.347 40.8988 18.2361 40.9809 18.1543C41.063 18.0726 41.1742 18.0266 41.2901 18.0265H41.2924C41.5347 18.0275 41.73 18.2248 41.7287 18.4668L41.666 32.3881C41.6657 32.5042 41.6193 32.6154 41.537 32.6972C41.4548 32.7791 41.3434 32.825 41.2274 32.8248ZM32.8192 41.1954H4.87178C4.62974 41.1954 4.43409 41.0004 4.43311 40.759L4.33251 18.4665C4.33216 18.4087 4.34326 18.3514 4.36516 18.2979C4.38706 18.2444 4.41932 18.1958 4.4601 18.1549C4.50088 18.1139 4.54936 18.0814 4.60275 18.0593C4.65614 18.0371 4.71338 18.0258 4.77117 18.0259C5.01353 18.0259 5.20853 18.2212 5.20951 18.4626L5.30783 40.3181H32.8192C32.9356 40.3181 33.0472 40.3643 33.1294 40.4465C33.2117 40.5288 33.2579 40.6404 33.2579 40.7567C33.2579 40.8731 33.2117 40.9846 33.1294 41.0669C33.0472 41.1492 32.9356 41.1954 32.8192 41.1954ZM1.10605 15.1339H6.55163L9.12025 4.8888H5.54202L1.10605 15.1339ZM7.4564 15.1339H12.9716L14.5119 4.8888H10.0247L7.4564 15.1339ZM13.8577 15.1339H19.3866L19.8994 4.8888H15.3997L13.8577 15.1339ZM20.2649 15.1339H25.7973L25.2836 4.88848H20.7777L20.2649 15.1339ZM26.6757 15.1339H32.2035L30.6618 4.8888H26.1615L26.6757 15.1339ZM33.0907 15.1339H38.6052L36.0362 4.8888H31.5493L33.0907 15.1339ZM39.5096 15.1339H44.9552L40.5192 4.88848H36.9407L39.5096 15.1339ZM45.6218 16.0109H0.439075C0.36636 16.0109 0.294793 15.9928 0.230792 15.9582C0.166791 15.9237 0.112358 15.8739 0.0723754 15.8131C0.0323926 15.7524 0.00811027 15.6827 0.00170687 15.6103C-0.00469653 15.5378 0.00697912 15.4649 0.0356864 15.3981L4.85054 4.27572C4.92012 4.11567 5.07788 4.01147 5.2523 4.01147H40.808C40.9824 4.01147 41.1402 4.11534 41.2097 4.27605L46.0249 15.3981C46.0834 15.5337 46.0693 15.6898 45.9883 15.8133C45.9485 15.8741 45.8941 15.924 45.8301 15.9585C45.7661 15.993 45.6945 16.011 45.6218 16.0109Z" fill="#EB5C26"/>
<path fill-rule="evenodd" clip-rule="evenodd" d="M3.66525 19.1185C2.63538 19.1189 1.65647 18.6528 0.979037 17.8404C0.474394 17.2339 0.137311 16.4735 0.00600607 15.6409C-0.00311376 15.584 -0.000911695 15.5259 0.0124865 15.4699C0.0258847 15.4138 0.0502153 15.361 0.084082 15.3144C0.117949 15.2678 0.160685 15.2283 0.20984 15.1982C0.258995 15.1682 0.313601 15.1481 0.370525 15.1392C0.485238 15.1212 0.602395 15.1495 0.696316 15.2178C0.790238 15.286 0.853263 15.3887 0.871576 15.5034C0.979364 16.1799 1.24981 16.7939 1.65288 17.279C2.16242 17.8907 2.89668 18.2419 3.66525 18.2419C4.43511 18.2419 5.16938 17.8904 5.67892 17.278C6.08329 16.7933 6.35276 16.1799 6.46022 15.5034C6.47846 15.3884 6.54161 15.2854 6.63579 15.2171C6.68242 15.1832 6.73527 15.1588 6.79131 15.1454C6.84735 15.132 6.90549 15.1297 6.96241 15.1387C7.01933 15.1477 7.07392 15.1679 7.12305 15.198C7.17218 15.2281 7.2149 15.2677 7.24876 15.3143C7.28263 15.3609 7.30698 15.4138 7.32042 15.4698C7.33386 15.5259 7.33613 15.584 7.3271 15.6409C7.19481 16.4732 6.85773 17.2336 6.35276 17.8391C5.67565 18.6524 4.69544 19.1189 3.66525 19.1185Z" fill="#EB5C26"/>
<path fill-rule="evenodd" clip-rule="evenodd" d="M10.1217 19.1187C9.09053 19.1187 8.11162 18.6526 7.43418 17.8392C6.92987 17.2333 6.59246 16.4733 6.46017 15.641C6.44778 15.5288 6.4791 15.4161 6.54763 15.3263C6.61615 15.2365 6.71662 15.1766 6.82817 15.1589C6.93972 15.1413 7.05379 15.1672 7.14668 15.2315C7.23958 15.2957 7.30417 15.3932 7.32705 15.5038C7.43451 16.18 7.70398 16.7937 8.10802 17.2781C8.61887 17.8905 9.35183 18.2417 10.1217 18.2417C10.8906 18.2417 11.6235 17.8909 12.1341 17.2791C12.5375 16.794 12.8079 16.1803 12.9154 15.5035C12.9338 15.3888 12.9969 15.2861 13.0908 15.2178C13.1848 15.1496 13.302 15.1214 13.4167 15.1393C13.4737 15.1482 13.5283 15.1683 13.5774 15.1983C13.6265 15.2284 13.6692 15.2679 13.7031 15.3145C13.7369 15.3611 13.7612 15.414 13.7746 15.47C13.7879 15.526 13.7901 15.5842 13.7809 15.641C13.65 16.4736 13.3129 17.234 12.8079 17.8402C12.1308 18.6529 11.1516 19.119 10.1217 19.1187Z" fill="#EB5C26"/>
<path fill-rule="evenodd" clip-rule="evenodd" d="M16.5759 19.1186C15.5444 19.1189 14.5658 18.6528 13.8884 17.8405C13.3837 17.234 13.0476 16.4736 12.915 15.641C12.9045 15.5835 12.9055 15.5245 12.9181 15.4674C12.9307 15.4103 12.9546 15.3564 12.9884 15.3086C13.0221 15.2609 13.0651 15.2205 13.1147 15.1896C13.1644 15.1588 13.2197 15.1381 13.2774 15.129C13.3351 15.1198 13.3941 15.1223 13.4508 15.1362C13.5076 15.1502 13.561 15.1753 13.6079 15.2102C13.6548 15.2451 13.6942 15.289 13.7239 15.3394C13.7535 15.3898 13.7728 15.4455 13.7806 15.5035C13.8884 16.1799 14.1592 16.794 14.5632 17.279C15.0728 17.8908 15.806 18.2419 16.5746 18.2419C17.3445 18.2419 18.0787 17.8905 18.5893 17.278C18.9926 16.793 19.2631 16.1796 19.3706 15.5035C19.3783 15.4455 19.3976 15.3898 19.4273 15.3394C19.457 15.289 19.4964 15.2451 19.5433 15.2102C19.5902 15.1753 19.6436 15.1502 19.7003 15.1362C19.7571 15.1223 19.816 15.1198 19.8738 15.129C19.9315 15.1381 19.9868 15.1588 20.0364 15.1896C20.0861 15.2205 20.129 15.2609 20.1628 15.3086C20.1965 15.3564 20.2204 15.4103 20.233 15.4674C20.2456 15.5245 20.2467 15.5835 20.2361 15.641C20.1038 16.4729 19.7681 17.2333 19.2631 17.8392C18.586 18.6525 17.6058 19.1189 16.5759 19.1186Z" fill="#EB5C26"/>
<path fill-rule="evenodd" clip-rule="evenodd" d="M23.0308 19.1186C22.0009 19.1186 21.0211 18.6525 20.3436 17.8392C19.839 17.2333 19.5019 16.4732 19.3703 15.641C19.3611 15.5841 19.3633 15.5259 19.3767 15.4699C19.3901 15.4139 19.4145 15.361 19.4483 15.3144C19.4822 15.2678 19.5249 15.2283 19.5741 15.1983C19.6233 15.1682 19.6779 15.1482 19.7348 15.1393C19.7916 15.1302 19.8497 15.1324 19.9057 15.1458C19.9617 15.1592 20.0144 15.1835 20.061 15.2174C20.1076 15.2512 20.147 15.2939 20.1771 15.343C20.2071 15.3921 20.2272 15.4466 20.2362 15.5035C20.3439 16.1796 20.6144 16.7936 21.0175 17.278C21.528 17.8905 22.2622 18.2416 23.0311 18.2416C23.801 18.2416 24.534 17.8908 25.0432 17.279C25.4482 16.794 25.7173 16.1802 25.8245 15.5035C25.8452 15.3908 25.9092 15.2907 26.0027 15.2245C26.0962 15.1584 26.2119 15.1314 26.325 15.1493C26.4381 15.1673 26.5398 15.2287 26.6082 15.3206C26.6767 15.4124 26.7065 15.5274 26.6914 15.641C26.5591 16.4739 26.222 17.2339 25.7173 17.8402C25.0412 18.6528 24.061 19.1189 23.0308 19.1186Z" fill="#EB5C26"/>
<path fill-rule="evenodd" clip-rule="evenodd" d="M29.4853 19.1186C28.4551 19.1189 27.4752 18.6528 26.7988 17.8402C26.2941 17.234 25.957 16.4736 25.8248 15.641C25.8099 15.5276 25.8399 15.4128 25.9084 15.3212C25.9769 15.2296 26.0784 15.1683 26.1914 15.1505C26.3044 15.1326 26.4199 15.1595 26.5133 15.2255C26.6067 15.2915 26.6707 15.3913 26.6916 15.5038C26.7994 16.1799 27.0686 16.794 27.4726 17.279C27.9821 17.8908 28.7154 18.2419 29.4853 18.2419C30.2539 18.2419 30.9881 17.8905 31.4986 17.278C31.902 16.7933 32.1725 16.1799 32.2799 15.5035C32.2877 15.4455 32.307 15.3898 32.3367 15.3394C32.3664 15.289 32.4058 15.2451 32.4527 15.2102C32.4996 15.1753 32.553 15.1502 32.6097 15.1362C32.6665 15.1223 32.7254 15.1198 32.7832 15.129C32.8409 15.1381 32.8962 15.1588 32.9458 15.1896C32.9954 15.2205 33.0384 15.2609 33.0722 15.3086C33.1059 15.3564 33.1298 15.4103 33.1424 15.4674C33.155 15.5245 33.1561 15.5835 33.1455 15.641C33.0142 16.4736 32.6775 17.2336 32.1725 17.8392C31.4954 18.6525 30.5152 19.1189 29.4853 19.1186Z" fill="#EB5C26"/>
<path fill-rule="evenodd" clip-rule="evenodd" d="M35.9415 19.1186C34.9103 19.1186 33.9304 18.6525 33.253 17.8392C32.7483 17.2333 32.4122 16.4732 32.2796 15.641C32.2616 15.5261 32.2898 15.4088 32.3581 15.3147C32.4265 15.2207 32.5293 15.1576 32.6441 15.1393C32.701 15.1302 32.7591 15.1324 32.815 15.1458C32.871 15.1592 32.9238 15.1835 32.9704 15.2174C33.017 15.2512 33.0564 15.2939 33.0864 15.343C33.1165 15.3921 33.1366 15.4466 33.1455 15.5035C33.253 16.1796 33.5238 16.7936 33.9268 17.2777C34.4373 17.8905 35.1716 18.2419 35.9415 18.2419C36.71 18.2419 37.4433 17.8908 37.9529 17.279C38.3572 16.794 38.6277 16.1802 38.7351 15.5035C38.7442 15.4466 38.7643 15.3921 38.7944 15.3431C38.8245 15.294 38.8639 15.2514 38.9105 15.2176C38.9571 15.1838 39.0099 15.1595 39.0658 15.1461C39.1218 15.1327 39.1799 15.1304 39.2367 15.1394C39.2935 15.1485 39.348 15.1686 39.3971 15.1987C39.4461 15.2288 39.4888 15.2682 39.5226 15.3148C39.5564 15.3614 39.5807 15.4142 39.5941 15.4701C39.6075 15.5261 39.6097 15.5841 39.6007 15.641C39.4684 16.4739 39.1327 17.2339 38.6277 17.8402C37.9506 18.6528 36.9717 19.1189 35.9415 19.1186Z" fill="#EB5C26"/>
<path fill-rule="evenodd" clip-rule="evenodd" d="M42.3944 19.1187C41.3645 19.1187 40.3856 18.6529 39.7082 17.8402C39.2035 17.234 38.8665 16.4736 38.7348 15.641C38.7257 15.5841 38.7278 15.526 38.7412 15.4699C38.7546 15.4139 38.7789 15.361 38.8128 15.3144C38.8467 15.2678 38.8894 15.2283 38.9386 15.1983C38.9878 15.1682 39.0424 15.1482 39.0993 15.1393C39.1562 15.1302 39.2143 15.1325 39.2702 15.1459C39.3262 15.1593 39.379 15.1836 39.4256 15.2174C39.4722 15.2512 39.5116 15.2939 39.5417 15.343C39.5717 15.3921 39.5918 15.4466 39.6007 15.5035C39.7085 16.18 39.979 16.794 40.382 17.2791C40.8925 17.8908 41.6258 18.242 42.3944 18.242C43.1643 18.242 43.8975 17.8905 44.4081 17.2781C44.8124 16.7934 45.0819 16.18 45.189 15.5035C45.2098 15.3908 45.2737 15.2907 45.3672 15.2246C45.4608 15.1584 45.5764 15.1314 45.6896 15.1494C45.8027 15.1673 45.9043 15.2288 45.9728 15.3206C46.0412 15.4125 46.0711 15.5275 46.0559 15.641C45.9236 16.4733 45.5866 17.2337 45.0819 17.8392C44.4048 18.6525 43.4246 19.119 42.3944 19.1187ZM36.4759 4.88835C36.4182 4.88848 36.3612 4.87723 36.3079 4.85525C36.2546 4.83327 36.2063 4.80099 36.1655 4.76027C36.1247 4.71955 36.0924 4.67118 36.0704 4.61793C36.0484 4.56469 36.0371 4.50763 36.0372 4.45001V2.44417C36.0366 2.02861 35.8712 1.63024 35.5773 1.33645C35.2834 1.04266 34.8849 0.877434 34.4694 0.877002H11.5912C11.1757 0.877521 10.7775 1.04281 10.4837 1.33661C10.19 1.63041 10.0248 2.02872 10.0243 2.44417V4.44968C10.0244 4.56603 9.97822 4.67762 9.89598 4.75991C9.81375 4.84221 9.70219 4.88847 9.58585 4.88851C9.46951 4.88856 9.35791 4.84238 9.27562 4.76015C9.19332 4.67791 9.14707 4.56635 9.14702 4.45001V2.44417C9.14702 1.09617 10.2435 0 11.5912 0H34.469C35.8167 0 36.9142 1.0965 36.9142 2.44417V4.44968C36.9142 4.69204 36.7179 4.88868 36.4759 4.88835ZM17.155 41.1949C16.913 41.1949 16.7164 40.999 16.7164 40.7566V24.8879H8.70411V40.7563C8.70411 40.8726 8.65789 40.9842 8.57563 41.0665C8.49336 41.1487 8.38179 41.1949 8.26545 41.1949C8.14911 41.1949 8.03753 41.1487 7.95526 41.0665C7.873 40.9842 7.82678 40.8726 7.82678 40.7563L7.82744 24.4496C7.82744 24.2072 8.02341 24.0109 8.26577 24.0109H17.155C17.397 24.0109 17.5934 24.2076 17.5934 24.4496V40.7563C17.5934 40.998 17.397 41.1949 17.155 41.1946V41.1949Z" fill="#EB5C26"/>
<path fill-rule="evenodd" clip-rule="evenodd" d="M10.1185 34.1514C10.0021 34.1514 9.89056 34.1052 9.80829 34.0229C9.72603 33.9406 9.67981 33.8291 9.67981 33.7127V31.4936C9.67983 31.436 9.6912 31.379 9.71325 31.3258C9.73531 31.2726 9.76763 31.2243 9.80836 31.1836C9.84909 31.1429 9.89745 31.1106 9.95066 31.0886C10.0039 31.0666 10.0609 31.0552 10.1185 31.0553C10.1761 31.0553 10.2331 31.0666 10.2863 31.0887C10.3395 31.1108 10.3878 31.1431 10.4285 31.1838C10.4692 31.2245 10.5015 31.2729 10.5235 31.3261C10.5455 31.3793 10.5568 31.4363 10.5568 31.4939V33.7127C10.5568 33.9548 10.3605 34.1514 10.1185 34.1514ZM25.0994 31.295H34.7653V24.8885H25.0994V31.295ZM35.2037 32.172H24.662C24.6044 32.1721 24.5473 32.1609 24.4941 32.1389C24.4408 32.1169 24.3924 32.0847 24.3517 32.0439C24.3109 32.0032 24.2786 31.9548 24.2566 31.9016C24.2346 31.8483 24.2233 31.7913 24.2234 31.7337V24.4498C24.2233 24.3922 24.2346 24.3351 24.2566 24.2819C24.2786 24.2286 24.3109 24.1803 24.3517 24.1396C24.3924 24.0988 24.4408 24.0666 24.4941 24.0446C24.5473 24.0226 24.6044 24.0113 24.662 24.0115H35.2037C35.446 24.0115 35.6423 24.2075 35.6423 24.4498V31.7337C35.6423 31.9757 35.4457 32.172 35.2037 32.172ZM41.1908 32.824C36.8166 32.824 33.2576 36.3826 33.2576 40.7565C33.2576 45.1304 36.8166 48.6891 41.1908 48.6891C45.5641 48.6891 49.1227 45.1304 49.1227 40.7565C49.1227 36.3826 45.5637 32.8243 41.1908 32.824ZM41.1908 49.5661C36.3322 49.5661 32.3803 45.6142 32.3803 40.7568C32.3806 35.8989 36.3322 31.947 41.1908 31.947C46.0481 31.947 50 35.8992 50 40.7565C50 45.6141 46.0478 49.566 41.1908 49.5657V49.5661Z" fill="#EB5C26"/>
<path fill-rule="evenodd" clip-rule="evenodd" d="M40.4598 45.811H41.9205V44.933C41.9205 44.7361 42.0518 44.5636 42.2412 44.5107C42.5404 44.4271 42.8291 44.3069 43.1002 44.154C43.1838 44.1069 43.2805 44.0884 43.3756 44.1014C43.4707 44.1143 43.5589 44.1581 43.6268 44.2259L44.248 44.8471L45.2805 43.814L44.6592 43.1931C44.5913 43.1254 44.5475 43.0373 44.5345 42.9423C44.5215 42.8472 44.5401 42.7506 44.5874 42.6672C44.7403 42.3961 44.8601 42.1067 44.9434 41.8078C44.996 41.6184 45.1698 41.4871 45.3661 41.4871H46.2447V40.026H45.3661C45.1698 40.026 44.997 39.8954 44.9434 39.706C44.86 39.406 44.7404 39.1174 44.5874 38.8463C44.5401 38.7628 44.5215 38.6662 44.5345 38.5712C44.5475 38.4762 44.5913 38.3881 44.6592 38.3204L45.2805 37.6991L44.2483 36.6667L43.6258 37.2879C43.558 37.3556 43.4699 37.3993 43.3749 37.4123C43.28 37.4253 43.1834 37.4068 43.0999 37.3598C42.8292 37.2066 42.5408 37.0868 42.2412 37.0031C42.149 36.9773 42.0678 36.9221 42.0098 36.8458C41.9519 36.7696 41.9206 36.6765 41.9205 36.5808V35.7024H40.4598V36.5808C40.4598 36.7774 40.3281 36.9502 40.1387 37.0031C39.8395 37.0867 39.5504 37.2066 39.2797 37.3598C39.1961 37.4067 39.0995 37.4251 39.0045 37.4121C38.9095 37.3991 38.8214 37.3555 38.7534 37.2879L38.1329 36.6667L37.0997 37.6991L37.721 38.3204C37.8601 38.4595 37.8898 38.6748 37.7928 38.8463C37.6396 39.1174 37.5198 39.4071 37.4365 39.706C37.3842 39.8954 37.2101 40.0264 37.0138 40.0264H36.1355V41.4871H37.0141C37.2101 41.4871 37.3826 41.618 37.4365 41.8078C37.5202 42.1076 37.6397 42.3963 37.7925 42.6675C37.8398 42.7509 37.8584 42.8476 37.8454 42.9426C37.8324 43.0376 37.7886 43.1257 37.7206 43.1934L37.0997 43.814L38.1332 44.8471L38.7534 44.2259C38.8214 44.1582 38.9095 44.1146 39.0045 44.1016C39.0995 44.0886 39.1961 44.107 39.2797 44.154C39.5508 44.3069 39.8405 44.4271 40.1387 44.5104C40.3281 44.5633 40.4594 44.7364 40.4594 44.933L40.4598 45.811ZM41.9877 46.688H40.3922C40.1774 46.6877 39.9716 46.6023 39.8198 46.4504C39.668 46.2986 39.5826 46.0927 39.5824 45.878V45.2531C39.4355 45.2005 39.2901 45.1401 39.1474 45.0728L38.7054 45.5147C38.5533 45.6663 38.3473 45.7514 38.1325 45.7514C37.9178 45.7514 37.7117 45.6663 37.5596 45.5147L36.4327 44.3869C36.2809 44.235 36.1955 44.029 36.1955 43.8141C36.1955 43.5993 36.2809 43.3933 36.4327 43.2414L36.8743 42.7995C36.8071 42.6574 36.7466 42.512 36.694 42.3644H36.0682C35.8534 42.3642 35.6475 42.2788 35.4956 42.1269C35.3438 41.9751 35.2584 41.7691 35.2582 41.5543L35.2585 39.9594C35.2586 39.7447 35.3439 39.5387 35.4957 39.3868C35.6476 39.235 35.8535 39.1495 36.0682 39.1494H36.6931C36.7466 39.0014 36.8074 38.8564 36.8743 38.7143L36.4324 38.272C36.2806 38.1201 36.1954 37.9142 36.1954 37.6995C36.1954 37.4847 36.2806 37.2788 36.4324 37.1269L37.5599 35.999C37.6351 35.9236 37.7244 35.8638 37.8228 35.8232C37.9212 35.7825 38.0267 35.7618 38.1332 35.7622C38.3488 35.7622 38.5522 35.8462 38.7054 35.9987L39.1474 36.4406C39.2891 36.3737 39.4348 36.3132 39.5824 36.2603V35.6355C39.5826 35.4208 39.668 35.2149 39.8198 35.063C39.9716 34.9111 40.1774 34.8257 40.3922 34.8254H41.9877C42.2024 34.8258 42.4082 34.9113 42.56 35.0631C42.7118 35.2149 42.7972 35.4208 42.7975 35.6355V36.2603C42.9451 36.3132 43.0911 36.3737 43.2325 36.441L43.6748 35.999C43.7499 35.9236 43.8393 35.8638 43.9377 35.8231C44.0361 35.7825 44.1416 35.7618 44.248 35.7622C44.3543 35.7618 44.4596 35.7825 44.5578 35.8231C44.6561 35.8637 44.7453 35.9234 44.8203 35.9987L45.9475 37.1265C46.0227 37.2018 46.0824 37.2911 46.1232 37.3894C46.1639 37.4877 46.1849 37.5931 46.1849 37.6995C46.1849 37.8059 46.1639 37.9112 46.1232 38.0095C46.0824 38.1078 46.0227 38.1971 45.9475 38.2724L45.5065 38.714C45.5728 38.8561 45.6333 39.0014 45.6872 39.1494H46.312C46.5267 39.1497 46.7324 39.2352 46.8842 39.3871C47.0359 39.5389 47.1212 39.7447 47.1214 39.9594V41.554C47.1211 41.7687 47.0357 41.9746 46.884 42.1264C46.7322 42.2783 46.5264 42.3637 46.3117 42.3641H45.6858C45.6336 42.512 45.5728 42.6574 45.5055 42.7995L45.9475 43.2414C46.264 43.5569 46.2637 44.071 45.9485 44.3872L44.8203 45.5147C44.6682 45.6665 44.4622 45.7517 44.2474 45.7517C44.0326 45.7517 43.8265 45.6665 43.6745 45.5147L43.2329 45.0731C43.0911 45.1401 42.9461 45.2005 42.7975 45.2534V45.878C42.7973 46.0927 42.7119 46.2986 42.5601 46.4504C42.4083 46.6023 42.2025 46.6877 41.9877 46.688Z" fill="#EB5C26"/>
<path fill-rule="evenodd" clip-rule="evenodd" d="M41.1908 39.4585C40.8466 39.4589 40.5165 39.5958 40.273 39.8392C40.0295 40.0826 39.8926 40.4126 39.8921 40.7569C39.8926 41.1012 40.0295 41.4312 40.273 41.6746C40.5165 41.918 40.8466 42.0549 41.1908 42.0553C41.5349 42.0546 41.8646 41.9175 42.1078 41.6742C42.351 41.4308 42.4878 41.1009 42.4882 40.7569C42.4879 40.4128 42.3512 40.0829 42.108 39.8395C41.8648 39.5961 41.5349 39.4591 41.1908 39.4585ZM41.1908 42.9319C39.9905 42.9319 39.0151 41.9563 39.0151 40.7566C39.0151 39.5569 39.9905 38.5815 41.1905 38.5815C42.3902 38.5815 43.3652 39.5575 43.3652 40.7569C43.3652 41.9563 42.3899 42.9323 41.1908 42.9323V42.9319Z" fill="#EB5C26"/>
</svg>
