<svg width="50" height="50" viewBox="0 0 50 50" fill="none" xmlns="http://www.w3.org/2000/svg">
<path d="M43.7292 10.8393C43.4829 7.96094 41.6174 6.09551 38.7392 5.84932C38.6442 5.84119 38.5485 5.85186 38.4576 5.88071C38.3667 5.90957 38.2824 5.95604 38.2094 6.01749C38.1365 6.07894 38.0763 6.15415 38.0325 6.23883C37.9886 6.32352 37.9618 6.41601 37.9537 6.51104C37.9456 6.60607 37.9562 6.70177 37.9851 6.79268C38.0139 6.88358 38.0604 6.96792 38.1219 7.04086C38.1833 7.11381 38.2585 7.17394 38.3432 7.21781C38.4279 7.26169 38.5204 7.28846 38.6154 7.29659C40.7934 7.48301 42.0955 8.78526 42.2819 10.9631C42.2963 11.1336 42.3706 11.2936 42.4918 11.4145C42.5971 11.5198 42.7322 11.5902 42.8788 11.6161C43.0255 11.6421 43.1766 11.6223 43.3116 11.5596C43.4467 11.4968 43.5591 11.394 43.6338 11.2652C43.7085 11.1363 43.7418 10.9877 43.7292 10.8393Z" fill="#EB5C26"/>
<path d="M47.4742 2.10461C47.1373 1.76702 46.7301 1.5079 46.2816 1.34572C45.8331 1.18354 45.3544 1.12229 44.8795 1.16633L43.7525 1.26956C39.4081 1.6679 35.4425 3.70325 32.5862 7.001L30.8519 9.00334L26.8514 7.34534L27.0653 7.13137C27.7024 6.49416 27.7024 5.45745 27.0653 4.82034L25.853 3.60764C25.2159 2.97073 24.1792 2.97053 23.542 3.60764L21.8693 5.2803L19.9461 4.48323L20.4281 4.0012C21.0652 3.36399 21.0652 2.32737 20.4281 1.69026L19.2156 0.477759C18.5783 -0.159351 17.5416 -0.159155 16.9046 0.477759L14.964 2.41838L11.694 1.06311C10.1439 0.42063 8.37579 0.77229 7.18927 1.95862L5.0127 4.13518C4.78444 4.36333 4.60798 4.63795 4.49532 4.94037C4.38265 5.2428 4.33642 5.56593 4.35977 5.88782C4.38296 6.20971 4.47516 6.52284 4.63012 6.80593C4.78508 7.08903 4.99916 7.33544 5.25782 7.52844L21.5777 19.7102L16.1304 25.9992C16.0067 26.1451 15.9455 26.334 15.9602 26.5247C15.9749 26.7154 16.0642 26.8926 16.2088 27.0179C16.3534 27.1431 16.5416 27.2063 16.7324 27.1936C16.9233 27.1809 17.1015 27.0935 17.2282 26.9502L23.1867 20.071L23.1869 20.0708L26.7062 16.0078L33.6841 7.95178C36.2935 4.93918 39.9162 3.07981 43.8852 2.71594L45.0121 2.61272C45.2748 2.5882 45.5396 2.62201 45.7877 2.71172C46.0358 2.80143 46.261 2.94482 46.4472 3.13167C46.634 3.31793 46.7773 3.54313 46.867 3.79119C46.9567 4.03926 46.9906 4.30407 46.9661 4.56672L46.8629 5.69368C46.6215 8.31043 45.7138 10.8217 44.2263 12.988C44.1205 13.1468 44.0814 13.3409 44.1175 13.5282C44.1536 13.7156 44.262 13.8812 44.4192 13.9893C44.5765 14.0974 44.7699 14.1393 44.9578 14.1059C45.1457 14.0726 45.3129 13.9666 45.4232 13.811C47.0515 11.4396 48.0451 8.69067 48.3093 5.82629L48.4125 4.69934C48.4567 4.22445 48.3955 3.74566 48.2333 3.29715C48.0711 2.84863 47.8119 2.44144 47.4742 2.10461ZM24.569 4.63489C24.5859 4.61802 24.6059 4.60464 24.6279 4.59551C24.65 4.58638 24.6736 4.58168 24.6974 4.58168C24.7213 4.58168 24.7449 4.58638 24.7669 4.59551C24.7889 4.60464 24.8089 4.61802 24.8258 4.63489L26.0382 5.84729C26.109 5.91799 26.109 6.03333 26.0383 6.10403L25.399 6.74319L24.8093 6.49875L23.3216 5.88215L24.569 4.63489ZM17.9317 1.50491C17.9486 1.48804 17.9686 1.47466 17.9906 1.46553C18.0127 1.45639 18.0363 1.4517 18.0601 1.4517C18.084 1.4517 18.1076 1.45639 18.1296 1.46553C18.1516 1.47466 18.1716 1.48804 18.1885 1.50491L19.4009 2.71731C19.4349 2.75136 19.454 2.79751 19.454 2.84563C19.454 2.89375 19.4349 2.9399 19.4009 2.97395L18.4938 3.88118L16.4163 3.02024L17.9317 1.50491ZM22.5314 18.6093L6.12667 6.36438C6.03451 6.29653 5.95829 6.20936 5.90334 6.10898C5.84838 6.0086 5.81602 5.89742 5.8085 5.78323C5.79951 5.66914 5.81555 5.55447 5.85551 5.44724C5.89547 5.34 5.95839 5.2428 6.03985 5.16243L8.21632 2.98596C8.46455 2.73681 8.75951 2.5391 9.08429 2.40415C9.40907 2.2692 9.75729 2.19967 10.109 2.19954C10.4548 2.19954 10.8042 2.26682 11.138 2.4051L29.8497 10.1601L22.5314 18.6093Z" fill="#EB5C26"/>
<path d="M49.5222 30.7846L48.3098 29.572C47.6725 28.9349 46.6358 28.9351 45.9988 29.572L45.3985 30.1723L44.478 27.9512L45.9711 26.4581C46.6082 25.8209 46.6082 24.7843 45.9711 24.1472L44.7587 22.9346C44.1214 22.2975 43.0846 22.2976 42.4476 22.9347L42.4132 22.969L40.6341 18.6763L42.5781 16.9925C42.722 16.8678 42.8637 16.7407 43.0034 16.6113C43.0733 16.5465 43.1299 16.4685 43.1697 16.3819C43.2095 16.2952 43.2318 16.2015 43.2355 16.1062C43.2391 16.0109 43.2239 15.9159 43.1907 15.8264C43.1576 15.737 43.1071 15.655 43.0423 15.5851C42.9774 15.5151 42.8994 15.4586 42.8128 15.4188C42.7261 15.379 42.6325 15.3567 42.5372 15.3531C42.4419 15.3495 42.3468 15.3646 42.2574 15.3978C42.1679 15.4309 42.0859 15.4813 42.016 15.5462C41.8883 15.6645 41.7586 15.7806 41.6271 15.8946L20.4074 34.2742C19.2992 35.2337 18.1446 36.1383 16.9477 36.9847C15.2926 38.1552 13.5603 39.2125 11.7627 40.1494L11.7615 40.1501C11.299 40.3911 10.8323 40.6241 10.3617 40.8488C9.7861 41.1235 9.26491 40.9054 8.96911 40.6097C8.67341 40.3139 8.45524 39.7927 8.72985 39.217C8.96953 38.7156 9.21854 38.2188 9.47673 37.7268C9.57327 37.542 9.67112 37.358 9.77028 37.1746C9.79264 37.1333 9.81559 37.0924 9.83805 37.0511C9.9362 36.8709 10.0356 36.6915 10.1362 36.5127C10.1573 36.4753 10.1789 36.4381 10.2001 36.4007C10.3036 36.218 10.4084 36.0361 10.5145 35.8549C10.5342 35.8213 10.5543 35.7879 10.574 35.7543C10.6823 35.5705 10.7919 35.3875 10.9028 35.2054C10.9229 35.1724 10.9433 35.1394 10.9635 35.1064C11.0741 34.9259 11.1859 34.7461 11.299 34.5671C11.322 34.5306 11.3453 34.4943 11.3684 34.4579C11.5059 34.2419 11.6452 34.027 11.7863 33.8133C12.0317 33.4416 12.2826 33.0737 12.5391 32.7097C13.3178 31.603 14.1463 30.5322 15.0219 29.5006C15.1432 29.3534 15.2017 29.1643 15.1848 28.9743C15.1679 28.7843 15.0769 28.6086 14.9315 28.4851C14.7861 28.3616 14.598 28.3003 14.4078 28.3144C14.2175 28.3284 14.0405 28.4167 13.9148 28.5602C13.1626 29.4467 12.444 30.3611 11.7606 31.3017L5.19743 28.3307C3.95915 27.77 2.4821 28.0392 1.52145 29.0001L0.404167 30.1175C0.264477 30.2571 0.156407 30.4252 0.0872677 30.6102C0.0181281 30.7952 -0.0104693 30.993 0.0034096 31.19C0.0172885 31.3871 0.0733199 31.5788 0.167714 31.7523C0.262109 31.9259 0.392665 32.0771 0.550554 32.1958L7.86071 37.694C7.71022 37.9916 7.56294 38.2908 7.41891 38.5915C6.92409 39.6288 7.12946 40.8241 7.94206 41.6367C8.46042 42.1552 9.13444 42.4264 9.82389 42.4264C10.2152 42.4264 10.6116 42.3389 10.9872 42.1597C11.2879 42.0157 11.5871 41.8684 11.8846 41.718L17.3829 49.0281C17.5015 49.186 17.6528 49.3166 17.8263 49.411C17.9998 49.5055 18.1916 49.5615 18.3886 49.5754C18.5857 49.5892 18.7834 49.5606 18.9684 49.4914C19.1535 49.4223 19.3215 49.3141 19.4611 49.1744L20.5782 48.0572C21.5391 47.0965 21.8082 45.6191 21.2478 44.3812L18.2772 37.8189C19.3385 37.0474 20.3664 36.231 21.3583 35.3721L29.8892 27.9829L42.1857 44.4564C42.3951 44.7372 42.6672 44.9651 42.9802 45.122C43.2933 45.279 43.6387 45.3606 43.9889 45.3603C44.5833 45.3603 45.1555 45.125 45.5791 44.7015L47.7554 42.5251C48.942 41.3387 49.2935 39.5705 48.6511 38.0205L47.4633 35.1545L49.5223 33.0955C50.1593 32.4583 50.1593 31.4217 49.5222 30.7846ZM1.49049 31.0853L2.5486 30.0273C3.08434 29.4916 3.90817 29.3416 4.59841 29.6541L10.9097 32.5111C10.8962 32.531 10.8829 32.5514 10.8694 32.5713C10.7906 32.6877 10.7123 32.8045 10.6345 32.9216C10.5966 32.9786 10.559 33.0359 10.5215 33.0932C10.2568 33.4957 9.99841 33.9023 9.74636 34.3128C9.71491 34.3641 9.68327 34.4151 9.65202 34.4665C9.57754 34.589 9.50365 34.7118 9.43034 34.835C9.39235 34.8986 9.35475 34.9625 9.31715 35.0264C9.24635 35.1465 9.17565 35.2666 9.10593 35.3873C9.07038 35.4488 9.03561 35.5107 9.00036 35.5724C8.88503 35.7742 8.77123 35.977 8.65895 36.1806C8.62048 36.2504 8.58132 36.32 8.54323 36.3899L1.49049 31.0853ZM19.9247 44.9804C20.2371 45.6706 20.0872 46.4943 19.5512 47.0302L18.4933 48.0882L13.1887 41.0354C13.303 40.9732 13.4167 40.9099 13.5304 40.8466C13.6929 40.7563 13.8548 40.6651 14.0161 40.5728C14.0923 40.5293 14.1684 40.4858 14.2444 40.4419C14.3659 40.3716 14.4869 40.3007 14.6077 40.2293C14.6681 40.1936 14.7284 40.1574 14.7887 40.1214C15.2049 39.8728 15.6172 39.6177 16.0254 39.3561C16.0787 39.322 16.1321 39.2878 16.1853 39.2534C16.3115 39.1719 16.4372 39.0898 16.5626 39.0071C16.6129 38.9739 16.6629 38.9402 16.7131 38.9068C16.8315 38.8279 16.9504 38.7497 17.068 38.6697L19.9247 44.9804ZM43.4746 23.9618C43.5086 23.9278 43.5548 23.9086 43.6029 23.9086C43.6511 23.9086 43.6972 23.9277 43.7313 23.9617L44.9437 25.1743C44.9777 25.2084 44.9968 25.2545 44.9968 25.3026C44.9968 25.3507 44.9777 25.3969 44.9437 25.431L43.8759 26.4988L43.2216 24.92L43.015 24.4213L43.4746 23.9618ZM46.7283 41.4979L44.5518 43.6744C44.3859 43.8404 44.1656 43.9217 43.931 43.9059C43.8168 43.8983 43.7056 43.866 43.6052 43.811C43.5048 43.7561 43.4176 43.6798 43.3498 43.5877L30.9902 27.0294L33.5806 24.7856L39.4769 19.6785L47.3092 38.5765C47.5134 39.0661 47.5671 39.6054 47.4636 40.1257C47.3602 40.646 47.1042 41.1237 46.7283 41.4979ZM48.4951 32.0683L46.8614 33.702L46.0004 31.6245L47.0259 30.599C47.06 30.565 47.1062 30.5459 47.1543 30.5458C47.2024 30.5458 47.2486 30.5649 47.2827 30.5989L48.4951 31.8114V31.8115C48.5291 31.8456 48.5482 31.8917 48.5482 31.9399C48.5482 31.988 48.5291 32.0342 48.4951 32.0683Z" fill="#EB5C26"/>
</svg>
