<svg width="50" height="50" viewBox="0 0 50 50" fill="none" xmlns="http://www.w3.org/2000/svg">
<mask id="mask0_204_21" style="mask-type:luminance" maskUnits="userSpaceOnUse" x="0" y="0" width="50" height="50">
<path d="M49.5 49.5V0.5H0.5V49.5H49.5Z" fill="white" stroke="white"/>
</mask>
<g mask="url(#mask0_204_21)">
<path d="M2.92969 8.8418V4.63877C2.92969 2.48154 4.67871 0.732519 6.83594 0.732519H27.7344C29.8916 0.732519 31.6406 2.48154 31.6406 4.63877V8.49619" fill="white"/>
<path d="M2.92969 8.8418V4.63877C2.92969 2.48154 4.67871 0.732519 6.83594 0.732519H27.7344C29.8916 0.732519 31.6406 2.48154 31.6406 4.63877V8.49619" stroke="#EB5C26" stroke-miterlimit="10" stroke-linecap="round" stroke-linejoin="round"/>
<path d="M31.6406 31.9336V45.3613C31.6406 47.5186 29.8916 49.2676 27.7344 49.2676H6.83594C4.67871 49.2676 2.92969 47.5186 2.92969 45.3613V12.3047" fill="white"/>
<path d="M31.6406 31.9336V45.3613C31.6406 47.5186 29.8916 49.2676 27.7344 49.2676H6.83594C4.67871 49.2676 2.92969 47.5186 2.92969 45.3613V12.3047" stroke="#EB5C26" stroke-miterlimit="10" stroke-linecap="round" stroke-linejoin="round"/>
<path d="M29.1016 43.0713V45.3613C29.1016 46.1163 28.4893 46.7285 27.7344 46.7285H6.83594C6.08105 46.7285 5.46875 46.1163 5.46875 45.3613V4.63867C5.46875 3.88379 6.08105 3.27148 6.83594 3.27148H10.752C10.9805 3.27148 11.1826 3.41611 11.2568 3.63086L11.7725 5.13086C11.8467 5.3457 12.0488 5.49023 12.2773 5.49023H22.293C22.5215 5.49023 22.7236 5.3457 22.7978 5.13086L23.3135 3.63086C23.3498 3.52586 23.4179 3.4348 23.5084 3.37038C23.5989 3.30596 23.7073 3.27139 23.8184 3.27148H27.7344C28.4893 3.27148 29.1016 3.88379 29.1016 4.63867V8.49609" fill="white"/>
<path d="M29.1016 43.0713V45.3613C29.1016 46.1163 28.4893 46.7285 27.7344 46.7285H6.83594C6.08105 46.7285 5.46875 46.1163 5.46875 45.3613V4.63867C5.46875 3.88379 6.08105 3.27148 6.83594 3.27148H10.752C10.9805 3.27148 11.1826 3.41611 11.2568 3.63086L11.7725 5.13086C11.8467 5.3457 12.0488 5.49023 12.2773 5.49023H22.293C22.5215 5.49023 22.7236 5.3457 22.7978 5.13086L23.3135 3.63086C23.3498 3.52586 23.4179 3.4348 23.5084 3.37038C23.5989 3.30596 23.7073 3.27139 23.8184 3.27148H27.7344C28.4893 3.27148 29.1016 3.88379 29.1016 4.63867V8.49609" stroke="#EB5C26" stroke-miterlimit="10" stroke-linecap="round" stroke-linejoin="round"/>
<path d="M29.1016 31.9338V39.6558V31.9338Z" fill="white"/>
<path d="M29.1016 31.9338V39.6558" stroke="#EB5C26" stroke-miterlimit="10" stroke-linecap="round" stroke-linejoin="round"/>
<path d="M21.0938 40.4297H13.4766C12.3439 40.4297 11.4258 39.5115 11.4258 38.3789C11.4258 37.2463 12.3439 36.3281 13.4766 36.3281H21.0938C22.2264 36.3281 23.1445 37.2463 23.1445 38.3789C23.1445 39.5115 22.2264 40.4297 21.0938 40.4297Z" fill="white" stroke="#EB5C26" stroke-miterlimit="10" stroke-linecap="round" stroke-linejoin="round"/>
<path d="M41.4249 8.49609H45.1532C46.212 8.49609 47.0703 9.35439 47.0703 10.4132V30.0165C47.0703 31.0753 46.212 31.9336 45.1532 31.9336H11.4873C10.4286 31.9336 9.57031 31.0753 9.57031 30.0165V10.4132C9.57031 9.35439 10.4286 8.49609 11.4873 8.49609H37.9819" fill="white"/>
<path d="M41.4249 8.49609H45.1532C46.212 8.49609 47.0703 9.35439 47.0703 10.4132V30.0165C47.0703 31.0753 46.212 31.9336 45.1532 31.9336H11.4873C10.4286 31.9336 9.57031 31.0753 9.57031 30.0165V10.4132C9.57031 9.35439 10.4286 8.49609 11.4873 8.49609H37.9819" stroke="#EB5C26" stroke-miterlimit="10" stroke-linecap="round" stroke-linejoin="round"/>
<path d="M34.165 28.5884L36.286 23.0196C36.3293 22.9137 36.4793 22.9135 36.5229 23.0193L38.6245 28.5884" fill="white"/>
<path d="M34.165 28.5884L36.286 23.0196C36.3293 22.9137 36.4793 22.9135 36.5229 23.0193L38.6245 28.5884" stroke="#EB5C26" stroke-miterlimit="10" stroke-linecap="round" stroke-linejoin="round"/>
<path d="M34.8264 27.2017H37.9737H34.8264Z" fill="white"/>
<path d="M34.8264 27.2017H37.9737" stroke="#EB5C26" stroke-miterlimit="10" stroke-linecap="round" stroke-linejoin="round"/>
<path d="M39.5211 22.94L41.3253 25.7031L43.1147 22.9543" fill="white"/>
<path d="M39.5211 22.94L41.3253 25.7031L43.1147 22.9543" stroke="#EB5C26" stroke-miterlimit="10" stroke-linecap="round" stroke-linejoin="round"/>
<path d="M41.3182 28.5884L41.3253 25.7031L41.3182 28.5884Z" fill="white"/>
<path d="M41.3182 28.5884L41.3253 25.7031" stroke="#EB5C26" stroke-miterlimit="10" stroke-linecap="round" stroke-linejoin="round"/>
<path d="M30.0705 23.8209V28.5884V23.8209Z" fill="white"/>
<path d="M30.0705 23.8209V28.5884" stroke="#EB5C26" stroke-miterlimit="10" stroke-linecap="round" stroke-linejoin="round"/>
<path d="M33.2683 24.5343C33.2683 25.4146 32.5235 26.1282 31.6432 26.1282C31.2066 26.1282 30.0814 26.1353 30.0814 26.1353C30.0814 26.1353 30.0744 24.978 30.0744 24.5343C30.0744 24.1698 30.0705 22.9403 30.0705 22.9403H31.6432C32.5235 22.9403 33.2683 23.6539 33.2683 24.5343Z" fill="white" stroke="#EB5C26" stroke-miterlimit="10" stroke-linecap="round" stroke-linejoin="round"/>
<path d="M20.6055 17.3828H14.5508C14.3954 17.3828 14.2463 17.3211 14.1365 17.2112C14.0266 17.1013 13.9648 16.9523 13.9648 16.7969V12.8906C13.9648 12.7352 14.0266 12.5862 14.1365 12.4763C14.2463 12.3664 14.3954 12.3047 14.5508 12.3047H20.6055C20.7609 12.3047 20.9099 12.3664 21.0198 12.4763C21.1297 12.5862 21.1914 12.7352 21.1914 12.8906V16.7969C21.1914 16.9523 21.1297 17.1013 21.0198 17.2112C20.9099 17.3211 20.7609 17.3828 20.6055 17.3828Z" fill="white" stroke="#EB5C26" stroke-miterlimit="10" stroke-linecap="round" stroke-linejoin="round"/>
<path d="M18.1641 28.3032H9.57031V23.2251H18.1641C19.5663 23.2251 20.7031 24.3619 20.7031 25.7642C20.7031 27.1664 19.5663 28.3032 18.1641 28.3032Z" fill="white" stroke="#EB5C26" stroke-miterlimit="10" stroke-linecap="round" stroke-linejoin="round"/>
<path d="M27.4808 14.0693V15.2412V14.0693Z" fill="white"/>
<path d="M27.4808 14.0693V15.2412" stroke="#EB5C26" stroke-miterlimit="10" stroke-linecap="round" stroke-linejoin="round"/>
<path d="M39.5612 14.0693V15.2412V14.0693Z" fill="white"/>
<path d="M39.5612 14.0693V15.2412" stroke="#EB5C26" stroke-miterlimit="10" stroke-linecap="round" stroke-linejoin="round"/>
<path d="M42.1721 14.0693V15.2412V14.0693Z" fill="white"/>
<path d="M42.1721 14.0693V15.2412" stroke="#EB5C26" stroke-miterlimit="10" stroke-linecap="round" stroke-linejoin="round"/>
<path d="M31.2717 14.0693V15.2412V14.0693Z" fill="white"/>
<path d="M31.2717 14.0693V15.2412" stroke="#EB5C26" stroke-miterlimit="10" stroke-linecap="round" stroke-linejoin="round"/>
<path d="M34.0391 14.0693V15.2412V14.0693Z" fill="white"/>
<path d="M34.0391 14.0693V15.2412" stroke="#EB5C26" stroke-miterlimit="10" stroke-linecap="round" stroke-linejoin="round"/>
</g>
</svg>
