<svg width="50" height="50" viewBox="0 0 50 50" fill="none" xmlns="http://www.w3.org/2000/svg">
<path d="M31.5259 16.3476C31.7611 16.6439 32.1129 16.8139 32.4914 16.8139C32.8698 16.8139 33.2215 16.6439 33.4567 16.3476L37.4828 11.2733C37.7795 10.8995 37.8349 10.4006 37.6275 9.97121C37.4201 9.54176 36.9948 9.27506 36.5175 9.27506H35.2853V0.790511C35.2853 0.580854 35.202 0.379785 35.0538 0.231535C34.9055 0.0832857 34.7045 0 34.4948 0H30.4681C30.2585 0 30.0574 0.0832857 29.9092 0.231535C29.7609 0.379785 29.6776 0.580854 29.6776 0.790511V9.27516H28.4652C27.9879 9.27516 27.5625 9.54186 27.3552 9.97131C27.1477 10.4007 27.2032 10.8996 27.4999 11.2734L31.526 16.3477L31.5259 16.3476ZM30.468 10.8562C30.6777 10.8562 30.8788 10.7729 31.027 10.6246C31.1753 10.4764 31.2586 10.2753 31.2586 10.0657V1.58102H33.7042V10.0657C33.7042 10.2753 33.7875 10.4764 33.9357 10.6246C34.084 10.7729 34.2851 10.8562 34.4947 10.8562H35.7955L32.4914 15.0207L29.1871 10.8562H30.468ZM37.4033 7.53871H38.6157V16.0235C38.6157 16.2331 38.699 16.4342 38.8473 16.5824C38.9955 16.7307 39.1966 16.814 39.4063 16.814H43.433C43.6427 16.814 43.8437 16.7307 43.992 16.5824C44.1402 16.4342 44.2235 16.2331 44.2235 16.0235V7.53871H45.4557C45.933 7.53871 46.3583 7.27201 46.5657 6.84276C46.7731 6.41341 46.7176 5.9145 46.4209 5.54059L42.3949 0.466303C42.1597 0.16996 41.8079 9.88067e-05 41.4295 9.88067e-05C41.051 9.88067e-05 40.6993 0.170059 40.4642 0.466401L36.4378 5.54079C36.1412 5.9147 36.0858 6.41361 36.2933 6.84286C36.5008 7.27211 36.926 7.5388 37.4032 7.5388L37.4033 7.53871ZM41.4295 1.79327L44.7337 5.95768H43.4329C43.2233 5.95768 43.0222 6.04097 42.8739 6.18922C42.7257 6.33747 42.6424 6.53854 42.6424 6.7482V15.2329H40.1967V6.7482C40.1967 6.53854 40.1134 6.33747 39.9651 6.18922C39.8169 6.04097 39.6158 5.95768 39.4062 5.95768H38.1251L41.4294 1.79327H41.4295ZM27.1777 32.9665C26.6271 31.6606 26.3479 30.2743 26.3479 28.8461C26.3479 22.9944 31.1087 18.2336 36.9603 18.2336C42.812 18.2336 47.5728 22.9945 47.5728 28.8461C47.5728 30.2744 47.2936 31.6606 46.7429 32.9665C46.6598 33.1572 46.5049 33.3076 46.3117 33.3848C46.1185 33.4621 45.9027 33.4601 45.711 33.3793C45.5193 33.2984 45.3671 33.1453 45.2876 32.953C45.2081 32.7608 45.2076 32.5449 45.2862 32.3522C45.7544 31.2419 45.9919 30.0622 45.9919 28.8462C45.9919 23.8663 41.9403 19.8147 36.9604 19.8147C31.9805 19.8147 27.929 23.8663 27.929 28.8462C27.929 30.0622 28.1664 31.2419 28.6347 32.3522C28.675 32.4479 28.6961 32.5506 28.6968 32.6544C28.6975 32.7582 28.6777 32.8611 28.6385 32.9572C28.5994 33.0534 28.5417 33.1409 28.4688 33.2148C28.3959 33.2886 28.3091 33.3474 28.2134 33.3877C28.1164 33.4289 28.0121 33.4501 27.9067 33.4501C27.7511 33.4501 27.599 33.4042 27.4694 33.3182C27.3397 33.2322 27.2384 33.1098 27.1779 32.9665H27.1777ZM42.4806 32.2441C43.1094 31.2252 43.4418 30.0502 43.4418 28.846C43.4418 25.2721 40.5342 22.3645 36.9603 22.3645C33.3864 22.3645 30.4789 25.2721 30.4789 28.846C30.4789 30.0502 30.8112 31.2251 31.4401 32.2441C31.5139 32.3639 31.5544 32.5011 31.5575 32.6417C31.5606 32.7823 31.5261 32.9212 31.4576 33.044C31.3892 33.1669 31.2892 33.2692 31.168 33.3406C31.0468 33.4119 30.9088 33.4496 30.7681 33.4499C30.6331 33.4501 30.5004 33.4156 30.3824 33.3499C30.2645 33.2842 30.1654 33.1893 30.0946 33.0744C29.3118 31.8056 28.8981 30.3435 28.8981 28.846C28.8981 24.4004 32.5149 20.7835 36.9605 20.7835C41.4061 20.7835 45.023 24.4004 45.023 28.846C45.023 30.3436 44.6092 31.8057 43.8263 33.0744C43.7718 33.1627 43.7004 33.2395 43.6162 33.3002C43.5321 33.361 43.4367 33.4046 43.3357 33.4285C43.2347 33.4524 43.13 33.4562 43.0275 33.4396C42.925 33.423 42.8268 33.3864 42.7385 33.3319C42.6501 33.2774 42.5734 33.206 42.5126 33.1218C42.4519 33.0376 42.4083 32.9423 42.3844 32.8413C42.3605 32.7403 42.3567 32.6355 42.3733 32.5331C42.3898 32.4306 42.4264 32.3324 42.4809 32.244L42.4806 32.2441ZM1.79345 37.1284H11.0538C11.2634 37.1284 11.4645 37.0451 11.6128 36.8969C11.761 36.7486 11.8443 36.5476 11.8443 36.3379V27.0775C11.8443 26.8678 11.761 26.6667 11.6128 26.5185C11.4645 26.3702 11.2634 26.287 11.0538 26.287H1.79345C1.5838 26.287 1.38273 26.3702 1.23448 26.5185C1.08623 26.6667 1.00294 26.8678 1.00294 27.0775V36.3379C1.00294 36.5476 1.08623 36.7486 1.23448 36.8969C1.38273 37.0451 1.5838 37.1284 1.79345 37.1284ZM5.88415 27.868H6.963V29.2792H5.88415V27.868ZM2.58397 27.868H4.30313V30.0697C4.30313 30.2794 4.38641 30.4805 4.53466 30.6287C4.68291 30.777 4.88398 30.8603 5.09364 30.8603H7.75351C7.96317 30.8603 8.16424 30.777 8.31249 30.6287C8.46074 30.4805 8.54402 30.2794 8.54402 30.0697V27.868H10.2632V35.5474H2.58397V27.868ZM14.4175 37.1284H23.6779C23.8875 37.1284 24.0886 37.0451 24.2368 36.8969C24.3851 36.7486 24.4684 36.5476 24.4684 36.3379V27.0775C24.4684 26.8678 24.3851 26.6667 24.2368 26.5185C24.0886 26.3702 23.8875 26.287 23.6779 26.287H14.4175C14.2079 26.287 14.0068 26.3702 13.8585 26.5185C13.7103 26.6667 13.627 26.8678 13.627 27.0775V36.3379C13.627 36.5476 13.7103 36.7486 13.8585 36.8969C14.0068 37.0451 14.2079 37.1284 14.4175 37.1284ZM18.5082 27.868H19.5871V29.2792H18.5082V27.868ZM15.208 27.868H16.9272V30.0697C16.9272 30.2794 17.0105 30.4805 17.1587 30.6287C17.307 30.777 17.508 30.8603 17.7177 30.8603H20.3776C20.5872 30.8603 20.7883 30.777 20.9365 30.6287C21.0848 30.4805 21.1681 30.2794 21.1681 30.0697V27.868H22.8872V35.5474H15.2079V27.868H15.208ZM1.79345 24.5044H11.0538C11.2634 24.5044 11.4645 24.4212 11.6128 24.2729C11.761 24.1247 11.8443 23.9236 11.8443 23.7139V14.4536C11.8443 14.2439 11.761 14.0429 11.6128 13.8946C11.4645 13.7464 11.2634 13.6631 11.0538 13.6631H1.79345C1.5838 13.6631 1.38273 13.7464 1.23448 13.8946C1.08623 14.0429 1.00294 14.2439 1.00294 14.4536V23.7139C1.00294 23.9236 1.08623 24.1247 1.23448 24.2729C1.38273 24.4212 1.5838 24.5044 1.79345 24.5044ZM5.88415 15.244H6.963V16.6553H5.88415V15.244ZM2.58397 15.244H4.30313V17.4458C4.30313 17.6554 4.38641 17.8565 4.53466 18.0048C4.68291 18.153 4.88398 18.2363 5.09364 18.2363H7.75351C7.96317 18.2363 8.16424 18.153 8.31249 18.0048C8.46074 17.8565 8.54402 17.6554 8.54402 17.4458V15.244H10.2632V22.9234H2.58397V15.244ZM14.4175 24.5044H23.678C23.8876 24.5044 24.0887 24.4212 24.2369 24.2729C24.3852 24.1247 24.4685 23.9236 24.4685 23.7139V14.4536C24.4685 14.2439 24.3852 14.0429 24.2369 13.8946C24.0887 13.7464 23.8876 13.6631 23.678 13.6631H14.4175C14.2079 13.6631 14.0068 13.7464 13.8585 13.8946C13.7103 14.0429 13.627 14.2439 13.627 14.4536V23.7139C13.627 23.9236 13.7103 24.1247 13.8585 24.2729C14.0068 24.4212 14.2079 24.5044 14.4175 24.5044ZM18.5082 15.244H19.5871V16.6553H18.5082V15.244ZM15.208 15.244H16.9272V17.4458C16.9272 17.6554 17.0105 17.8565 17.1587 18.0048C17.307 18.153 17.508 18.2363 17.7177 18.2363H20.3776C20.5872 18.2363 20.7883 18.153 20.9365 18.0048C21.0848 17.8565 21.1681 17.6554 21.1681 17.4458V15.244H22.8873V22.9234H15.2079V15.244H15.208ZM49.8664 34.2783C49.7942 34.1703 49.6964 34.0817 49.5818 34.0204C49.4672 33.9592 49.3392 33.9271 49.2093 33.9271H37.6948C37.7317 33.8346 37.7508 33.7358 37.7508 33.6361V32.9794C38.1387 32.9206 38.5063 32.8115 38.8268 32.652C39.5181 32.3083 39.994 31.6595 40.0997 30.9167C40.2009 30.2059 39.9586 29.5215 39.435 29.0389C39.0419 28.6768 38.4751 28.3886 37.7498 28.1824C37.5443 28.124 37.327 28.0726 37.1167 28.0229C36.6018 27.9012 36.0181 27.763 35.7227 27.5338C35.5984 27.4373 35.4473 27.2806 35.4327 27.0812C35.4223 26.9386 35.4858 26.7878 35.6117 26.6568C35.917 26.3387 36.6445 26.177 37.3414 26.2718C37.8968 26.3475 38.3368 26.5709 38.4899 26.8549C38.697 27.2394 39.1767 27.3831 39.5607 27.176C39.7453 27.0765 39.8828 26.9079 39.943 26.707C40.0032 26.5062 39.9812 26.2897 39.8817 26.1051C39.5062 25.408 38.7359 24.9158 37.7509 24.7364V24.0561C37.7509 23.8465 37.6676 23.6454 37.5194 23.4972C37.3711 23.3489 37.1701 23.2656 36.9604 23.2656C36.7508 23.2656 36.5497 23.3489 36.4014 23.4972C36.2532 23.6454 36.1699 23.8465 36.1699 24.0561V24.7311C35.481 24.8546 34.8732 25.1431 34.4712 25.5619C34.031 26.0206 33.8125 26.601 33.856 27.1962C33.9004 27.8046 34.2191 28.3681 34.7535 28.7829C35.3203 29.2226 36.0815 29.4026 36.753 29.5614C36.9552 29.6093 37.1462 29.6544 37.3176 29.7032C37.9215 29.8749 38.2198 30.069 38.3637 30.2016C38.549 30.3724 38.5503 30.5832 38.5345 30.6937C38.5016 30.9249 38.3514 31.1227 38.1227 31.2365C37.2346 31.6785 35.642 31.4051 35.2828 30.7491C35.233 30.658 35.1657 30.5777 35.0848 30.5126C35.0039 30.4476 34.911 30.3991 34.8114 30.37C34.7117 30.3408 34.6073 30.3316 34.5042 30.3428C34.401 30.354 34.301 30.3855 34.2099 30.4354C34.1189 30.4852 34.0385 30.5525 33.9735 30.6334C33.9084 30.7143 33.8599 30.8072 33.8308 30.9068C33.8017 31.0065 33.7924 31.1109 33.8037 31.2141C33.8149 31.3173 33.8463 31.4172 33.8962 31.5083C34.3228 32.2875 35.2056 32.7672 36.1699 32.9482V33.6361C36.1699 33.739 36.1902 33.837 36.2259 33.9271H28.9863C28.8611 33.9271 28.7377 33.9569 28.6262 34.0139C28.5147 34.071 28.4184 34.1537 28.3451 34.2553L24.9879 38.911H0.790494C0.66146 38.911 0.534385 38.9426 0.420366 39.003C0.306346 39.0634 0.20885 39.1508 0.136391 39.2576C0.0639322 39.3643 0.018714 39.4872 0.00468544 39.6155C-0.00934316 39.7438 0.00824442 39.8735 0.0559123 39.9934L3.83307 49.5011C3.8915 49.6482 3.99277 49.7744 4.12376 49.8634C4.25475 49.9523 4.40943 49.9998 4.56775 49.9998H43.2171C43.3735 49.9998 43.5265 49.9534 43.6565 49.8665C43.7865 49.7795 43.8879 49.6559 43.9476 49.5114L49.94 35.0197C49.9897 34.8996 50.009 34.7692 49.9962 34.6398C49.9834 34.5105 49.9389 34.3864 49.8667 34.2783H49.8664ZM42.6884 48.4189H5.10411L1.95511 40.4921H30.8734C31.083 40.4921 31.2841 40.4088 31.4324 40.2606C31.5806 40.1124 31.6639 39.9113 31.6639 39.7016C31.6639 39.492 31.5806 39.2909 31.4324 39.1427C31.2841 38.9944 31.083 38.9111 30.8734 38.9111H26.9369L29.3908 35.5082H48.027L42.6885 48.4188L42.6884 48.4189ZM32.1952 43.665H34.2634C34.473 43.665 34.6741 43.7483 34.8224 43.8966C34.9706 44.0448 35.0539 44.2459 35.0539 44.4556C35.0539 44.6652 34.9706 44.8663 34.8224 45.0145C34.6741 45.1628 34.473 45.2461 34.2634 45.2461H32.1952C31.9856 45.2461 31.7845 45.1628 31.6362 45.0145C31.488 44.8663 31.4047 44.6652 31.4047 44.4556C31.4047 44.2459 31.488 44.0448 31.6362 43.8966C31.7845 43.7483 31.9856 43.665 32.1952 43.665ZM37.6091 44.4556C37.6091 44.2459 37.6924 44.0448 37.8407 43.8966C37.9889 43.7483 38.19 43.665 38.3996 43.665H40.4678C40.6775 43.665 40.8785 43.7483 41.0268 43.8966C41.175 44.0448 41.2583 44.2459 41.2583 44.4556C41.2583 44.6652 41.175 44.8663 41.0268 45.0145C40.8785 45.1628 40.6775 45.2461 40.4678 45.2461H38.3996C38.19 45.2461 37.9889 45.1628 37.8407 45.0145C37.6924 44.8663 37.6091 44.6652 37.6091 44.4556ZM10.2364 44.4556C10.2364 44.6652 10.1531 44.8663 10.0049 45.0145C9.85662 45.1628 9.65555 45.2461 9.4459 45.2461H7.37772C7.16806 45.2461 6.967 45.1628 6.81875 45.0145C6.6705 44.8663 6.58721 44.6652 6.58721 44.4556C6.58721 44.2459 6.6705 44.0448 6.81875 43.8966C6.967 43.7483 7.16806 43.665 7.37772 43.665H9.4459C9.65555 43.665 9.85662 43.7483 10.0049 43.8966C10.1531 44.0448 10.2364 44.2459 10.2364 44.4556ZM22.6452 44.4556C22.6452 44.6652 22.5619 44.8663 22.4136 45.0145C22.2654 45.1628 22.0643 45.2461 21.8546 45.2461H19.7865C19.5768 45.2461 19.3757 45.1628 19.2275 45.0145C19.0792 44.8663 18.996 44.6652 18.996 44.4556C18.996 44.2459 19.0792 44.0448 19.2275 43.8966C19.3757 43.7483 19.5768 43.665 19.7865 43.665H21.8546C22.0643 43.665 22.2654 43.7483 22.4136 43.8966C22.5619 44.0448 22.6452 44.2459 22.6452 44.4556ZM16.4407 44.4556C16.4407 44.6652 16.3574 44.8663 16.2092 45.0145C16.0609 45.1628 15.8599 45.2461 15.6502 45.2461H13.582C13.3724 45.2461 13.1713 45.1628 13.0231 45.0145C12.8748 44.8663 12.7915 44.6652 12.7915 44.4556C12.7915 44.2459 12.8748 44.0448 13.0231 43.8966C13.1713 43.7483 13.3724 43.665 13.582 43.665H15.6502C15.8599 43.665 16.0609 43.7483 16.2092 43.8966C16.3574 44.0448 16.4407 44.2459 16.4407 44.4556ZM28.8495 44.4556C28.8495 44.6652 28.7662 44.8663 28.6179 45.0145C28.4697 45.1628 28.2686 45.2461 28.059 45.2461H25.9908C25.7811 45.2461 25.5801 45.1628 25.4318 45.0145C25.2836 44.8663 25.2003 44.6652 25.2003 44.4556C25.2003 44.2459 25.2836 44.0448 25.4318 43.8966C25.5801 43.7483 25.7811 43.665 25.9908 43.665H28.059C28.2686 43.665 28.4697 43.7483 28.6179 43.8966C28.7662 44.0448 28.8495 44.2459 28.8495 44.4556Z" fill="#EB5C26"/>
</svg>
