<svg width="50" height="50" viewBox="0 0 50 50" fill="none" xmlns="http://www.w3.org/2000/svg">
<path d="M46.4056 10.7519H46.4052C45.4484 10.7519 44.5467 11.1266 43.8664 11.807C43.1859 12.4875 42.8111 13.3893 42.8111 14.3462L42.8109 24.9387C42.3458 24.7495 41.8487 24.6516 41.3466 24.6504L41.3306 24.6503C40.2934 24.6503 39.3206 25.0492 38.5894 25.7747L30.8851 33.4185C29.834 34.4614 29.4062 35.9902 29.6478 37.84L30.0898 41.2221L29.7638 41.1347C29.0164 40.9343 28.2455 41.3794 28.0451 42.1269L27.3776 44.6184C27.1773 45.3657 27.6224 46.1367 28.3698 46.3371L41.851 49.9493C41.9715 49.9816 42.0938 49.9976 42.2154 49.9976C42.4585 49.9976 42.6989 49.9336 42.9156 49.8085C43.0755 49.7169 43.2157 49.5945 43.328 49.4483C43.4402 49.3022 43.5224 49.1352 43.5697 48.9571L44.2374 46.4654C44.3342 46.1039 44.2842 45.726 44.0965 45.401C43.9087 45.076 43.6063 44.8436 43.2449 44.7469L42.7775 44.6216C42.5724 42.8288 42.9804 41.5211 44.1088 40.3075L48.2987 35.8004C49.4275 34.5864 49.9998 33.1956 49.9998 31.6664L50 14.3462C50 12.3646 48.3876 10.7523 46.4056 10.7519ZM29.3576 42.6498L29.3588 42.6501C29.3584 42.65 29.358 42.6499 29.3576 42.6498ZM42.0973 48.3914L28.9353 44.8646L29.5173 42.6927L42.6792 46.2194L42.0973 48.3914ZM48.4312 31.6665C48.4312 32.8023 48.0121 33.8051 47.1499 34.7324L42.96 39.2394C41.6379 40.6615 41.0665 42.2195 41.1675 44.1903L31.7291 41.6613L31.2031 37.6368C31.0247 36.2715 31.2894 35.227 31.9897 34.5321L39.694 26.8882C40.1292 26.4565 40.7101 26.219 41.3306 26.219H41.3402C41.9643 26.2215 42.5471 26.4638 42.9811 26.9014C43.8837 27.8111 43.8778 29.2856 42.9681 30.1882L38.8526 34.2714C38.7795 34.3439 38.7214 34.4301 38.6816 34.5251C38.6418 34.6201 38.6211 34.722 38.6207 34.825C38.6203 34.928 38.6402 35.0301 38.6792 35.1254C38.7183 35.2207 38.7757 35.3074 38.8482 35.3805C38.9948 35.5281 39.1939 35.6115 39.4019 35.6123C39.6099 35.6131 39.8097 35.5313 39.9574 35.3848L44.0728 31.3017C45.4938 29.892 45.5976 27.6496 44.3794 26.1178L44.3796 14.3462C44.3796 13.8082 44.5912 13.3004 44.9754 12.9162C45.3595 12.532 45.8673 12.3205 46.405 12.3205H46.4053C47.5226 12.3207 48.4314 13.2294 48.4314 14.3462L48.4312 31.6665ZM21.955 42.1267C21.7547 41.3793 20.9837 40.9347 20.2363 41.1346L19.9103 41.222L20.3523 37.8398C20.5939 35.9902 20.1661 34.4613 19.115 33.4184L11.4108 25.7745C10.6796 25.0491 9.70677 24.6502 8.66961 24.6502L8.65363 24.6503C8.15152 24.6515 7.65433 24.7494 7.18922 24.9385L7.18902 14.346C7.18902 13.389 6.81422 12.4873 6.13373 11.8068C5.45324 11.1264 4.55137 10.7516 3.59431 10.7517C1.61245 10.7523 0 12.3646 0 14.3462L0.000196076 31.6665C0.000196076 33.1956 0.572549 34.5865 1.70118 35.8005L5.89118 40.3076C7.01951 41.5212 7.42745 42.829 7.22255 44.6218L6.7551 44.7471C6.39363 44.8438 6.09118 45.0761 5.90343 45.4012C5.71569 45.7263 5.66578 46.1042 5.76265 46.4656L6.43029 48.9573C6.47761 49.1354 6.55978 49.3024 6.67206 49.4485C6.78434 49.5947 6.92449 49.7171 7.08441 49.8087C7.29709 49.9322 7.53858 49.9974 7.78451 49.9978C7.90608 49.9978 8.02843 49.9818 8.14882 49.9495L21.6303 46.3372C22.3776 46.1368 22.8227 45.3659 22.6225 44.6186L21.955 42.1267ZM20.6424 42.6498C20.642 42.6499 20.6416 42.65 20.6412 42.6501L20.6424 42.6498ZM7.0401 39.2394L2.8501 34.7324C1.98794 33.8051 1.56892 32.8022 1.56892 31.6665L1.56863 14.3462C1.56863 13.2294 2.47745 12.3207 3.59461 12.3205C4.13255 12.3204 4.64039 12.532 5.02461 12.9162C5.40882 13.3004 5.62039 13.8082 5.62039 14.3462L5.62059 26.1178C4.40235 27.6496 4.50618 29.892 5.92716 31.3017L10.0425 35.3848C10.1904 35.5302 10.3899 35.6111 10.5972 35.6098C10.8046 35.6085 11.003 35.5252 11.1491 35.378C11.2952 35.2308 11.377 35.0317 11.3767 34.8243C11.3764 34.617 11.294 34.4181 11.1475 34.2714L7.03206 30.1882C6.12225 29.2856 6.11647 27.8111 7.01902 26.9013C7.45304 26.4638 8.03578 26.2215 8.6599 26.219H8.66961C9.2901 26.219 9.87098 26.4566 10.3062 26.8882L18.0104 34.5322C18.7108 35.227 18.9754 36.2715 18.797 37.6368L18.2711 41.6613L8.83265 44.1904C8.93363 42.2196 8.36216 40.6616 7.0401 39.2394ZM7.90275 48.3914L7.32078 46.2194L20.4827 42.6927L21.0648 44.8646L7.90275 48.3914ZM24.0216 3.25187C17.7723 3.25187 12.6881 8.33599 12.6881 14.5854C12.6881 20.8346 17.7723 25.9188 24.0216 25.9188C30.2709 25.9188 35.3551 20.8347 35.3551 14.5854C35.355 8.33599 30.2709 3.25187 24.0216 3.25187ZM18.5456 22.6662C19.9538 21.1457 21.9481 20.2568 24.0216 20.2568C26.095 20.2568 28.0893 21.1457 29.4975 22.6662C27.9348 23.7285 26.0494 24.3501 24.0215 24.3501C21.9936 24.3501 20.1083 23.7285 18.5456 22.6662ZM20.349 14.5853C20.349 12.5603 21.9965 10.9128 24.0215 10.9128C26.0465 10.9128 27.694 12.5603 27.694 14.5853C27.694 16.6103 26.0465 18.2579 24.0215 18.2579C21.9965 18.2579 20.349 16.6104 20.349 14.5853ZM30.7225 21.6812C29.6307 20.4753 28.2363 19.5833 26.6838 19.0974C28.2259 18.1839 29.2626 16.5038 29.2626 14.5853C29.2626 11.6953 26.9115 9.34413 24.0215 9.34413C21.1315 9.34413 18.7804 11.6953 18.7804 14.5853C18.7804 16.5038 19.8172 18.1839 21.3593 19.0974C19.8068 19.5833 18.4125 20.4753 17.3206 21.6812C15.4352 19.8998 14.2568 17.3777 14.2568 14.5853C14.2568 9.20089 18.6373 4.8204 24.0216 4.8204C29.4059 4.8204 33.7865 9.20089 33.7865 14.5853C33.7864 17.3778 32.6079 19.8998 30.7225 21.6812ZM38.6097 14.5853C38.6097 6.54129 32.0655 -0.00292969 24.0216 -0.00292969C15.9776 -0.00292969 9.43343 6.54129 9.43343 14.5853C9.43343 22.6292 15.9776 29.1734 24.0216 29.1734C32.0655 29.1734 38.6097 22.6292 38.6097 14.5853ZM24.0216 27.6048C16.8426 27.6048 11.0021 21.7643 11.0021 14.5853C11.0021 7.40619 16.8426 1.5657 24.0216 1.5657C31.2006 1.5657 37.0411 7.40619 37.0411 14.5853C37.0411 21.7643 31.2006 27.6048 24.0216 27.6048Z" fill="#EB5C26"/>
</svg>
