<svg width="50" height="56" viewBox="0 0 50 56" fill="none" xmlns="http://www.w3.org/2000/svg">
<path d="M47 44H46V5C46 2.243 43.757 0 41 0H5C2.243 0 0 2.243 0 5V13C0 15.757 2.243 18 5 18H8V51C8 53.757 10.243 56 13 56H45C47.757 56 50 53.757 50 51V47C50 45.346 48.654 44 47 44ZM10 51V5C10 3.87 9.609 2.838 8.974 2H41C42.654 2 44 3.346 44 5V44H19C17.346 44 16 45.346 16 47V51C16 52.654 14.654 54 13 54C11.346 54 10 52.654 10 51ZM17 14C17 13.449 16.552 13 16 13C14.346 13 13 11.654 13 10C13 8.698 13.839 7.598 15 7.184V6C15 5.73478 15.1054 5.48043 15.2929 5.29289C15.4804 5.10536 15.7348 5 16 5C16.2652 5 16.5196 5.10536 16.7071 5.29289C16.8946 5.48043 17 5.73478 17 6V7H18C18.2652 7 18.5196 7.10536 18.7071 7.29289C18.8946 7.48043 19 7.73478 19 8C19 8.26522 18.8946 8.51957 18.7071 8.70711C18.5196 8.89464 18.2652 9 18 9H16C15.7425 9.01152 15.4994 9.12191 15.3213 9.30818C15.1431 9.49446 15.0437 9.74226 15.0437 10C15.0437 10.2577 15.1431 10.5055 15.3213 10.6918C15.4994 10.8781 15.7425 10.9885 16 11C17.654 11 19 12.346 19 14C18.9982 14.6184 18.8049 15.2211 18.4468 15.7253C18.0887 16.2296 17.5833 16.6105 17 16.816V18C17 18.2652 16.8946 18.5196 16.7071 18.7071C16.5196 18.8946 16.2652 19 16 19C15.7348 19 15.4804 18.8946 15.2929 18.7071C15.1054 18.5196 15 18.2652 15 18V17H14C13.7348 17 13.4804 16.8946 13.2929 16.7071C13.1054 16.5196 13 16.2652 13 16C13 15.7348 13.1054 15.4804 13.2929 15.2929C13.4804 15.1054 13.7348 15 14 15H16C16.552 15 17 14.551 17 14ZM23 12C23 11.7348 23.1054 11.4804 23.2929 11.2929C23.4804 11.1054 23.7348 11 24 11H40.041C40.3062 11 40.5606 11.1054 40.7481 11.2929C40.9356 11.4804 41.041 11.7348 41.041 12C41.041 12.2652 40.9356 12.5196 40.7481 12.7071C40.5606 12.8946 40.3062 13 40.041 13H24C23.7348 13 23.4804 12.8946 23.2929 12.7071C23.1054 12.5196 23 12.2652 23 12ZM23 8C23 7.73478 23.1054 7.48043 23.2929 7.29289C23.4804 7.10536 23.7348 7 24 7H32.041C32.3062 7 32.5606 7.10536 32.7481 7.29289C32.9356 7.48043 33.041 7.73478 33.041 8C33.041 8.26522 32.9356 8.51957 32.7481 8.70711C32.5606 8.89464 32.3062 9 32.041 9H24C23.7348 9 23.4804 8.89464 23.2929 8.70711C23.1054 8.51957 23 8.26522 23 8ZM23 16C23 15.7348 23.1054 15.4804 23.2929 15.2929C23.4804 15.1054 23.7348 15 24 15H36.041C36.3062 15 36.5606 15.1054 36.7481 15.2929C36.9356 15.4804 37.041 15.7348 37.041 16C37.041 16.2652 36.9356 16.5196 36.7481 16.7071C36.5606 16.8946 36.3062 17 36.041 17H24C23.7348 17 23.4804 16.8946 23.2929 16.7071C23.1054 16.5196 23 16.2652 23 16ZM16 41H38C39.654 41 41 39.654 41 38V24C41 22.346 39.654 21 38 21H16C14.346 21 13 22.346 13 24V38C13 39.654 14.346 41 16 41ZM39 33H21V29H39V33ZM19 33H15V29H19V33ZM15 38V35H19V39H16C15.448 39 15 38.551 15 38ZM38 39H21V35H39V38C39 38.551 38.552 39 38 39ZM39 24V27H21V23H38C38.552 23 39 23.449 39 24ZM16 23H19V27H15V24C15 23.449 15.448 23 16 23Z" fill="#EB5C26"/>
</svg>
