<svg width="50" height="50" viewBox="0 0 50 50" fill="none" xmlns="http://www.w3.org/2000/svg">
<path d="M19.0487 22.2729L19.4798 21.8418C23.6022 17.7194 30.2859 17.7194 34.4082 21.8418C38.5306 25.9641 38.5306 32.6478 34.4082 36.7702L28.4369 42.7416C24.3145 46.8639 17.6308 46.8639 13.5085 42.7416C9.3861 38.6192 9.3861 31.9355 13.5085 27.8131L14.4758 26.8458" stroke="#141B34" stroke-width="3" stroke-linecap="round"/>
<path d="M35.5242 23.1543L36.4916 22.1869C40.6139 18.0646 40.6139 11.3809 36.4916 7.25852C32.3692 3.13616 25.6855 3.13616 21.5631 7.25852L15.5918 13.2299C11.4694 17.3523 11.4694 24.0359 15.5918 28.1583C19.7141 32.2807 26.3978 32.2807 30.5202 28.1583L30.9513 27.7272" stroke="#141B34" stroke-width="3" stroke-linecap="round"/>
</svg>
